<svg width="115" height="115" viewBox="0 0 115 115" fill="none" xmlns="http://www.w3.org/2000/svg">
<path d="M105.868 115H8.79412C4.05882 115 0 110.941 0 105.868V8.79412C0 4.05882 4.05882 0 8.79412 0H105.868C110.941 0 115 4.05882 115 8.79412V105.868C115 110.941 110.941 115 105.868 115ZM8.79412 4.39706C6.08823 4.39706 4.05882 6.42647 4.05882 9.13235V106.206C4.05882 108.912 6.08823 110.941 8.79412 110.941H105.868C108.574 110.941 110.603 108.912 110.603 106.206V8.79412C110.603 6.08823 108.574 4.05882 105.868 4.05882H8.79412V4.39706Z" fill="white"/>
<path d="M54.7946 60.8824V93.353H42.9564C41.2652 93.353 39.9123 94.7059 39.9123 96.3971C39.9123 98.0882 41.2652 99.4412 42.9564 99.4412H72.0446C73.7358 99.4412 75.0888 98.0882 75.0888 96.3971C75.0888 94.7059 73.7358 93.353 72.0446 93.353H60.2064V60.8824C73.3976 59.5294 83.8829 48.3677 83.8829 34.5V15.5588H52.7652L56.1476 31.1177L49.0446 31.4559L52.427 52.7647L41.6035 26.0441L48.7064 26.3824L44.6476 15.8971H31.1182V34.8382C31.1182 48.0294 41.2652 59.1912 54.7946 60.8824Z" fill="white"/>
</svg>
