<svg width="38" height="38" viewBox="0 0 38 38" fill="none" xmlns="http://www.w3.org/2000/svg">
<path d="M10.9552 37.37C6.52463 37.37 2.5303 34.7011 0.83451 30.6079C-0.861276 26.5147 0.0753928 21.803 3.2078 18.6696L7.85712 14.0203L10.9552 17.1184L6.30808 21.7655C4.64743 23.4262 3.99887 25.8466 4.60671 28.1151C5.21455 30.3836 6.98644 32.1555 9.25493 32.7634C11.5234 33.3712 13.9439 32.7227 15.6045 31.062L20.2516 26.4149L23.3497 29.5151L18.7026 34.1623C16.652 36.223 13.8623 37.378 10.9552 37.37ZM12.5042 27.9639L9.40616 24.8658L24.8988 9.37318L27.9968 12.4713L12.5064 27.9617L12.5042 27.9639ZM29.5481 23.3168L26.4478 20.2187L31.0949 15.5716C32.7782 13.9159 33.4441 11.4846 32.8395 9.20224C32.2349 6.9199 30.4526 5.13719 28.1704 4.53202C25.8882 3.92685 23.4567 4.59222 21.8007 6.27509L17.1514 10.9222L14.0533 7.82414L18.7026 3.17481C22.9862 -1.07144 29.8964 -1.05631 34.1613 3.20866C38.4263 7.47363 38.4414 14.3838 34.1952 18.6674L29.5481 23.3146V23.3168Z" fill="white"/>
</svg>
