<svg width="83" height="83" viewBox="0 0 83 83" fill="none" xmlns="http://www.w3.org/2000/svg">
<rect width="83" height="83" rx="10.1633" fill="#56F8A1"/>
<path d="M67.827 42.8396L47.7799 52.6301L43.3103 54.8129C41.7824 55.5591 40.001 54.4466 40.001 52.7462L40.001 28.7997C40.001 27.0993 41.7824 25.9868 43.3103 26.733L67.827 38.7062C69.5479 39.5467 69.5479 41.9992 67.827 42.8396Z" fill="white"/>
<path d="M20 60.7457L20 20.6829C20 18.9825 21.7814 17.87 23.3093 18.6162L35.6481 24.6421C36.4379 25.0278 36.9388 25.8299 36.9388 26.7088L36.9388 54.7198C36.9388 55.5987 36.4379 56.4008 35.6481 56.7865L23.3093 62.8124C21.7814 63.5586 20 62.4461 20 60.7457Z" fill="#8D90FF"/>
</svg>
