<svg width="13" height="13" viewBox="0 0 13 13" fill="none" xmlns="http://www.w3.org/2000/svg">
<path d="M6.49639 13C4.72071 13 4.51138 12.9906 3.81843 12.9604C3.27806 12.9426 2.74468 12.8329 2.24125 12.636C1.37024 12.2975 0.681501 11.6095 0.342865 10.7396C0.153247 10.2351 0.0509735 9.70206 0.040422 9.16328C0 8.47278 0 8.24645 0 6.48703C0 4.70886 0.00938368 4.50128 0.040422 3.81293C0.0512043 3.27488 0.153474 2.74258 0.342865 2.23874C0.681133 1.3677 1.37099 0.6791 2.24342 0.34165C2.74772 0.15151 3.28093 0.0491171 3.81988 0.0389222C4.50922 0 4.73587 0 6.49639 0C8.28651 0 8.49223 0.00937015 9.17435 0.0389222C9.7147 0.0492053 10.2493 0.151587 10.7551 0.34165C11.6273 0.679482 12.317 1.36795 12.6557 2.23874C12.8485 2.74992 12.9513 3.29055 12.9596 3.83672C13 4.52722 13 4.75283 13 6.51153C13 8.27024 12.9899 8.50089 12.9596 9.18347C12.9488 9.72275 12.8463 10.2563 12.6564 10.7613C12.3169 11.6317 11.6271 12.32 10.7551 12.6583C10.25 12.8473 9.71651 12.9494 9.17723 12.9604C8.4879 13 8.26197 13 6.49639 13ZM6.47185 1.141C4.70627 1.141 4.52293 1.14965 3.83359 1.18064C3.42214 1.18608 3.01467 1.2619 2.62887 1.4048C2.05918 1.62248 1.60838 2.0708 1.38806 2.63878C1.24385 3.02821 1.16791 3.43955 1.16358 3.85473C1.12532 4.55317 1.12532 4.73625 1.12532 6.48703C1.12532 8.2169 1.13182 8.42665 1.16358 9.12076C1.17004 9.53175 1.24593 9.9387 1.38806 10.3245C1.60871 10.8921 2.05942 11.34 2.62887 11.5577C3.01441 11.7016 3.42205 11.7774 3.83359 11.7819C4.53232 11.8222 4.71638 11.8222 6.47185 11.8222C8.24248 11.8222 8.42582 11.8136 9.10938 11.7819C9.52111 11.7769 9.92889 11.701 10.3148 11.5577C10.8811 11.3382 11.3289 10.8912 11.5491 10.3259C11.6931 9.93614 11.769 9.52462 11.7736 9.10923H11.7816C11.8126 8.42016 11.8126 8.23636 11.8126 6.47549C11.8126 4.71463 11.8047 4.52939 11.7736 3.84104C11.7672 3.43052 11.6913 3.02404 11.5491 2.63878C11.3294 2.07266 10.8815 1.62485 10.3148 1.4048C9.92898 1.26118 9.52114 1.18534 9.10938 1.18064C8.41138 1.141 8.22876 1.141 6.47185 1.141ZM6.49639 9.81631C5.14658 9.81719 3.92918 9.00596 3.41195 7.76097C2.89472 6.51599 3.17955 5.08246 4.1336 4.12896C5.08765 3.17547 6.523 2.8898 7.77023 3.40521C9.01746 3.92061 9.83091 5.13555 9.8312 6.48342C9.82922 8.32218 8.3378 9.81274 6.49639 9.81631ZM6.49639 4.31964C5.30044 4.31964 4.33093 5.28775 4.33093 6.48198C4.33093 7.67621 5.30044 8.64432 6.49639 8.64432C7.69234 8.64432 8.66185 7.67621 8.66185 6.48198C8.65908 5.2889 7.69119 4.32241 6.49639 4.31964ZM9.96113 3.80572C9.53195 3.80413 9.1851 3.45585 9.1859 3.02728C9.1867 2.59872 9.53484 2.25172 9.96402 2.25172C10.3932 2.25172 10.7413 2.59872 10.7421 3.02728C10.7423 3.23404 10.6601 3.43237 10.5135 3.57844C10.367 3.72451 10.1682 3.8063 9.96113 3.80572Z" fill="white"/>
</svg>
