<svg width="55" height="55" viewBox="0 0 55 55" fill="none" xmlns="http://www.w3.org/2000/svg">
<rect width="55" height="55" rx="10" fill="black"/>
<path d="M18.435 10.5042C19.7627 10.5042 20.912 10.7254 21.8828 11.168C22.8679 11.6106 23.6246 12.2388 24.1529 13.0526C24.6811 13.8663 24.9452 14.83 24.9452 15.9436C24.9452 17.0429 24.6811 18.0066 24.1529 18.8347C23.6246 19.6485 22.8679 20.2766 21.8828 20.7192C20.912 21.1475 19.7627 21.3617 18.435 21.3617H15.4154V25.4948H11.9462V10.5042H18.435ZM18.2423 18.5349C19.2845 18.5349 20.0768 18.3136 20.6193 17.871C21.1619 17.4141 21.4331 16.7717 21.4331 15.9436C21.4331 15.1013 21.1619 14.4588 20.6193 14.0162C20.0768 13.5594 19.2845 13.331 18.2423 13.331H15.4154V18.5349H18.2423Z" fill="white"/>
<path d="M39.0043 22.2825H32.0444L30.7166 25.4948H27.1617L33.8432 10.5042H37.2697L43.9727 25.4948H40.3321L39.0043 22.2825ZM37.9121 19.6485L35.5351 13.9092L33.158 19.6485H37.9121Z" fill="white"/>
<path d="M22.0756 37.0998H25.245V43.1818C24.4313 43.7957 23.489 44.2668 22.4182 44.5952C21.3475 44.9235 20.2696 45.0877 19.1845 45.0877C17.6284 45.0877 16.2292 44.7594 14.9871 44.1026C13.7451 43.4316 12.7671 42.5108 12.0533 41.3401C11.3537 40.1551 11.0039 38.8202 11.0039 37.3354C11.0039 35.8506 11.3537 34.5229 12.0533 33.3522C12.7671 32.1672 13.7522 31.2464 15.0086 30.5896C16.2649 29.9186 17.6783 29.5831 19.2488 29.5831C20.5622 29.5831 21.7544 29.8044 22.8251 30.247C23.8959 30.6896 24.7953 31.332 25.5234 32.1743L23.2963 34.2302C22.2255 33.1023 20.9334 32.5384 19.4201 32.5384C18.4635 32.5384 17.6141 32.7383 16.8717 33.138C16.1293 33.5378 15.5511 34.1017 15.137 34.8298C14.723 35.558 14.516 36.3931 14.516 37.3354C14.516 38.2634 14.723 39.0915 15.137 39.8196C15.5511 40.5477 16.1221 41.1188 16.8503 41.5328C17.5927 41.9326 18.435 42.1324 19.3773 42.1324C20.3766 42.1324 21.2761 41.9183 22.0756 41.49V37.0998Z" fill="white"/>
<path d="M42.5375 42.0468V44.8307H30.9304V29.8401H42.2591V32.6241H34.3783V35.8792H41.3382V38.5775H34.3783V42.0468H42.5375Z" fill="white"/>
</svg>
