<svg width="41" height="38" viewBox="0 0 41 38" fill="none" xmlns="http://www.w3.org/2000/svg">
<rect x="2.22437" y="2" width="18.6277" height="18.6277" stroke="white" stroke-width="2.8005"/>
<rect x="7.16187" y="6.71338" width="8.75278" height="8.75278" fill="white"/>
<path d="M27.585 13.7826V8.62069M37.9088 5.92753V2H27.585V8.62069M27.585 8.62069H32.6346" stroke="white" stroke-width="2.8005"/>
<path d="M34.3179 10.3042V15.1856M38.1332 30.5029V25.2288H30.8392V18.7203H34.3179V15.1856M34.3179 15.1856H38.1332H39.3676V20.4036" stroke="white" stroke-width="2.8005"/>
<path d="M2 27.0044V36.0938H9.18177V28.7998H15.8025M22.4232 28.7998C20.1882 28.7998 15.8025 28.7998 15.8025 28.7998M15.8025 28.7998V34.635" stroke="white" stroke-width="2.8005"/>
<path d="M17.3734 36.2058H27.585M36.2256 36.2058C33.2894 36.2058 27.585 36.2058 27.585 36.2058M27.585 36.2058V28.9119" stroke="white" stroke-width="2.8005"/>
</svg>
