<svg width="113" height="55" viewBox="0 0 113 55" fill="none" xmlns="http://www.w3.org/2000/svg">
<path fill-rule="evenodd" clip-rule="evenodd" d="M112.114 0H1V40.68H112.114V0ZM4.54216 8.89178H9.73791V36H14.7077V8.89178H19.9035V4.37374H4.54216V8.89178ZM35.8638 4.37374H22.3097V36H35.8638V31.482H27.2795V21.7682H34.1018V17.2501H27.2795V8.89178H35.8638V4.37374ZM43.6927 4.37374H38.7229V36H43.6927V25.9248L45.6807 21.9037L49.8824 36H55.0782L49.0692 15.9851L54.9878 4.37374H50.018L43.6927 17.7019V4.37374ZM68.0026 4.37374H61.2707L56.1201 36H60.7285L61.6321 29.8103H67.2797V29.7199L68.1833 36H73.1531L68.0026 4.37374ZM64.4785 9.88575L66.6924 25.5182H62.2195L64.3882 9.88575H64.4785ZM82.9287 4.37374H75.5643V36H80.5341V22.4459H82.251C83.3956 22.4459 84.1937 22.732 84.6455 23.3043C85.1275 23.8766 85.3684 24.8856 85.3684 26.3314V32.1145C85.3684 33.2892 85.3986 34.1024 85.4588 34.5542C85.519 35.006 85.6395 35.488 85.8202 36H90.8804C90.6395 35.4578 90.4889 34.9157 90.4286 34.3735C90.3684 33.8012 90.3383 33.0633 90.3383 32.1597V26.6025C90.3383 24.735 90.0823 23.2441 89.5702 22.1296C89.0883 21.0152 88.2449 20.2772 87.0401 19.9158V19.8254C89.2088 18.9519 90.2931 16.8736 90.2931 13.5905V11.6478C90.2931 9.17792 89.7057 7.35564 88.5311 6.18095C87.3564 4.97614 85.4889 4.37374 82.9287 4.37374ZM84.5552 17.1598C84.0733 17.6718 83.3353 17.9279 82.3413 17.9279H80.5341V8.89178H82.7932C83.6666 8.89178 84.2992 9.1478 84.6907 9.65984C85.1124 10.1719 85.3233 11.0002 85.3233 12.1448V14.5845C85.3233 15.7893 85.0672 16.6477 84.5552 17.1598ZM92.388 8.89178H97.5837V36H102.554V8.89178H107.749V4.37374H92.388V8.89178Z" fill="black"/>
<path d="M0.42714 47.0187C0.42714 46.5848 0.50172 46.1543 0.65088 45.7271C0.80682 45.3 1.03056 44.9135 1.3221 44.5678C1.61364 44.2152 1.97298 43.9372 2.40012 43.7338C2.82726 43.5236 3.31203 43.4186 3.85443 43.4186C4.49175 43.4186 5.04093 43.5677 5.50197 43.866C5.96301 44.1576 6.30201 44.5339 6.51897 44.9949L5.95962 45.3407C5.80368 45.022 5.60706 44.7712 5.36976 44.5881C5.13246 44.3983 4.87821 44.2627 4.60701 44.1813C4.34259 44.0999 4.07817 44.0593 3.81375 44.0593C3.37983 44.0593 2.99676 44.1474 2.66454 44.3237C2.33232 44.4932 2.05095 44.7237 1.82043 45.0152C1.59669 45.3068 1.42719 45.6288 1.31193 45.9814C1.19667 46.334 1.13904 46.6933 1.13904 47.0594C1.13904 47.4594 1.20684 47.8425 1.34244 48.2086C1.47804 48.568 1.66788 48.89 1.91196 49.1748C2.15604 49.4595 2.4408 49.6867 2.76624 49.8562C3.09846 50.0189 3.4578 50.1002 3.84426 50.1002C4.11546 50.1002 4.39344 50.0528 4.6782 49.9579C4.96296 49.8629 5.22738 49.7172 5.47146 49.5206C5.71554 49.3239 5.91555 49.0697 6.07149 48.7578L6.66135 49.0629C6.50541 49.4222 6.2715 49.7273 5.95962 49.9782C5.65452 50.2291 5.30874 50.4189 4.92228 50.5477C4.5426 50.6765 4.1697 50.741 3.80358 50.741C3.30864 50.741 2.85438 50.6359 2.4408 50.4257C2.02722 50.2087 1.66788 49.924 1.36278 49.5714C1.06446 49.2121 0.83394 48.812 0.67122 48.3713C0.5085 47.9239 0.42714 47.473 0.42714 47.0187ZM9.05686 50.6799V46.0017H7.16524V45.3814H11.64V46.0017H9.74842V50.6799H9.05686ZM13.1611 52.897C12.9374 52.897 12.7001 52.8258 12.4492 52.6834L12.7034 52.1953C12.8458 52.2902 12.9848 52.3376 13.1204 52.3376C13.4594 52.3376 13.7747 51.9919 14.0662 51.3003L14.3306 50.6393L11.9712 45.3814H12.7034L14.6459 49.968L16.4358 45.3814H17.1274L14.6052 51.5139C14.4018 51.9953 14.1815 52.3444 13.9442 52.5614C13.7069 52.7851 13.4459 52.897 13.1611 52.897ZM17.5036 51.9105V50.0596H17.5951C17.7985 50.0596 17.9816 49.9714 18.1443 49.7951C18.307 49.6189 18.4392 49.3002 18.5409 48.8392C18.6494 48.3713 18.7138 47.7103 18.7342 46.856L18.785 45.3814H22.2327V50.0596H22.9446V51.9105H22.3242V50.6799H18.1138V51.9105H17.5036ZM18.6426 50.0596H21.5411V46.0017H19.4054L19.3749 46.917C19.341 47.8662 19.263 48.5849 19.141 49.0731C19.0189 49.5545 18.8528 49.8833 18.6426 50.0596ZM23.9827 50.6799V45.3915H24.6742V49.7443L27.8981 45.3814H28.5185V50.6799H27.8269V46.3984L24.6539 50.6799H23.9827ZM29.6347 50.6799L31.211 48.5137C30.8449 48.4663 30.5534 48.3103 30.3364 48.0459C30.1194 47.7815 30.011 47.4221 30.011 46.9679C30.011 46.6696 30.0821 46.4018 30.2245 46.1645C30.3669 45.9204 30.5669 45.7271 30.8246 45.5848C31.089 45.4424 31.3975 45.3712 31.75 45.3712H33.7739V50.6799H33.0823V48.6256H31.9026L30.4076 50.6799H29.6347ZM31.7399 48.0968H33.0823V45.9204H31.8619C31.5093 45.9204 31.228 46.0221 31.0178 46.2255C30.8076 46.4221 30.7025 46.673 30.7025 46.9781C30.7025 47.2899 30.7873 47.5544 30.9568 47.7713C31.133 47.9883 31.3941 48.0968 31.7399 48.0968ZM37.2974 51.9105V50.0596H37.3889C37.5923 50.0596 37.7754 49.9714 37.9381 49.7951C38.1008 49.6189 38.233 49.3002 38.3347 48.8392C38.4432 48.3713 38.5076 47.7103 38.5279 46.856L38.5788 45.3814H42.0264V50.0596H42.7383V51.9105H42.1179V50.6799H37.9076V51.9105H37.2974ZM38.4364 50.0596H41.3349V46.0017H39.1992L39.1686 46.917C39.1347 47.8662 39.0568 48.5849 38.9347 49.0731C38.8127 49.5545 38.6466 49.8833 38.4364 50.0596ZM43.7764 50.6799V45.3915H44.468V49.7443L47.6919 45.3814H48.3123V50.6799H47.6207V46.3984L44.4477 50.6799H43.7764ZM51.3607 50.741C50.8726 50.741 50.4522 50.6494 50.0996 50.4664C49.7539 50.2765 49.4928 50.0121 49.3166 49.6731L49.8861 49.4189C50.0149 49.6562 50.2013 49.8426 50.4454 49.9782C50.6895 50.107 50.9844 50.1714 51.3302 50.1714C51.7438 50.1714 52.0726 50.0765 52.3167 49.8867C52.5676 49.6968 52.693 49.4426 52.693 49.1239C52.693 48.8392 52.5947 48.6053 52.3981 48.4222C52.2014 48.2391 51.9302 48.1476 51.5845 48.1476H51.0455V47.6696H51.6251C51.8489 47.6696 52.0353 47.5849 52.1845 47.4154C52.3404 47.2391 52.4184 47.0221 52.4184 46.7645C52.4184 46.5001 52.3235 46.2865 52.1336 46.1238C51.9506 45.9611 51.6794 45.8797 51.32 45.8797C50.737 45.8797 50.3268 46.1136 50.0895 46.5814L49.5606 46.2967C49.7166 45.9848 49.9471 45.7407 50.2522 45.5644C50.5573 45.3881 50.92 45.3 51.3404 45.3C51.8421 45.3 52.2523 45.4254 52.571 45.6763C52.8896 45.9204 53.0489 46.2594 53.0489 46.6933C53.0489 46.9442 52.9879 47.1781 52.8659 47.395C52.7438 47.612 52.5743 47.7713 52.3574 47.873C52.6693 47.9747 52.91 48.1442 53.0795 48.3815C53.2557 48.612 53.3439 48.8866 53.3439 49.2053C53.3439 49.6867 53.1574 50.063 52.7845 50.3342C52.4116 50.6054 51.937 50.741 51.3607 50.741ZM54.0757 49.1544C54.0757 48.829 54.1706 48.5476 54.3605 48.3103C54.5503 48.0662 54.8113 47.8764 55.1436 47.7408C55.4826 47.6052 55.8724 47.5374 56.3131 47.5374C56.5708 47.5374 56.8386 47.5611 57.1165 47.6086C57.3945 47.6493 57.642 47.7069 57.859 47.7815V47.334C57.859 46.8865 57.7267 46.5306 57.4623 46.2662C57.1979 46.0017 56.8318 45.8695 56.364 45.8695C56.086 45.8695 55.808 45.9238 55.53 46.0322C55.252 46.1339 54.9639 46.2865 54.6656 46.4899L54.4012 46.0017C54.7469 45.7644 55.0859 45.5882 55.4182 45.4729C55.7504 45.3509 56.0894 45.2898 56.4352 45.2898C57.086 45.2898 57.6013 45.4763 57.981 45.8492C58.3607 46.2221 58.5505 46.7374 58.5505 47.395V49.846C58.5505 50.0291 58.6353 50.124 58.8048 50.1308V50.6799C58.6556 50.7003 58.5505 50.7071 58.4895 50.7003C58.32 50.6935 58.1912 50.6393 58.103 50.5376C58.0149 50.4359 57.9674 50.3274 57.9607 50.2121L57.9505 49.8257C57.7132 50.1308 57.4047 50.3681 57.025 50.5376C56.6453 50.7003 56.2589 50.7816 55.8656 50.7816C55.5199 50.7816 55.2114 50.7104 54.9402 50.5681C54.669 50.4189 54.4554 50.2223 54.2995 49.9782C54.1503 49.7273 54.0757 49.4528 54.0757 49.1544ZM57.625 49.5612C57.781 49.3782 57.859 49.2087 57.859 49.0527V48.2798C57.3911 48.0968 56.903 48.0052 56.3945 48.0052C55.8995 48.0052 55.4995 48.1035 55.1944 48.3002C54.8893 48.4968 54.7368 48.7646 54.7368 49.1036C54.7368 49.3951 54.8486 49.6595 55.0724 49.8968C55.3029 50.1341 55.6216 50.2528 56.0284 50.2528C56.3606 50.2528 56.6691 50.1884 56.9538 50.0596C57.2454 49.9307 57.4691 49.7646 57.625 49.5612ZM60.0345 50.6799V45.3915H60.7261V49.7443L63.95 45.3814H64.5704V50.6799H63.8788V46.3984L60.7058 50.6799H60.0345ZM62.3126 44.7101C61.8516 44.7101 61.4956 44.6017 61.2448 44.3847C60.9939 44.1677 60.8685 43.8932 60.8685 43.5609H61.377C61.377 43.7643 61.4516 43.9338 61.6007 44.0694C61.7567 44.205 61.994 44.2728 62.3126 44.2728C62.6245 44.2728 62.8516 44.2084 62.994 44.0796C63.1432 43.9508 63.2279 43.7779 63.2483 43.5609H63.7466C63.7466 43.8932 63.6212 44.1677 63.3703 44.3847C63.1194 44.6017 62.7669 44.7101 62.3126 44.7101ZM66.073 50.6799V45.3814H66.7645V47.6594H69.7952V45.3814H70.4868V50.6799H69.7952V48.2798H66.7645V50.6799H66.073ZM71.5852 49.1544C71.5852 48.829 71.6801 48.5476 71.87 48.3103C72.0598 48.0662 72.3208 47.8764 72.653 47.7408C72.992 47.6052 73.3819 47.5374 73.8226 47.5374C74.0802 47.5374 74.348 47.5611 74.626 47.6086C74.904 47.6493 75.1515 47.7069 75.3684 47.7815V47.334C75.3684 46.8865 75.2362 46.5306 74.9718 46.2662C74.7074 46.0017 74.3413 45.8695 73.8734 45.8695C73.5955 45.8695 73.3175 45.9238 73.0395 46.0322C72.7615 46.1339 72.4734 46.2865 72.1751 46.4899L71.9106 46.0017C72.2564 45.7644 72.5954 45.5882 72.9276 45.4729C73.2599 45.3509 73.5989 45.2898 73.9446 45.2898C74.5955 45.2898 75.1108 45.4763 75.4905 45.8492C75.8702 46.2221 76.06 46.7374 76.06 47.395V49.846C76.06 50.0291 76.1447 50.124 76.3142 50.1308V50.6799C76.1651 50.7003 76.06 50.7071 75.999 50.7003C75.8295 50.6935 75.7007 50.6393 75.6125 50.5376C75.5244 50.4359 75.4769 50.3274 75.4701 50.2121L75.46 49.8257C75.2227 50.1308 74.9142 50.3681 74.5345 50.5376C74.1548 50.7003 73.7684 50.7816 73.3751 50.7816C73.0293 50.7816 72.7208 50.7104 72.4496 50.5681C72.1784 50.4189 71.9649 50.2223 71.8089 49.9782C71.6598 49.7273 71.5852 49.4528 71.5852 49.1544ZM75.1345 49.5612C75.2905 49.3782 75.3684 49.2087 75.3684 49.0527V48.2798C74.9006 48.0968 74.4125 48.0052 73.904 48.0052C73.409 48.0052 73.009 48.1035 72.7039 48.3002C72.3988 48.4968 72.2462 48.7646 72.2462 49.1036C72.2462 49.3951 72.3581 49.6595 72.5819 49.8968C72.8124 50.1341 73.131 50.2528 73.5378 50.2528C73.8701 50.2528 74.1785 50.1884 74.4633 50.0596C74.7548 49.9307 74.9786 49.7646 75.1345 49.5612ZM85.1165 44.0898H82.5435V50.6799H81.8316V44.0898H79.2585V43.4592H85.1165V44.0898ZM87.2018 50.7816C86.6933 50.7816 86.239 50.6562 85.839 50.4053C85.439 50.1545 85.1237 49.8189 84.8932 49.3985C84.6627 48.9782 84.5474 48.5171 84.5474 48.0154C84.5474 47.5205 84.6593 47.0662 84.883 46.6526C85.1135 46.239 85.4288 45.9102 85.8288 45.6661C86.2289 45.4153 86.6831 45.2898 87.1916 45.2898C87.7137 45.2898 88.1713 45.4153 88.5646 45.6661C88.9578 45.917 89.2629 46.2492 89.4799 46.6628C89.7036 47.0696 89.8155 47.5171 89.8155 48.0052C89.8155 48.1137 89.8121 48.2052 89.8053 48.2798H85.2695C85.3034 48.6595 85.4119 48.9985 85.5949 49.2968C85.778 49.5884 86.0119 49.8223 86.2967 49.9985C86.5814 50.168 86.8933 50.2528 87.2323 50.2528C87.5781 50.2528 87.9035 50.1647 88.2086 49.9884C88.5137 49.8121 88.7307 49.5816 88.8595 49.2968L89.4595 49.4595C89.351 49.7172 89.1815 49.9477 88.951 50.1511C88.7273 50.3477 88.4663 50.5037 88.1679 50.6189C87.8696 50.7274 87.5476 50.7816 87.2018 50.7816ZM85.2491 47.7815H89.1646C89.1375 47.4018 89.0324 47.0662 88.8493 46.7747C88.6663 46.4763 88.4324 46.2458 88.1476 46.0831C87.8628 45.9136 87.5476 45.8288 87.2018 45.8288C86.856 45.8288 86.5407 45.9136 86.256 46.0831C85.9712 46.2458 85.7373 46.4763 85.5542 46.7747C85.378 47.0662 85.2763 47.4018 85.2491 47.7815ZM90.8723 50.6799V45.3814H91.5638V47.6493H92.3571L94.1369 45.3814H94.9301L92.9063 47.9544L95.1844 50.6799H94.3708L92.3571 48.29H91.5638V50.6799H90.8723ZM95.7191 49.1544C95.7191 48.829 95.814 48.5476 96.0038 48.3103C96.1937 48.0662 96.4547 47.8764 96.7869 47.7408C97.1259 47.6052 97.5158 47.5374 97.9565 47.5374C98.2141 47.5374 98.4819 47.5611 98.7599 47.6086C99.0379 47.6493 99.2854 47.7069 99.5023 47.7815V47.334C99.5023 46.8865 99.3701 46.5306 99.1057 46.2662C98.8413 46.0017 98.4752 45.8695 98.0073 45.8695C97.7294 45.8695 97.4514 45.9238 97.1734 46.0322C96.8954 46.1339 96.6073 46.2865 96.3089 46.4899L96.0445 46.0017C96.3903 45.7644 96.7293 45.5882 97.0615 45.4729C97.3937 45.3509 97.7327 45.2898 98.0785 45.2898C98.7294 45.2898 99.2447 45.4763 99.6244 45.8492C100.004 46.2221 100.194 46.7374 100.194 47.395V49.846C100.194 50.0291 100.279 50.124 100.448 50.1308V50.6799C100.299 50.7003 100.194 50.7071 100.133 50.7003C99.9634 50.6935 99.8345 50.6393 99.7464 50.5376C99.6583 50.4359 99.6108 50.3274 99.604 50.2121L99.5939 49.8257C99.3566 50.1308 99.0481 50.3681 98.6684 50.5376C98.2887 50.7003 97.9022 50.7816 97.509 50.7816C97.1632 50.7816 96.8547 50.7104 96.5835 50.5681C96.3123 50.4189 96.0988 50.2223 95.9428 49.9782C95.7937 49.7273 95.7191 49.4528 95.7191 49.1544ZM99.2684 49.5612C99.4244 49.3782 99.5023 49.2087 99.5023 49.0527V48.2798C99.0345 48.0968 98.5463 48.0052 98.0378 48.0052C97.5429 48.0052 97.1429 48.1035 96.8378 48.3002C96.5327 48.4968 96.3801 48.7646 96.3801 49.1036C96.3801 49.3951 96.492 49.6595 96.7157 49.8968C96.9463 50.1341 97.2649 50.2528 97.6717 50.2528C98.0039 50.2528 98.3124 50.1884 98.5972 50.0596C98.8887 49.9307 99.1125 49.7646 99.2684 49.5612ZM104.393 50.7816C103.953 50.7816 103.556 50.6664 103.203 50.4359C102.858 50.2053 102.583 49.9206 102.38 49.5816V52.8461H101.688V45.3814H102.308V46.4085C102.519 46.0763 102.797 45.8085 103.142 45.6051C103.495 45.3949 103.875 45.2898 104.281 45.2898C104.648 45.2898 104.983 45.3678 105.288 45.5237C105.593 45.6729 105.858 45.8763 106.082 46.1339C106.312 46.3916 106.488 46.6865 106.61 47.0187C106.732 47.3442 106.793 47.6832 106.793 48.0357C106.793 48.5307 106.692 48.9883 106.488 49.4087C106.292 49.8223 106.01 50.1545 105.644 50.4053C105.285 50.6562 104.868 50.7816 104.393 50.7816ZM104.2 50.1714C104.587 50.1714 104.919 50.0697 105.197 49.8663C105.481 49.6562 105.702 49.3883 105.858 49.0629C106.014 48.7375 106.092 48.3951 106.092 48.0357C106.092 47.6561 106.004 47.3035 105.827 46.9781C105.651 46.6526 105.414 46.3916 105.115 46.195C104.824 45.9983 104.492 45.9 104.119 45.9C103.888 45.9 103.644 45.9611 103.386 46.0831C103.136 46.1984 102.912 46.3577 102.715 46.5611C102.525 46.7577 102.414 46.9747 102.38 47.212V48.8392C102.536 49.2121 102.78 49.5273 103.112 49.785C103.444 50.0426 103.807 50.1714 104.2 50.1714ZM109.287 50.6799V46.0017H107.395V45.3814H111.87V46.0017H109.979V50.6799H109.287Z" fill="black"/>
</svg>
