<svg width="47" height="38" viewBox="0 0 47 38" fill="none" xmlns="http://www.w3.org/2000/svg">
<g filter="url(#filter0_d)">
<path d="M38.0566 23.6904C37.8666 22.4095 36.8474 21.4108 35.5353 21.1132C30.4355 19.9532 29.157 17.1033 28.9413 13.9422C28.0369 13.779 26.428 13.6023 23.697 13.6023C20.966 13.6023 19.357 13.779 18.4527 13.9422C18.2369 17.1033 16.9585 19.9532 11.8586 21.1132C10.5466 21.4128 9.52739 22.4095 9.33741 23.6904L8.35385 30.3006C8.00752 32.6282 9.76883 34.7273 12.2188 34.7273H35.1751C37.6232 34.7273 39.3864 32.6282 39.0401 30.3006L38.0566 23.6904ZM23.697 29.9108C20.9363 29.9108 18.698 27.7599 18.698 25.1096C18.698 22.4594 20.9363 20.3085 23.697 20.3085C26.4577 20.3085 28.6959 22.4594 28.6959 25.1096C28.6959 27.7599 26.4557 29.9108 23.697 29.9108ZM43.388 11.6818C43.3405 8.80114 35.7847 4.00192 23.697 4C11.6073 4.00192 4.05152 8.80114 4.006 11.6818C3.96048 14.5625 4.04756 18.3112 9.02275 17.6871C14.843 16.9554 14.4848 14.9831 14.4848 12.1639C14.4848 10.1973 19.2185 9.72295 23.697 9.72295C28.1754 9.72295 32.9072 10.1973 32.9092 12.1639C32.9092 14.9831 32.551 16.9554 38.3712 17.6871C43.3444 18.3112 43.4335 14.5625 43.388 11.6818Z" fill="white"/>
</g>
<defs>
<filter id="filter0_d" x="0.848485" y="0.848485" width="45.697" height="37.0303" filterUnits="userSpaceOnUse" color-interpolation-filters="sRGB">
<feFlood flood-opacity="0" result="BackgroundImageFix"/>
<feColorMatrix in="SourceAlpha" type="matrix" values="0 0 0 0 0 0 0 0 0 0 0 0 0 0 0 0 0 0 127 0" result="hardAlpha"/>
<feOffset/>
<feGaussianBlur stdDeviation="1.57576"/>
<feComposite in2="hardAlpha" operator="out"/>
<feColorMatrix type="matrix" values="0 0 0 0 0 0 0 0 0 0 0 0 0 0 0 0 0 0 0.3 0"/>
<feBlend mode="normal" in2="BackgroundImageFix" result="effect1_dropShadow"/>
<feBlend mode="normal" in="SourceGraphic" in2="effect1_dropShadow" result="shape"/>
</filter>
</defs>
</svg>
