<svg width="17" height="13" viewBox="0 0 17 13" fill="none" xmlns="http://www.w3.org/2000/svg">
<path fill-rule="evenodd" clip-rule="evenodd" d="M1.16866 5.59642C5.73206 3.76182 8.77503 2.55233 10.2976 1.96797C14.6448 0.299503 15.5481 0.00967244 16.1369 0.000102042C16.2664 -0.00200286 16.5559 0.0276103 16.7435 0.168038C16.9018 0.286613 16.9454 0.44679 16.9663 0.559212C16.9871 0.671633 17.0131 0.927733 16.9924 1.12784C16.7569 3.41185 15.7375 8.95454 15.2189 11.5127C14.9995 12.5951 14.5674 12.958 14.1492 12.9936C13.2401 13.0707 12.5498 12.4392 11.6694 11.9067C10.2916 11.0733 9.5133 10.5545 8.17597 9.74133C6.63045 8.80154 7.63235 8.28502 8.51313 7.44087C8.74364 7.21995 12.7489 3.8583 12.8264 3.55334C12.8361 3.5152 12.8451 3.37304 12.7536 3.29797C12.6621 3.2229 12.527 3.24857 12.4295 3.26899C12.2913 3.29792 10.0904 4.64029 5.82663 7.29607C5.2019 7.69192 4.63604 7.88479 4.12904 7.87468C3.57012 7.86354 2.49499 7.58307 1.69573 7.34334C0.715411 7.04929 -0.063727 6.89383 0.00411841 6.39445C0.0394565 6.13434 0.427637 5.86833 1.16866 5.59642Z" fill="white"/>
</svg>
