<svg width="11" height="14" viewBox="0 0 11 14" fill="none" xmlns="http://www.w3.org/2000/svg">
<path d="M5.51636 6.24341C6.11728 6.24341 6.70471 6.06522 7.20436 5.73136C7.70401 5.3975 8.09345 4.92298 8.32341 4.3678C8.55337 3.81261 8.61354 3.20171 8.49631 2.61233C8.37907 2.02295 8.0897 1.48158 7.66478 1.05666C7.23987 0.631741 6.69849 0.342365 6.10911 0.225131C5.51973 0.107896 4.90882 0.168063 4.35364 0.398027C3.79846 0.627991 3.32393 1.01742 2.99008 1.51708C2.65622 2.01673 2.47803 2.60416 2.47803 3.20508C2.47803 4.0109 2.79814 4.78371 3.36794 5.3535C3.93774 5.9233 4.71054 6.24341 5.51636 6.24341ZM5.51636 0.976974C5.95703 0.976974 6.38783 1.10765 6.75424 1.35247C7.12065 1.5973 7.40623 1.94528 7.57487 2.35242C7.74351 2.75955 7.78762 3.20755 7.70165 3.63976C7.61568 4.07197 7.40348 4.46898 7.09187 4.78059C6.78026 5.0922 6.38325 5.3044 5.95104 5.39038C5.51883 5.47635 5.07084 5.43222 4.66371 5.26358C4.25657 5.09494 3.90859 4.80936 3.66376 4.44295C3.41893 4.07654 3.28825 3.64576 3.28825 3.20508C3.28825 2.61415 3.523 2.04742 3.94085 1.62957C4.3587 1.21172 4.92543 0.976974 5.51636 0.976974Z" fill="black"/>
<path d="M5.51644 6.61206C4.11969 6.61206 2.78015 7.16691 1.79251 8.15456C0.804857 9.14221 0.25 10.4818 0.25 11.8785V12.7616C0.25 12.8691 0.292687 12.9721 0.36866 13.0481C0.444633 13.1241 0.547668 13.1667 0.65511 13.1667C0.762552 13.1667 0.8656 13.1241 0.941573 13.0481C1.01755 12.9721 1.06022 12.8691 1.06022 12.7616V11.8785C1.06022 10.6966 1.52972 9.56318 2.36542 8.72747C3.20112 7.89177 4.33457 7.42228 5.51644 7.42228C6.6983 7.42228 7.83176 7.89177 8.66747 8.72747C9.50317 9.56318 9.97265 10.6966 9.97265 11.8785V12.7616C9.97265 12.8691 10.0153 12.9721 10.0913 13.0481C10.1673 13.1241 10.2703 13.1667 10.3778 13.1667C10.4852 13.1667 10.5883 13.1241 10.6642 13.0481C10.7402 12.9721 10.7829 12.8691 10.7829 12.7616V11.8785C10.7829 10.4818 10.228 9.14221 9.24038 8.15456C8.25273 7.16691 6.91318 6.61206 5.51644 6.61206V6.61206Z" fill="black"/>
</svg>
