<svg width="23" height="13" viewBox="0 0 23 13" fill="none" xmlns="http://www.w3.org/2000/svg">
<path fill-rule="evenodd" clip-rule="evenodd" d="M3.37841 0H0.862719C0.143787 0 0 0.321853 0 0.677643C0 1.3115 0.852366 4.45777 3.97196 8.61777C6.05054 11.4597 8.98033 13 11.6456 13C13.2456 13 13.4435 12.6573 13.4435 12.0695V9.9216C13.4435 9.23739 13.5953 9.10055 14.1014 9.10055C14.4753 9.10055 15.1137 9.27789 16.6079 10.6474C18.3138 12.272 18.5945 13 19.5538 13H22.0707C22.7896 13 23.1496 12.6573 22.9414 11.9819C22.7148 11.3097 21.9004 10.3332 20.8191 9.17608C20.2325 8.51705 19.3537 7.80657 19.0868 7.45078C18.713 6.99427 18.8199 6.79175 19.0868 6.3856C19.0868 6.3856 22.1523 2.27596 22.4721 0.880168C22.6332 0.373305 22.4721 0 21.7106 0H19.1949C18.5554 0 18.2597 0.321853 18.0998 0.677643C18.0998 0.677643 16.8207 3.64547 15.0079 5.57331C14.4212 6.13162 14.1543 6.31006 13.8346 6.31006C13.6747 6.31006 13.4435 6.13162 13.4435 5.62476V0.880168C13.4435 0.271495 13.2583 0 12.7245 0H8.76983C8.37068 0 8.13027 0.282442 8.13027 0.550653C8.13027 1.12758 9.0367 1.26114 9.12987 2.88463V6.41078C9.12987 7.18476 8.98378 7.32488 8.66285 7.32488C7.81048 7.32488 5.73536 4.34282 4.50454 0.931621C4.26298 0.26821 4.02142 0 3.37841 0Z" fill="white"/>
</svg>
