<svg width="506" height="506" viewBox="0 0 506 506" fill="none" xmlns="http://www.w3.org/2000/svg">
<rect width="506" height="506" fill="black"/>
<g opacity="0.2">
<path d="M126.5 379.5H0V506H126.5V379.5Z" fill="#272727"/>
<path d="M63.25 379.5H0V506H63.25V379.5Z" fill="#2D2D2D"/>
<path d="M63.25 442.75V506C97.9532 506 126.5 477.453 126.5 442.75C126.5 408.047 97.9532 379.5 63.25 379.5V442.75Z" fill="#1A1A1A"/>
<path d="M253 379.5H126.5V506H253V379.5Z" fill="#454545"/>
<path d="M189.75 506C224.682 506 253 477.682 253 442.75C253 407.818 224.682 379.5 189.75 379.5C154.818 379.5 126.5 407.818 126.5 442.75C126.5 477.682 154.818 506 189.75 506Z" fill="#838383"/>
<path d="M379.5 379.5H253V506H379.5V379.5Z" fill="#1A1A1A"/>
<path d="M253 506L316.25 442.75L379.5 506H253Z" fill="#272727"/>
<path d="M316.25 379.5H253C253 414.203 281.547 442.75 316.25 442.75C350.953 442.75 379.5 414.203 379.5 379.5H316.25Z" fill="#2D2D2D"/>
<path d="M506 379.5H379.5V506H506V379.5Z" fill="#454545"/>
<path d="M379.5 379.5L442.75 442.75H379.5V379.5Z" fill="#272727"/>
<path d="M379.5 442.75V506C396.272 506 412.369 499.327 424.228 487.478C436.088 475.619 442.75 459.522 442.75 442.75H379.5Z" fill="#838383"/>
<path d="M506 506L442.75 442.75H506V506Z" fill="#272727"/>
<path d="M506 442.75V379.5C489.228 379.5 473.131 386.173 461.272 398.022C449.423 409.881 442.75 425.978 442.75 442.75H506Z" fill="#838383"/>
<path d="M379.5 253H253V379.5H379.5V253Z" fill="#838383"/>
<path d="M253 253V379.5C286.533 379.5 318.738 366.165 342.446 342.446C366.165 318.727 379.5 286.533 379.5 253H253Z" fill="#454545"/>
<path d="M253 316.25V379.5C287.703 379.5 316.25 350.953 316.25 316.25C316.25 281.547 287.703 253 253 253V316.25Z" fill="#272727"/>
<path d="M253 253H126.5V379.5H253V253Z" fill="#272727"/>
<path d="M126.5 316.25V379.5C161.203 379.5 189.75 350.953 189.75 316.25C189.75 281.547 161.203 253 126.5 253V316.25Z" fill="#1A1A1A"/>
<path d="M253 316.25V379.5C218.297 379.5 189.75 350.953 189.75 316.25C189.75 281.547 218.297 253 253 253V316.25Z" fill="#1A1A1A"/>
<path d="M379.5 0H253V126.5H379.5V0Z" fill="#272727"/>
<path d="M379.5 0V126.5C345.967 126.5 313.762 113.165 290.054 89.446C266.335 65.7378 253 33.533 253 0H379.5Z" fill="#838383"/>
<path d="M379.5 63.25V126.5C344.797 126.5 316.25 97.9532 316.25 63.25C316.25 28.5468 344.797 0 379.5 0V63.25Z" fill="#272727"/>
<path d="M126.5 253H0V379.5H126.5V253Z" fill="#5F5F5F"/>
<path d="M0 316.25V379.5C34.7032 379.5 63.25 350.953 63.25 316.25C63.25 281.547 34.7032 253 0 253V316.25Z" fill="#272727"/>
<path d="M126.5 253L63.25 316.25L126.5 379.5V253Z" fill="#838383"/>
<path d="M379.5 126.5H253V253H379.5V126.5Z" fill="#454545"/>
<path d="M253 126.5L316.25 189.75L253 253V126.5Z" fill="#838383"/>
<path d="M379.5 126.5C379.5 161.435 351.185 189.75 316.25 189.75C316.25 154.815 344.565 126.5 379.5 126.5Z" fill="#1A1A1A"/>
<path d="M379.5 253C344.565 253 316.25 224.685 316.25 189.75C351.185 189.75 379.5 218.065 379.5 253Z" fill="#1A1A1A"/>
<path d="M126.5 0H0V126.5H126.5V0Z" fill="#838383"/>
<path d="M126.5 63.25V126.5C91.7968 126.5 63.25 97.9532 63.25 63.25C63.25 28.5468 91.7968 0 126.5 0V63.25Z" fill="#2D2D2D"/>
<path d="M0 0C0 34.9351 28.3149 63.25 63.25 63.25C63.25 28.3149 34.9351 0 0 0Z" fill="#454545"/>
<path d="M0 126.5C34.9351 126.5 63.25 98.1851 63.25 63.25C28.3149 63.25 0 91.5649 0 126.5Z" fill="#454545"/>
<path d="M253 0H126.5V126.5H253V0Z" fill="#5F5F5F"/>
<path d="M189.75 0H168.667C168.667 11.5642 178.186 52.7083 189.75 52.7083C201.314 52.7083 210.833 11.5642 210.833 0H189.75Z" fill="#838383"/>
<path d="M189.75 126.5H168.667C168.667 114.936 178.186 73.7916 189.75 73.7916C201.314 73.7916 210.833 114.936 210.833 126.5H189.75Z" fill="#838383"/>
<path d="M126.5 63.25V84.3333C138.064 84.3333 179.208 74.8142 179.208 63.25C179.208 51.6858 138.064 42.1666 126.5 42.1666V63.25Z" fill="#838383"/>
<path d="M253 63.25V84.3333C241.436 84.3333 200.292 74.8142 200.292 63.25C200.292 51.6858 241.436 42.1666 253 42.1666V63.25Z" fill="#838383"/>
<path d="M506 126.5H379.5V253H506V126.5Z" fill="#838383"/>
<path d="M442.75 189.75L506 253V221.375C506 203.907 491.843 189.75 474.375 189.75H442.75Z" fill="#2D2D2D"/>
<path d="M442.75 189.75L379.5 126.5V158.125C379.5 175.593 393.657 189.75 411.125 189.75H442.75Z" fill="#2D2D2D"/>
<path d="M442.75 189.75L506 126.5H474.375C456.907 126.5 442.75 140.657 442.75 158.125V189.75Z" fill="#2D2D2D"/>
<path d="M442.75 189.75L379.5 253H411.125C428.593 253 442.75 238.843 442.75 221.375V189.75Z" fill="#2D2D2D"/>
<path d="M126.5 126.5H0V253H126.5V126.5Z" fill="#2D2D2D"/>
<path d="M63.25 126.5H0C0 161.203 28.5468 189.75 63.25 189.75C97.9532 189.75 126.5 161.203 126.5 126.5H63.25Z" fill="#1A1A1A"/>
<path d="M42.1667 126.5H0C0 149.628 19.0383 168.667 42.1667 168.667C65.2951 168.667 84.3333 149.628 84.3333 126.5H42.1667Z" fill="#272727"/>
<path d="M21.0833 126.5H0C0 138.064 9.51913 147.583 21.0833 147.583C32.6475 147.583 42.1667 138.064 42.1667 126.5H21.0833Z" fill="#838383"/>
<path d="M63.25 253H126.5C126.5 218.297 97.9532 189.75 63.25 189.75C28.5468 189.75 0 218.297 0 253H63.25Z" fill="#1A1A1A"/>
<path d="M84.3334 253H126.5C126.5 229.872 107.462 210.833 84.3334 210.833C61.205 210.833 42.1667 229.872 42.1667 253H84.3334Z" fill="#272727"/>
<path d="M105.417 253H126.5C126.5 241.436 116.981 231.917 105.417 231.917C93.8524 231.917 84.3333 241.436 84.3333 253H105.417Z" fill="#838383"/>
<path d="M506 0H379.5V126.5H506V0Z" fill="#5F5F5F"/>
<path d="M474.375 0C456.907 0 442.75 14.1575 442.75 31.625C442.75 49.0925 456.907 63.25 474.375 63.25C491.843 63.25 506 49.0925 506 31.625V0H474.375Z" fill="#1A1A1A"/>
<path d="M411.125 0H379.5V31.625C379.5 49.0925 393.657 63.25 411.125 63.25C428.593 63.25 442.75 49.0925 442.75 31.625C442.75 14.1575 428.593 0 411.125 0Z" fill="#1A1A1A"/>
<path d="M411.125 63.25C393.657 63.25 379.5 77.4075 379.5 94.875V126.5H411.125C428.593 126.5 442.75 112.343 442.75 94.875C442.75 77.4075 428.593 63.25 411.125 63.25Z" fill="#1A1A1A"/>
<path d="M474.375 63.25C456.907 63.25 442.75 77.4075 442.75 94.875C442.75 112.343 456.907 126.5 474.375 126.5H506V94.875C506 77.4075 491.843 63.25 474.375 63.25Z" fill="#1A1A1A"/>
<path d="M253 126.5H126.5V253H253V126.5Z" fill="#5F5F5F"/>
<path d="M253 126.5L189.75 189.75C189.75 155.057 218.307 126.5 253 126.5Z" fill="#1A1A1A"/>
<path d="M189.75 189.75L126.5 126.5C161.203 126.5 189.75 155.057 189.75 189.75Z" fill="#1A1A1A"/>
<path d="M189.75 189.75C189.75 224.443 161.203 253 126.5 253L189.75 189.75Z" fill="#1A1A1A"/>
<path d="M253 253C218.307 253 189.75 224.443 189.75 189.75L253 253Z" fill="#1A1A1A"/>
<path d="M126.5 126.5L189.75 189.75L126.5 253V126.5Z" fill="#454545"/>
<path d="M189.75 189.75L253 126.5V253L189.75 189.75Z" fill="#454545"/>
<path d="M506 253H379.5V379.5H506V253Z" fill="#1A1A1A"/>
<path d="M442.75 253C407.815 253 379.5 281.315 379.5 316.25C379.5 351.185 407.815 379.5 442.75 379.5C477.685 379.5 506 351.185 506 316.25V253H442.75Z" fill="#5F5F5F"/>
<path d="M474.375 253C456.907 253 442.75 267.157 442.75 284.625C442.75 302.093 456.907 316.25 474.375 316.25C491.843 316.25 506 302.093 506 284.625V253H474.375Z" fill="#1A1A1A"/>
</g>
</svg>
