<svg width="104" height="32" viewBox="0 0 104 32" fill="none" xmlns="http://www.w3.org/2000/svg">
<rect width="104" height="32" fill="#7F4CEA"/>
<path d="M30.1743 5.39068H40.1845V8.33487H36.7987V26H33.5601V8.33487H30.1743V5.39068ZM44.9056 14.076H49.3513V17.0202H44.9056V23.0558H50.4996V26H41.667V5.39068H50.4996V8.33487H44.9056V14.076ZM56.7461 17.7857L55.745 19.67V26H52.5064V5.39068H55.745V14.3705L60.0436 5.39068H63.2233L58.7187 14.5765L63.2233 26H59.8963L56.7461 17.7857ZM75.1785 26H71.9105L71.3511 22.2609H67.3764L66.817 26H63.8434L67.1409 5.39068H71.881L75.1785 26ZM67.7886 19.4639H70.9095L69.349 9.04147L67.7886 19.4639ZM83.4584 26C83.4191 25.8626 83.3799 25.735 83.3406 25.6173C83.3013 25.4995 83.2621 25.3523 83.2228 25.1756C83.2032 24.999 83.1836 24.7733 83.1639 24.4985C83.1639 24.2237 83.1639 23.8802 83.1639 23.468V20.2294C83.1639 19.2676 82.9971 18.5905 82.6634 18.1979C82.3298 17.8053 81.79 17.6091 81.0441 17.6091H79.9253V26H76.6867V5.39068H81.5741C83.2621 5.39068 84.479 5.78324 85.2249 6.56836C85.9904 7.35347 86.3731 8.54096 86.3731 10.1308V11.7501C86.3731 13.8699 85.6665 15.2635 84.2533 15.9309C85.0777 16.2645 85.6371 16.8141 85.9315 17.5796C86.2455 18.3255 86.4026 19.2382 86.4026 20.3177V23.4974C86.4026 24.0078 86.4222 24.4592 86.4614 24.8518C86.5007 25.2247 86.5988 25.6074 86.7559 26H83.4584ZM79.9253 8.33487V14.6649H81.1913C81.7998 14.6649 82.2709 14.5079 82.6046 14.1938C82.9579 13.8798 83.1345 13.3105 83.1345 12.4862V10.4547C83.1345 9.70882 82.9971 9.16905 82.7223 8.83538C82.4672 8.50171 82.055 8.33487 81.4858 8.33487H79.9253ZM87.6492 5.39068H97.6595V8.33487H94.2737V26H91.035V8.33487H87.6492V5.39068Z" fill="white"/>
<circle cx="18.6138" cy="23.1211" r="2.51322" fill="#FF9900"/>
<circle cx="9.39897" cy="23.1211" r="2.51322" fill="#FF9900"/>
<path d="M20.9072 19.826H8.9517C7.58001 19.826 6.46804 18.714 6.46804 17.3423V9.26681C6.46804 8.96384 6.41103 8.66358 6.29999 8.3817L5.41464 6.13426C5.21554 5.62888 5.58808 5.08173 6.13126 5.08173C6.34597 5.08173 6.55093 5.17134 6.69672 5.32897L9.17738 8.01105C9.64747 8.51932 10.3084 8.8083 11.0007 8.8083H21.4167C23.2909 8.8083 24.4898 10.8048 23.6091 12.4591L22.6882 14.1888C22.2569 14.999 21.4138 15.5053 20.4959 15.5053H11.3232C10.7266 15.5053 10.243 15.9889 10.243 16.5855C10.243 17.182 10.7266 17.6657 11.3232 17.6657H20.9072C21.5037 17.6657 21.9874 18.1493 21.9874 18.7458C21.9874 19.3424 21.5037 19.826 20.9072 19.826Z" fill="white"/>
</svg>
