<svg width="89" height="37" viewBox="0 0 89 37" fill="none" xmlns="http://www.w3.org/2000/svg">
<rect x="0.225316" y="0.225316" width="88.5494" height="35.6" stroke="black" stroke-width="0.450633"/>
<path d="M5.96462 6.28825V5.95028H5.62665V6.28825H5.96462ZM17.242 6.28825H17.58V5.95028H17.242V6.28825ZM17.242 9.60512V9.9431H17.58V9.60512H17.242ZM13.4276 9.60512V9.26715H13.0896V9.60512H13.4276ZM13.4276 29.5063V29.8443H13.7656V29.5063H13.4276ZM9.77902 29.5063H9.44105V29.8443H9.77902V29.5063ZM9.77902 9.60512H10.117V9.26715H9.77902V9.60512ZM5.96462 9.60512H5.62665V9.9431H5.96462V9.60512ZM5.96462 6.62623H17.242V5.95028H5.96462V6.62623ZM16.904 6.28825V9.60512H17.58V6.28825H16.904ZM17.242 9.26715H13.4276V9.9431H17.242V9.26715ZM13.0896 9.60512V29.5063H13.7656V9.60512H13.0896ZM13.4276 29.1684H9.77902V29.8443H13.4276V29.1684ZM10.117 29.5063V9.60512H9.44105V29.5063H10.117ZM9.77902 9.26715H5.96462V9.9431H9.77902V9.26715ZM6.3026 9.60512V6.28825H5.62665V9.60512H6.3026ZM22.5606 16.073H22.2227V16.411H22.5606V16.073ZM27.5691 16.073H27.9071V15.735H27.5691V16.073ZM27.5691 19.3899V19.7279H27.9071V19.3899H27.5691ZM22.5606 19.3899V19.0519H22.2227V19.3899H22.5606ZM22.5606 26.1895H22.2227V26.5275H22.5606V26.1895ZM28.8627 26.1895H29.2007V25.8515H28.8627V26.1895ZM28.8627 29.5063V29.8443H29.2007V29.5063H28.8627ZM18.9121 29.5063H18.5741V29.8443H18.9121V29.5063ZM18.9121 6.28825V5.95028H18.5741V6.28825H18.9121ZM28.8627 6.28825H29.2007V5.95028H28.8627V6.28825ZM28.8627 9.60512V9.9431H29.2007V9.60512H28.8627ZM22.5606 9.60512V9.26715H22.2227V9.60512H22.5606ZM22.5606 16.411H27.5691V15.735H22.5606V16.411ZM27.2311 16.073V19.3899H27.9071V16.073H27.2311ZM27.5691 19.0519H22.5606V19.7279H27.5691V19.0519ZM22.2227 19.3899V26.1895H22.8986V19.3899H22.2227ZM22.5606 26.5275H28.8627V25.8515H22.5606V26.5275ZM28.5247 26.1895V29.5063H29.2007V26.1895H28.5247ZM28.8627 29.1684H18.9121V29.8443H28.8627V29.1684ZM19.2501 29.5063V6.28825H18.5741V29.5063H19.2501ZM18.9121 6.62623H28.8627V5.95028H18.9121V6.62623ZM28.5247 6.28825V9.60512H29.2007V6.28825H28.5247ZM28.8627 9.26715H22.5606V9.9431H28.8627V9.26715ZM22.2227 9.60512V16.073H22.8986V9.60512H22.2227ZM35.8999 20.2523L36.2155 20.1313L35.9497 19.4382L35.6014 20.0937L35.8999 20.2523ZM34.7722 22.3751L34.4737 22.2165L34.4342 22.2909V22.3751H34.7722ZM34.7722 29.5063V29.8443H35.1101V29.5063H34.7722ZM31.1236 29.5063H30.7856V29.8443H31.1236V29.5063ZM31.1236 6.28825V5.95028H30.7856V6.28825H31.1236ZM34.7722 6.28825H35.1101V5.95028H34.7722V6.28825ZM34.7722 16.4047H34.4342L35.077 16.5506L34.7722 16.4047ZM39.6148 6.28825V5.95028H39.4019L39.3099 6.14233L39.6148 6.28825ZM43.197 6.28825L43.5005 6.43706L43.7392 5.95028H43.197V6.28825ZM38.1222 16.6369L37.8187 16.4881L37.753 16.6221L37.8078 16.7609L38.1222 16.6369ZM43.197 29.5063V29.8443H43.6936L43.5114 29.3824L43.197 29.5063ZM39.4489 29.5063L39.1334 29.6274L39.2166 29.8443H39.4489V29.5063ZM35.6014 20.0937L34.4737 22.2165L35.0706 22.5336L36.1984 20.4108L35.6014 20.0937ZM34.4342 22.3751V29.5063H35.1101V22.3751H34.4342ZM34.7722 29.1684H31.1236V29.8443H34.7722V29.1684ZM31.4616 29.5063V6.28825H30.7856V29.5063H31.4616ZM31.1236 6.62623H34.7722V5.95028H31.1236V6.62623ZM34.4342 6.28825V16.4047H35.1101V6.28825H34.4342ZM35.077 16.5506L39.9196 6.43418L39.3099 6.14233L34.4673 16.2588L35.077 16.5506ZM39.6148 6.62623H43.197V5.95028H39.6148V6.62623ZM42.8936 6.13944L37.8187 16.4881L38.4257 16.7857L43.5005 6.43706L42.8936 6.13944ZM37.8078 16.7609L42.8826 29.6303L43.5114 29.3824L38.4366 16.5129L37.8078 16.7609ZM43.197 29.1684H39.4489V29.8443H43.197V29.1684ZM39.7645 29.3853L36.2155 20.1313L35.5843 20.3733L39.1334 29.6274L39.7645 29.3853ZM56.6656 29.5063V29.8443H57.0619L56.9993 29.453L56.6656 29.5063ZM52.9839 29.5063L52.6496 29.5564L52.6927 29.8443H52.9839V29.5063ZM52.3536 25.2939L52.6879 25.2439L52.6448 24.9559H52.3536V25.2939ZM47.8759 25.2939V24.9559H47.5847L47.5416 25.2439L47.8759 25.2939ZM47.2457 29.5063V29.8443H47.5368L47.5799 29.5564L47.2457 29.5063ZM43.8956 29.5063L43.5619 29.453L43.4993 29.8443H43.8956V29.5063ZM47.6105 6.28825V5.95028H47.3223L47.2768 6.23486L47.6105 6.28825ZM52.9507 6.28825L53.2844 6.23486L53.2389 5.95028H52.9507V6.28825ZM48.3402 22.1429L48.006 22.0929L47.9479 22.4809H48.3402V22.1429ZM51.8561 22.1429V22.4809H52.2485L52.1904 22.0929L51.8561 22.1429ZM50.0982 10.4012L50.4324 10.3511H49.7639L50.0982 10.4012ZM56.6656 29.1684H52.9839V29.8443H56.6656V29.1684ZM53.3181 29.4563L52.6879 25.2439L52.0194 25.3439L52.6496 29.5564L53.3181 29.4563ZM52.3536 24.9559H47.8759V25.6319H52.3536V24.9559ZM47.5416 25.2439L46.9114 29.4563L47.5799 29.5564L48.2101 25.3439L47.5416 25.2439ZM47.2457 29.1684H43.8956V29.8443H47.2457V29.1684ZM44.2294 29.5597L47.9443 6.34165L47.2768 6.23486L43.5619 29.453L44.2294 29.5597ZM47.6105 6.62623H52.9507V5.95028H47.6105V6.62623ZM52.617 6.34165L56.3318 29.5597L56.9993 29.453L53.2844 6.23486L52.617 6.34165ZM48.3402 22.4809H51.8561V21.8049H48.3402V22.4809ZM52.1904 22.0929L50.4324 10.3511L49.7639 10.4512L51.5219 22.1929L52.1904 22.0929ZM49.7639 10.3511L48.006 22.0929L48.6745 22.1929L50.4324 10.4512L49.7639 10.3511ZM65.9935 29.5063L65.6685 29.5992L65.7386 29.8443H65.9935V29.5063ZM65.8608 29.0752L65.5402 29.182L65.5402 29.182L65.8608 29.0752ZM65.7282 28.5776L65.3922 28.6149L65.3943 28.6331L65.3982 28.6509L65.7282 28.5776ZM65.6618 27.8147H65.3238V27.8268L65.3247 27.8388L65.6618 27.8147ZM65.0979 20.7166L65.3555 20.4978L65.0979 20.7166ZM62.0133 20.0533V19.7153H61.6753V20.0533H62.0133ZM62.0133 29.5063V29.8443H62.3512V29.5063H62.0133ZM58.3647 29.5063H58.0267V29.8443H58.3647V29.5063ZM58.3647 6.28825V5.95028H58.0267V6.28825H58.3647ZM67.9836 7.615L67.7386 7.8478L67.7416 7.85094L67.9836 7.615ZM66.8891 18.1627L66.7447 17.857L66.0471 18.1865L66.7622 18.4759L66.8891 18.1627ZM68.7797 20.0201L68.4641 20.1415L68.4682 20.1513L68.7797 20.0201ZM69.3767 28.2128L69.0404 28.2464L69.0406 28.2481L69.3767 28.2128ZM69.7084 29.5063V29.8443H70.2076L70.0222 29.3808L69.7084 29.5063ZM62.0133 9.60512V9.26715H61.6753V9.60512H62.0133ZM62.0133 16.7364H61.6753V17.0744H62.0133V16.7364ZM65.0316 16.2057L64.807 15.953L64.8 15.9596L65.0316 16.2057ZM65.1643 10.169L64.8956 10.3744L64.9034 10.3838L65.1643 10.169ZM66.3185 29.4135C66.2731 29.2547 66.2274 29.1062 66.1815 28.9683L65.5402 29.182C65.5827 29.3094 65.6255 29.4484 65.6685 29.5992L66.3185 29.4135ZM66.1815 28.9683C66.1421 28.8504 66.1008 28.6966 66.0581 28.5043L65.3982 28.6509C65.4439 28.8567 65.4911 29.0346 65.5402 29.182L66.1815 28.9683ZM66.0641 28.5403C66.0426 28.3474 66.0209 28.0979 65.9989 27.7907L65.3247 27.8388C65.347 28.1507 65.3695 28.4098 65.3922 28.6149L66.0641 28.5403ZM65.9998 27.8147C65.9998 27.8141 65.9998 27.8135 65.9998 27.8129C65.9998 27.8123 65.9998 27.8117 65.9998 27.8111C65.9998 27.8105 65.9998 27.8099 65.9998 27.8093C65.9998 27.8087 65.9998 27.8081 65.9998 27.8075C65.9998 27.8069 65.9998 27.8063 65.9998 27.8057C65.9998 27.805 65.9998 27.8044 65.9998 27.8038C65.9998 27.8032 65.9998 27.8026 65.9998 27.802C65.9998 27.8014 65.9998 27.8008 65.9998 27.8002C65.9998 27.7996 65.9998 27.799 65.9998 27.7983C65.9998 27.7977 65.9998 27.7971 65.9998 27.7965C65.9998 27.7959 65.9998 27.7953 65.9998 27.7947C65.9998 27.7941 65.9998 27.7935 65.9998 27.7928C65.9998 27.7922 65.9998 27.7916 65.9998 27.791C65.9998 27.7904 65.9998 27.7898 65.9998 27.7892C65.9998 27.7886 65.9998 27.7879 65.9998 27.7873C65.9998 27.7867 65.9998 27.7861 65.9998 27.7855C65.9998 27.7849 65.9998 27.7843 65.9998 27.7837C65.9998 27.783 65.9998 27.7824 65.9998 27.7818C65.9998 27.7812 65.9998 27.7806 65.9998 27.78C65.9998 27.7793 65.9998 27.7787 65.9998 27.7781C65.9998 27.7775 65.9998 27.7769 65.9998 27.7763C65.9998 27.7756 65.9998 27.775 65.9998 27.7744C65.9998 27.7738 65.9998 27.7732 65.9998 27.7726C65.9998 27.7719 65.9998 27.7713 65.9998 27.7707C65.9998 27.7701 65.9998 27.7695 65.9998 27.7688C65.9998 27.7682 65.9998 27.7676 65.9998 27.767C65.9998 27.7664 65.9998 27.7657 65.9998 27.7651C65.9998 27.7645 65.9998 27.7639 65.9998 27.7633C65.9998 27.7626 65.9998 27.762 65.9998 27.7614C65.9998 27.7608 65.9998 27.7602 65.9998 27.7595C65.9998 27.7589 65.9998 27.7583 65.9998 27.7577C65.9998 27.757 65.9998 27.7564 65.9998 27.7558C65.9998 27.7552 65.9998 27.7545 65.9998 27.7539C65.9998 27.7533 65.9998 27.7527 65.9998 27.752C65.9998 27.7514 65.9998 27.7508 65.9998 27.7502C65.9998 27.7495 65.9998 27.7489 65.9998 27.7483C65.9998 27.7477 65.9998 27.747 65.9998 27.7464C65.9998 27.7458 65.9998 27.7452 65.9998 27.7445C65.9998 27.7439 65.9998 27.7433 65.9998 27.7427C65.9998 27.742 65.9998 27.7414 65.9998 27.7408C65.9998 27.7401 65.9998 27.7395 65.9998 27.7389C65.9998 27.7383 65.9998 27.7376 65.9998 27.737C65.9998 27.7364 65.9998 27.7357 65.9998 27.7351C65.9998 27.7345 65.9998 27.7338 65.9998 27.7332C65.9998 27.7326 65.9998 27.732 65.9998 27.7313C65.9998 27.7307 65.9998 27.7301 65.9998 27.7294C65.9998 27.7288 65.9998 27.7282 65.9998 27.7275C65.9998 27.7269 65.9998 27.7263 65.9998 27.7256C65.9998 27.725 65.9998 27.7244 65.9998 27.7237C65.9998 27.7231 65.9998 27.7225 65.9998 27.7218C65.9998 27.7212 65.9998 27.7206 65.9998 27.7199C65.9998 27.7193 65.9998 27.7187 65.9998 27.718C65.9998 27.7174 65.9998 27.7168 65.9998 27.7161C65.9998 27.7155 65.9998 27.7148 65.9998 27.7142C65.9998 27.7136 65.9998 27.7129 65.9998 27.7123C65.9998 27.7117 65.9998 27.711 65.9998 27.7104C65.9998 27.7097 65.9998 27.7091 65.9998 27.7085C65.9998 27.7078 65.9998 27.7072 65.9998 27.7066C65.9998 27.7059 65.9998 27.7053 65.9998 27.7046C65.9998 27.704 65.9998 27.7034 65.9998 27.7027C65.9998 27.7021 65.9998 27.7014 65.9998 27.7008C65.9998 27.7002 65.9998 27.6995 65.9998 27.6989C65.9998 27.6982 65.9998 27.6976 65.9998 27.697C65.9998 27.6963 65.9998 27.6957 65.9998 27.695C65.9998 27.6944 65.9998 27.6937 65.9998 27.6931C65.9998 27.6925 65.9998 27.6918 65.9998 27.6912C65.9998 27.6905 65.9998 27.6899 65.9998 27.6892C65.9998 27.6886 65.9998 27.6879 65.9998 27.6873C65.9998 27.6867 65.9998 27.686 65.9998 27.6854C65.9998 27.6847 65.9998 27.6841 65.9998 27.6834C65.9998 27.6828 65.9998 27.6821 65.9998 27.6815C65.9998 27.6808 65.9998 27.6802 65.9998 27.6796C65.9998 27.6789 65.9998 27.6783 65.9998 27.6776C65.9998 27.677 65.9998 27.6763 65.9998 27.6757C65.9998 27.675 65.9998 27.6744 65.9998 27.6737C65.9998 27.6731 65.9998 27.6724 65.9998 27.6718C65.9998 27.6711 65.9998 27.6705 65.9998 27.6698C65.9998 27.6692 65.9998 27.6685 65.9998 27.6679C65.9998 27.6672 65.9998 27.6666 65.9998 27.6659C65.9998 27.6653 65.9998 27.6646 65.9998 27.664C65.9998 27.6633 65.9998 27.6627 65.9998 27.662C65.9998 27.6614 65.9998 27.6607 65.9998 27.66C65.9998 27.6594 65.9998 27.6587 65.9998 27.6581C65.9998 27.6574 65.9998 27.6568 65.9998 27.6561C65.9998 27.6555 65.9998 27.6548 65.9998 27.6542C65.9998 27.6535 65.9998 27.6529 65.9998 27.6522C65.9998 27.6515 65.9998 27.6509 65.9998 27.6502C65.9998 27.6496 65.9998 27.6489 65.9998 27.6483C65.9998 27.6476 65.9998 27.6469 65.9998 27.6463C65.9998 27.6456 65.9998 27.645 65.9998 27.6443C65.9998 27.6437 65.9998 27.643 65.9998 27.6423C65.9998 27.6417 65.9998 27.641 65.9998 27.6404C65.9998 27.6397 65.9998 27.639 65.9998 27.6384C65.9998 27.6377 65.9998 27.6371 65.9998 27.6364C65.9998 27.6357 65.9998 27.6351 65.9998 27.6344C65.9998 27.6338 65.9998 27.6331 65.9998 27.6324C65.9998 27.6318 65.9998 27.6311 65.9998 27.6305C65.9998 27.6298 65.9998 27.6291 65.9998 27.6285C65.9998 27.6278 65.9998 27.6271 65.9998 27.6265C65.9998 27.6258 65.9998 27.6252 65.9998 27.6245C65.9998 27.6238 65.9998 27.6232 65.9998 27.6225C65.9998 27.6218 65.9998 27.6212 65.9998 27.6205C65.9998 27.6198 65.9998 27.6192 65.9998 27.6185C65.9998 27.6178 65.9998 27.6172 65.9998 27.6165C65.9998 27.6159 65.9998 27.6152 65.9998 27.6145C65.9998 27.6139 65.9998 27.6132 65.9998 27.6125C65.9998 27.6118 65.9998 27.6112 65.9998 27.6105C65.9998 27.6098 65.9998 27.6092 65.9998 27.6085C65.9998 27.6078 65.9998 27.6072 65.9998 27.6065C65.9998 27.6058 65.9998 27.6052 65.9998 27.6045C65.9998 27.6038 65.9998 27.6032 65.9998 27.6025C65.9998 27.6018 65.9998 27.6011 65.9998 27.6005C65.9998 27.5998 65.9998 27.5991 65.9998 27.5985C65.9998 27.5978 65.9998 27.5971 65.9998 27.5964C65.9998 27.5958 65.9998 27.5951 65.9998 27.5944C65.9998 27.5938 65.9998 27.5931 65.9998 27.5924C65.9998 27.5917 65.9998 27.5911 65.9998 27.5904C65.9998 27.5897 65.9998 27.589 65.9998 27.5884C65.9998 27.5877 65.9998 27.587 65.9998 27.5863C65.9998 27.5857 65.9998 27.585 65.9998 27.5843C65.9998 27.5836 65.9998 27.583 65.9998 27.5823C65.9998 27.5816 65.9998 27.5809 65.9998 27.5803C65.9998 27.5796 65.9998 27.5789 65.9998 27.5782C65.9998 27.5776 65.9998 27.5769 65.9998 27.5762C65.9998 27.5755 65.9998 27.5748 65.9998 27.5742C65.9998 27.5735 65.9998 27.5728 65.9998 27.5721C65.9998 27.5715 65.9998 27.5708 65.9998 27.5701C65.9998 27.5694 65.9998 27.5687 65.9998 27.5681C65.9998 27.5674 65.9998 27.5667 65.9998 27.566C65.9998 27.5653 65.9998 27.5646 65.9998 27.564C65.9998 27.5633 65.9998 27.5626 65.9998 27.5619C65.9998 27.5612 65.9998 27.5606 65.9998 27.5599C65.9998 27.5592 65.9998 27.5585 65.9998 27.5578C65.9998 27.5571 65.9998 27.5565 65.9998 27.5558C65.9998 27.5551 65.9998 27.5544 65.9998 27.5537C65.9998 27.553 65.9998 27.5524 65.9998 27.5517C65.9998 27.551 65.9998 27.5503 65.9998 27.5496C65.9998 27.5489 65.9998 27.5482 65.9998 27.5476C65.9998 27.5469 65.9998 27.5462 65.9998 27.5455C65.9998 27.5448 65.9998 27.5441 65.9998 27.5434C65.9998 27.5427 65.9998 27.5421 65.9998 27.5414C65.9998 27.5407 65.9998 27.54 65.9998 27.5393C65.9998 27.5386 65.9998 27.5379 65.9998 27.5372C65.9998 27.5366 65.9998 27.5359 65.9998 27.5352C65.9998 27.5345 65.9998 27.5338 65.9998 27.5331C65.9998 27.5324 65.9998 27.5317 65.9998 27.531C65.9998 27.5303 65.9998 27.5297 65.9998 27.529C65.9998 27.5283 65.9998 27.5276 65.9998 27.5269C65.9998 27.5262 65.9998 27.5255 65.9998 27.5248C65.9998 27.5241 65.9998 27.5234 65.9998 27.5227C65.9998 27.522 65.9998 27.5213 65.9998 27.5206C65.9998 27.52 65.9998 27.5193 65.9998 27.5186C65.9998 27.5179 65.9998 27.5172 65.9998 27.5165C65.9998 27.5158 65.9998 27.5151 65.9998 27.5144C65.9998 27.5137 65.9998 27.513 65.9998 27.5123C65.9998 27.5116 65.9998 27.5109 65.9998 27.5102C65.9998 27.5095 65.9998 27.5088 65.9998 27.5081C65.9998 27.5074 65.9998 27.5067 65.9998 27.506C65.9998 27.5053 65.9998 27.5046 65.9998 27.5039C65.9998 27.5032 65.9998 27.5025 65.9998 27.5018C65.9998 27.5011 65.9998 27.5004 65.9998 27.4997C65.9998 27.499 65.9998 27.4983 65.9998 27.4976C65.9998 27.4969 65.9998 27.4962 65.9998 27.4955C65.9998 27.4948 65.9998 27.4941 65.9998 27.4934C65.9998 27.4927 65.9998 27.492 65.9998 27.4913C65.9998 27.4906 65.9998 27.4899 65.9998 27.4892C65.9998 27.4885 65.9998 27.4878 65.9998 27.4871C65.9998 27.4864 65.9998 27.4857 65.9998 27.485C65.9998 27.4843 65.9998 27.4836 65.9998 27.4829C65.9998 27.4822 65.9998 27.4815 65.9998 27.4808C65.9998 27.4801 65.9998 27.4794 65.9998 27.4787C65.9998 27.478 65.9998 27.4773 65.9998 27.4765C65.9998 27.4758 65.9998 27.4751 65.9998 27.4744C65.9998 27.4737 65.9998 27.473 65.9998 27.4723C65.9998 27.4716 65.9998 27.4709 65.9998 27.4702C65.9998 27.4695 65.9998 27.4688 65.9998 27.4681C65.9998 27.4674 65.9998 27.4666 65.9998 27.4659C65.9998 27.4652 65.9998 27.4645 65.9998 27.4638C65.9998 27.4631 65.9998 27.4624 65.9998 27.4617C65.9998 27.461 65.9998 27.4603 65.9998 27.4595C65.9998 27.4588 65.9998 27.4581 65.9998 27.4574C65.9998 27.4567 65.9998 27.456 65.9998 27.4553C65.9998 27.4546 65.9998 27.4538 65.9998 27.4531C65.9998 27.4524 65.9998 27.4517 65.9998 27.451C65.9998 27.4503 65.9998 27.4496 65.9998 27.4489C65.9998 27.4481 65.9998 27.4474 65.9998 27.4467C65.9998 27.446 65.9998 27.4453 65.9998 27.4446C65.9998 27.4439 65.9998 27.4431 65.9998 27.4424C65.9998 27.4417 65.9998 27.441 65.9998 27.4403C65.9998 27.4396 65.9998 27.4388 65.9998 27.4381C65.9998 27.4374 65.9998 27.4367 65.9998 27.436C65.9998 27.4353 65.9998 27.4345 65.9998 27.4338C65.9998 27.4331 65.9998 27.4324 65.9998 27.4317C65.9998 27.4309 65.9998 27.4302 65.9998 27.4295C65.9998 27.4288 65.9998 27.4281 65.9998 27.4274C65.9998 27.4266 65.9998 27.4259 65.9998 27.4252C65.9998 27.4245 65.9998 27.4238 65.9998 27.423C65.9998 27.4223 65.9998 27.4216 65.9998 27.4209C65.9998 27.4201 65.9998 27.4194 65.9998 27.4187C65.9998 27.418 65.9998 27.4173 65.9998 27.4165C65.9998 27.4158 65.9998 27.4151 65.9998 27.4144C65.9998 27.4136 65.9998 27.4129 65.9998 27.4122C65.9998 27.4115 65.9998 27.4107 65.9998 27.41C65.9998 27.4093 65.9998 27.4086 65.9998 27.4078C65.9998 27.4071 65.9998 27.4064 65.9998 27.4057C65.9998 27.4049 65.9998 27.4042 65.9998 27.4035C65.9998 27.4028 65.9998 27.402 65.9998 27.4013C65.9998 27.4006 65.9998 27.3999 65.9998 27.3991C65.9998 27.3984 65.9998 27.3977 65.9998 27.3969C65.9998 27.3962 65.9998 27.3955 65.9998 27.3948C65.9998 27.394 65.9998 27.3933 65.9998 27.3926C65.9998 27.3918 65.9998 27.3911 65.9998 27.3904C65.9998 27.3897 65.9998 27.3889 65.9998 27.3882C65.9998 27.3875 65.9998 27.3867 65.9998 27.386C65.9998 27.3853 65.9998 27.3845 65.9998 27.3838C65.9998 27.3831 65.9998 27.3823 65.9998 27.3816C65.9998 27.3809 65.9998 27.3802 65.9998 27.3794C65.9998 27.3787 65.9998 27.378 65.9998 27.3772C65.9998 27.3765 65.9998 27.3758 65.9998 27.375C65.9998 27.3743 65.9998 27.3735 65.9998 27.3728C65.9998 27.3721 65.9998 27.3713 65.9998 27.3706C65.9998 27.3699 65.9998 27.3691 65.9998 27.3684C65.9998 27.3677 65.9998 27.3669 65.9998 27.3662C65.9998 27.3655 65.9998 27.3647 65.9998 27.364C65.9998 27.3632 65.9998 27.3625 65.9998 27.3618C65.9998 27.361 65.9998 27.3603 65.9998 27.3596C65.9998 27.3588 65.9998 27.3581 65.9998 27.3573C65.9998 27.3566 65.9998 27.3559 65.9998 27.3551C65.9998 27.3544 65.9998 27.3537 65.9998 27.3529C65.9998 27.3522 65.9998 27.3514 65.9998 27.3507C65.9998 27.3499 65.9998 27.3492 65.9998 27.3485C65.9998 27.3477 65.9998 27.347 65.9998 27.3462C65.9998 27.3455 65.9998 27.3448 65.9998 27.344C65.9998 27.3433 65.9998 27.3425 65.9998 27.3418C65.9998 27.341 65.9998 27.3403 65.9998 27.3396C65.9998 27.3388 65.9998 27.3381 65.9998 27.3373C65.9998 27.3366 65.9998 27.3358 65.9998 27.3351C65.9998 27.3344 65.9998 27.3336 65.9998 27.3329C65.9998 27.3321 65.9998 27.3314 65.9998 27.3306C65.9998 27.3299 65.9998 27.3291 65.9998 27.3284C65.9998 27.3276 65.9998 27.3269 65.9998 27.3261C65.9998 27.3254 65.9998 27.3247 65.9998 27.3239C65.9998 27.3232 65.9998 27.3224 65.9998 27.3217C65.9998 27.3209 65.9998 27.3202 65.9998 27.3194C65.9998 27.3187 65.9998 27.3179 65.9998 27.3172C65.9998 27.3164 65.9998 27.3157 65.9998 27.3149C65.9998 27.3142 65.9998 27.3134 65.9998 27.3127C65.9998 27.3119 65.9998 27.3112 65.9998 27.3104C65.9998 27.3097 65.9998 27.3089 65.9998 27.3082C65.9998 27.3074 65.9998 27.3067 65.9998 27.3059C65.9998 27.3052 65.9998 27.3044 65.9998 27.3037C65.9998 27.3029 65.9998 27.3021 65.9998 27.3014C65.9998 27.3006 65.9998 27.2999 65.9998 27.2991C65.9998 27.2984 65.9998 27.2976 65.9998 27.2969C65.9998 27.2961 65.9998 27.2954 65.9998 27.2946C65.9998 27.2938 65.9998 27.2931 65.9998 27.2923C65.9998 27.2916 65.9998 27.2908 65.9998 27.2901C65.9998 27.2893 65.9998 27.2886 65.9998 27.2878C65.9998 27.287 65.9998 27.2863 65.9998 27.2855C65.9998 27.2848 65.9998 27.284 65.9998 27.2833C65.9998 27.2825 65.9998 27.2817 65.9998 27.281C65.9998 27.2802 65.9998 27.2795 65.9998 27.2787C65.9998 27.2779 65.9998 27.2772 65.9998 27.2764C65.9998 27.2757 65.9998 27.2749 65.9998 27.2741C65.9998 27.2734 65.9998 27.2726 65.9998 27.2719C65.9998 27.2711 65.9998 27.2703 65.9998 27.2696C65.9998 27.2688 65.9998 27.2681 65.9998 27.2673C65.9998 27.2665 65.9998 27.2658 65.9998 27.265C65.9998 27.2642 65.9998 27.2635 65.9998 27.2627C65.9998 27.2619 65.9998 27.2612 65.9998 27.2604C65.9998 27.2597 65.9998 27.2589 65.9998 27.2581C65.9998 27.2574 65.9998 27.2566 65.9998 27.2558C65.9998 27.2551 65.9998 27.2543 65.9998 27.2535C65.9998 27.2528 65.9998 27.252 65.9998 27.2512C65.9998 27.2505 65.9998 27.2497 65.9998 27.2489C65.9998 27.2482 65.9998 27.2474 65.9998 27.2466C65.9998 27.2459 65.9998 27.2451 65.9998 27.2443C65.9998 27.2436 65.9998 27.2428 65.9998 27.242C65.9998 27.2413 65.9998 27.2405 65.9998 27.2397C65.9998 27.2389 65.9998 27.2382 65.9998 27.2374C65.9998 27.2366 65.9998 27.2359 65.9998 27.2351C65.9998 27.2343 65.9998 27.2336 65.9998 27.2328C65.9998 27.232 65.9998 27.2312 65.9998 27.2305C65.9998 27.2297 65.9998 27.2289 65.9998 27.2282C65.9998 27.2274 65.9998 27.2266 65.9998 27.2258C65.9998 27.2251 65.9998 27.2243 65.9998 27.2235C65.9998 27.2227 65.9998 27.222 65.9998 27.2212C65.9998 27.2204 65.9998 27.2196 65.9998 27.2189C65.9998 27.2181 65.9998 27.2173 65.9998 27.2165C65.9998 27.2158 65.9998 27.215 65.9998 27.2142C65.9998 27.2134 65.9998 27.2127 65.9998 27.2119C65.9998 27.2111 65.9998 27.2103 65.9998 27.2096C65.9998 27.2088 65.9998 27.208 65.9998 27.2072C65.9998 27.2065 65.9998 27.2057 65.9998 27.2049C65.9998 27.2041 65.9998 27.2033 65.9998 27.2026C65.9998 27.2018 65.9998 27.201 65.9998 27.2002C65.9998 27.1994 65.9998 27.1987 65.9998 27.1979C65.9998 27.1971 65.9998 27.1963 65.9998 27.1955C65.9998 27.1948 65.9998 27.194 65.9998 27.1932C65.9998 27.1924 65.9998 27.1916 65.9998 27.1909C65.9998 27.1901 65.9998 27.1893 65.9998 27.1885C65.9998 27.1877 65.9998 27.1869 65.9998 27.1862C65.9998 27.1854 65.9998 27.1846 65.9998 27.1838C65.9998 27.183 65.9998 27.1822 65.9998 27.1815C65.9998 27.1807 65.9998 27.1799 65.9998 27.1791C65.9998 27.1783 65.9998 27.1775 65.9998 27.1768C65.9998 27.176 65.9998 27.1752 65.9998 27.1744C65.9998 27.1736 65.9998 27.1728 65.9998 27.172C65.9998 27.1713 65.9998 27.1705 65.9998 27.1697C65.9998 27.1689 65.9998 27.1681 65.9998 27.1673C65.9998 27.1665 65.9998 27.1657 65.9998 27.165C65.9998 27.1642 65.9998 27.1634 65.9998 27.1626C65.9998 27.1618 65.9998 27.161 65.9998 27.1602C65.9998 27.1594 65.9998 27.1586 65.9998 27.1578C65.9998 27.1571 65.9998 27.1563 65.9998 27.1555C65.9998 27.1547 65.9998 27.1539 65.9998 27.1531C65.9998 27.1523 65.9998 27.1515 65.9998 27.1507C65.9998 27.1499 65.9998 27.1491 65.9998 27.1484C65.9998 27.1476 65.9998 27.1468 65.9998 27.146C65.9998 27.1452 65.9998 27.1444 65.9998 27.1436C65.9998 27.1428 65.9998 27.142 65.9998 27.1412C65.9998 27.1404 65.9998 27.1396 65.9998 27.1388C65.9998 27.138 65.9998 27.1372 65.9998 27.1364C65.9998 27.1356 65.9998 27.1349 65.9998 27.1341C65.9998 27.1333 65.9998 27.1325 65.9998 27.1317C65.9998 27.1309 65.9998 27.1301 65.9998 27.1293C65.9998 27.1285 65.9998 27.1277 65.9998 27.1269C65.9998 27.1261 65.9998 27.1253 65.9998 27.1245C65.9998 27.1237 65.9998 27.1229 65.9998 27.1221C65.9998 27.1213 65.9998 27.1205 65.9998 27.1197C65.9998 27.1189 65.9998 27.1181 65.9998 27.1173C65.9998 27.1165 65.9998 27.1157 65.9998 27.1149C65.9998 27.1141 65.9998 27.1133 65.9998 27.1125C65.9998 27.1117 65.9998 27.1109 65.9998 27.1101C65.9998 27.1093 65.9998 27.1085 65.9998 27.1077C65.9998 27.1069 65.9998 27.1061 65.9998 27.1053C65.9998 27.1045 65.9998 27.1037 65.9998 27.1029C65.9998 27.1021 65.9998 27.1013 65.9998 27.1005C65.9998 27.0997 65.9998 27.0988 65.9998 27.098C65.9998 27.0972 65.9998 27.0964 65.9998 27.0956C65.9998 27.0948 65.9998 27.094 65.9998 27.0932C65.9998 27.0924 65.9998 27.0916 65.9998 27.0908C65.9998 27.09 65.9998 27.0892 65.9998 27.0884C65.9998 27.0876 65.9998 27.0868 65.9998 27.0859C65.9998 27.0851 65.9998 27.0843 65.9998 27.0835C65.9998 27.0827 65.9998 27.0819 65.9998 27.0811C65.9998 27.0803 65.9998 27.0795 65.9998 27.0787C65.9998 27.0779 65.9998 27.077 65.9998 27.0762C65.9998 27.0754 65.9998 27.0746 65.9998 27.0738C65.9998 27.073 65.9998 27.0722 65.9998 27.0714C65.9998 27.0706 65.9998 27.0698 65.9998 27.0689C65.9998 27.0681 65.9998 27.0673 65.9998 27.0665C65.9998 27.0657 65.9998 27.0649 65.9998 27.0641C65.9998 27.0633 65.9998 27.0624 65.9998 27.0616C65.9998 27.0608 65.9998 27.06 65.9998 27.0592C65.9998 27.0584 65.9998 27.0576 65.9998 27.0567C65.9998 27.0559 65.9998 27.0551 65.9998 27.0543C65.9998 27.0535 65.9998 27.0527 65.9998 27.0518C65.9998 27.051 65.9998 27.0502 65.9998 27.0494C65.9998 27.0486 65.9998 27.0478 65.9998 27.0469C65.9998 27.0461 65.9998 27.0453 65.9998 27.0445C65.9998 27.0437 65.9998 27.0429 65.9998 27.042C65.9998 27.0412 65.9998 27.0404 65.9998 27.0396C65.9998 27.0388 65.9998 27.0379 65.9998 27.0371C65.9998 27.0363 65.9998 27.0355 65.9998 27.0347C65.9998 27.0338 65.9998 27.033 65.9998 27.0322C65.9998 27.0314 65.9998 27.0306 65.9998 27.0297C65.9998 27.0289 65.9998 27.0281 65.9998 27.0273C65.9998 27.0265 65.9998 27.0256 65.9998 27.0248C65.9998 27.024 65.9998 27.0232 65.9998 27.0223C65.9998 27.0215 65.9998 27.0207 65.9998 27.0199C65.9998 27.019 65.9998 27.0182 65.9998 27.0174C65.9998 27.0166 65.9998 27.0158 65.9998 27.0149C65.9998 27.0141 65.9998 27.0133 65.9998 27.0125C65.9998 27.0116 65.9998 27.0108 65.9998 27.01C65.9998 27.0091 65.9998 27.0083 65.9998 27.0075C65.9998 27.0067 65.9998 27.0058 65.9998 27.005C65.9998 27.0042 65.9998 27.0034 65.9998 27.0025C65.9998 27.0017 65.9998 27.0009 65.9998 27C65.9998 26.9992 65.9998 26.9984 65.9998 26.9976C65.9998 26.9967 65.9998 26.9959 65.9998 26.9951C65.9998 26.9942 65.9998 26.9934 65.9998 26.9926C65.9998 26.9918 65.9998 26.9909 65.9998 26.9901C65.9998 26.9893 65.9998 26.9884 65.9998 26.9876C65.9998 26.9868 65.9998 26.9859 65.9998 26.9851C65.9998 26.9843 65.9998 26.9834 65.9998 26.9826C65.9998 26.9818 65.9998 26.9809 65.9998 26.9801C65.9998 26.9793 65.9998 26.9784 65.9998 26.9776C65.9998 26.9768 65.9998 26.9759 65.9998 26.9751C65.9998 26.9743 65.9998 26.9734 65.9998 26.9726C65.9998 26.9718 65.9998 26.9709 65.9998 26.9701C65.9998 26.9693 65.9998 26.9684 65.9998 26.9676C65.9998 26.9668 65.9998 26.9659 65.9998 26.9651C65.9998 26.9642 65.9998 26.9634 65.9998 26.9626C65.9998 26.9617 65.9998 26.9609 65.9998 26.9601C65.9998 26.9592 65.9998 26.9584 65.9998 26.9575C65.9998 26.9567 65.9998 26.9559 65.9998 26.955C65.9998 26.9542 65.9998 26.9533 65.9998 26.9525C65.9998 26.9517 65.9998 26.9508 65.9998 26.95C65.9998 26.9491 65.9998 26.9483 65.9998 26.9475C65.9998 26.9466 65.9998 26.9458 65.9998 26.9449C65.9998 26.9441 65.9998 26.9433 65.9998 26.9424C65.9998 26.9416 65.9998 26.9407 65.9998 26.9399C65.9998 26.939 65.9998 26.9382 65.9998 26.9374C65.9998 26.9365 65.9998 26.9357 65.9998 26.9348C65.9998 26.934 65.9998 26.9331 65.9998 26.9323C65.9998 26.9315 65.9998 26.9306 65.9998 26.9298C65.9998 26.9289 65.9998 26.9281 65.9998 26.9272C65.9998 26.9264 65.9998 26.9255 65.9998 26.9247C65.9998 26.9238 65.9998 26.923 65.9998 26.9222C65.9998 26.9213 65.9998 26.9205 65.9998 26.9196C65.9998 26.9188 65.9998 26.9179 65.9998 26.9171C65.9998 26.9162 65.9998 26.9154 65.9998 26.9145C65.9998 26.9137 65.9998 26.9128 65.9998 26.912C65.9998 26.9111 65.9998 26.9103 65.9998 26.9094C65.9998 26.9086 65.9998 26.9077 65.9998 26.9069C65.9998 26.906 65.9998 26.9052 65.9998 26.9043C65.9998 26.9035 65.9998 26.9026 65.9998 26.9018C65.9998 26.9009 65.9998 26.9001 65.9998 26.8992C65.9998 26.8984 65.9998 26.8975 65.9998 26.8967C65.9998 26.8958 65.9998 26.895 65.9998 26.8941C65.9998 26.8933 65.9998 26.8924 65.9998 26.8915C65.9998 26.8907 65.9998 26.8898 65.9998 26.889C65.9998 26.8881 65.9998 26.8873 65.9998 26.8864C65.9998 26.8856 65.9998 26.8847 65.9998 26.8839C65.9998 26.883 65.9998 26.8821 65.9998 26.8813C65.9998 26.8804 65.9998 26.8796 65.9998 26.8787C65.9998 26.8779 65.9998 26.877 65.9998 26.8761C65.9998 26.8753 65.9998 26.8744 65.9998 26.8736C65.9998 26.8727 65.9998 26.8719 65.9998 26.871C65.9998 26.8701 65.9998 26.8693 65.9998 26.8684C65.9998 26.8676 65.9998 26.8667 65.9998 26.8658C65.9998 26.865 65.9998 26.8641 65.9998 26.8633C65.9998 26.8624 65.9998 26.8615 65.9998 26.8607C65.9998 26.8598 65.9998 26.859 65.9998 26.8581C65.9998 26.8572 65.9998 26.8564 65.9998 26.8555C65.9998 26.8546 65.9998 26.8538 65.9998 26.8529C65.9998 26.8521 65.9998 26.8512 65.9998 26.8503C65.9998 26.8495 65.9998 26.8486 65.9998 26.8477C65.9998 26.8469 65.9998 26.846 65.9998 26.8452C65.9998 26.8443 65.9998 26.8434 65.9998 26.8426C65.9998 26.8417 65.9998 26.8408 65.9998 26.84C65.9998 26.8391 65.9998 26.8382 65.9998 26.8374C65.9998 26.8365 65.9998 26.8356 65.9998 26.8348C65.9998 26.8339 65.9998 26.833 65.9998 26.8322C65.9998 26.8313 65.9998 26.8304 65.9998 26.8296C65.9998 26.8287 65.9998 26.8278 65.9998 26.827C65.9998 26.8261 65.9998 26.8252 65.9998 26.8243C65.9998 26.8235 65.9998 26.8226 65.9998 26.8217C65.9998 26.8209 65.9998 26.82 65.9998 26.8191C65.9998 26.8183 65.9998 26.8174 65.9998 26.8165C65.9998 26.8156 65.9998 26.8148 65.9998 26.8139C65.9998 26.813 65.9998 26.8122 65.9998 26.8113C65.9998 26.8104 65.9998 26.8095 65.9998 26.8087C65.9998 26.8078 65.9998 26.8069 65.9998 26.8061C65.9998 26.8052 65.9998 26.8043 65.9998 26.8034C65.9998 26.8026 65.9998 26.8017 65.9998 26.8008C65.9998 26.7999 65.9998 26.7991 65.9998 26.7982C65.9998 26.7973 65.9998 26.7964 65.9998 26.7956C65.9998 26.7947 65.9998 26.7938 65.9998 26.7929C65.9998 26.7921 65.9998 26.7912 65.9998 26.7903C65.9998 26.7894 65.9998 26.7885 65.9998 26.7877C65.9998 26.7868 65.9998 26.7859 65.9998 26.785C65.9998 26.7842 65.9998 26.7833 65.9998 26.7824C65.9998 26.7815 65.9998 26.7806 65.9998 26.7798C65.9998 26.7789 65.9998 26.778 65.9998 26.7771C65.9998 26.7762 65.9998 26.7754 65.9998 26.7745C65.9998 26.7736 65.9998 26.7727 65.9998 26.7718C65.9998 26.771 65.9998 26.7701 65.9998 26.7692C65.9998 26.7683 65.9998 26.7674 65.9998 26.7666C65.9998 26.7657 65.9998 26.7648 65.9998 26.7639C65.9998 26.763 65.9998 26.7621 65.9998 26.7613C65.9998 26.7604 65.9998 26.7595 65.9998 26.7586C65.9998 26.7577 65.9998 26.7568 65.9998 26.756C65.9998 26.7551 65.9998 26.7542 65.9998 26.7533C65.9998 26.7524 65.9998 26.7515 65.9998 26.7506C65.9998 26.7498 65.9998 26.7489 65.9998 26.748C65.9998 26.7471 65.9998 26.7462 65.9998 26.7453C65.9998 26.7444 65.9998 26.7436 65.9998 26.7427C65.9998 26.7418 65.9998 26.7409 65.9998 26.74C65.9998 26.7391 65.9998 26.7382 65.9998 26.7373C65.9998 26.7364 65.9998 26.7356 65.9998 26.7347C65.9998 26.7338 65.9998 26.7329 65.9998 26.732C65.9998 26.7311 65.9998 26.7302 65.9998 26.7293C65.9998 26.7284 65.9998 26.7275 65.9998 26.7267C65.9998 26.7258 65.9998 26.7249 65.9998 26.724C65.9998 26.7231 65.9998 26.7222 65.9998 26.7213C65.9998 26.7204 65.9998 26.7195 65.9998 26.7186C65.9998 26.7177 65.9998 26.7168 65.9998 26.716C65.9998 26.7151 65.9998 26.7142 65.9998 26.7133C65.9998 26.7124 65.9998 26.7115 65.9998 26.7106C65.9998 26.7097 65.9998 26.7088 65.9998 26.7079C65.9998 26.707 65.9998 26.7061 65.9998 26.7052C65.9998 26.7043 65.9998 26.7034 65.9998 26.7025C65.9998 26.7016 65.9998 26.7007 65.9998 26.6998C65.9998 26.6989 65.9998 26.698 65.9998 26.6971C65.9998 26.6962 65.9998 26.6954 65.9998 26.6945C65.9998 26.6936 65.9998 26.6927 65.9998 26.6918C65.9998 26.6909 65.9998 26.69 65.9998 26.6891C65.9998 26.6882 65.9998 26.6873 65.9998 26.6864C65.9998 26.6855 65.9998 26.6846 65.9998 26.6837C65.9998 26.6828 65.9998 26.6819 65.9998 26.681C65.9998 26.6801 65.9998 26.6792 65.9998 26.6783C65.9998 26.6774 65.9998 26.6765 65.9998 26.6755C65.9998 26.6746 65.9998 26.6737 65.9998 26.6728C65.9998 26.6719 65.9998 26.671 65.9998 26.6701C65.9998 26.6692 65.9998 26.6683 65.9998 26.6674C65.9998 26.6665 65.9998 26.6656 65.9998 26.6647C65.9998 26.6638 65.9998 26.6629 65.9998 26.662C65.9998 26.6611 65.9998 26.6602 65.9998 26.6593C65.9998 26.6584 65.9998 26.6575 65.9998 26.6566C65.9998 26.6557 65.9998 26.6547 65.9998 26.6538H65.3238C65.3238 26.6547 65.3238 26.6557 65.3238 26.6566C65.3238 26.6575 65.3238 26.6584 65.3238 26.6593C65.3238 26.6602 65.3238 26.6611 65.3238 26.662C65.3238 26.6629 65.3238 26.6638 65.3238 26.6647C65.3238 26.6656 65.3238 26.6665 65.3238 26.6674C65.3238 26.6683 65.3238 26.6692 65.3238 26.6701C65.3238 26.671 65.3238 26.6719 65.3238 26.6728C65.3238 26.6737 65.3238 26.6746 65.3238 26.6755C65.3238 26.6765 65.3238 26.6774 65.3238 26.6783C65.3238 26.6792 65.3238 26.6801 65.3238 26.681C65.3238 26.6819 65.3238 26.6828 65.3238 26.6837C65.3238 26.6846 65.3238 26.6855 65.3238 26.6864C65.3238 26.6873 65.3238 26.6882 65.3238 26.6891C65.3238 26.69 65.3238 26.6909 65.3238 26.6918C65.3238 26.6927 65.3238 26.6936 65.3238 26.6945C65.3238 26.6954 65.3238 26.6962 65.3238 26.6971C65.3238 26.698 65.3238 26.6989 65.3238 26.6998C65.3238 26.7007 65.3238 26.7016 65.3238 26.7025C65.3238 26.7034 65.3238 26.7043 65.3238 26.7052C65.3238 26.7061 65.3238 26.707 65.3238 26.7079C65.3238 26.7088 65.3238 26.7097 65.3238 26.7106C65.3238 26.7115 65.3238 26.7124 65.3238 26.7133C65.3238 26.7142 65.3238 26.7151 65.3238 26.716C65.3238 26.7168 65.3238 26.7177 65.3238 26.7186C65.3238 26.7195 65.3238 26.7204 65.3238 26.7213C65.3238 26.7222 65.3238 26.7231 65.3238 26.724C65.3238 26.7249 65.3238 26.7258 65.3238 26.7267C65.3238 26.7275 65.3238 26.7284 65.3238 26.7293C65.3238 26.7302 65.3238 26.7311 65.3238 26.732C65.3238 26.7329 65.3238 26.7338 65.3238 26.7347C65.3238 26.7356 65.3238 26.7364 65.3238 26.7373C65.3238 26.7382 65.3238 26.7391 65.3238 26.74C65.3238 26.7409 65.3238 26.7418 65.3238 26.7427C65.3238 26.7436 65.3238 26.7444 65.3238 26.7453C65.3238 26.7462 65.3238 26.7471 65.3238 26.748C65.3238 26.7489 65.3238 26.7498 65.3238 26.7506C65.3238 26.7515 65.3238 26.7524 65.3238 26.7533C65.3238 26.7542 65.3238 26.7551 65.3238 26.756C65.3238 26.7568 65.3238 26.7577 65.3238 26.7586C65.3238 26.7595 65.3238 26.7604 65.3238 26.7613C65.3238 26.7621 65.3238 26.763 65.3238 26.7639C65.3238 26.7648 65.3238 26.7657 65.3238 26.7666C65.3238 26.7674 65.3238 26.7683 65.3238 26.7692C65.3238 26.7701 65.3238 26.771 65.3238 26.7718C65.3238 26.7727 65.3238 26.7736 65.3238 26.7745C65.3238 26.7754 65.3238 26.7762 65.3238 26.7771C65.3238 26.778 65.3238 26.7789 65.3238 26.7798C65.3238 26.7806 65.3238 26.7815 65.3238 26.7824C65.3238 26.7833 65.3238 26.7842 65.3238 26.785C65.3238 26.7859 65.3238 26.7868 65.3238 26.7877C65.3238 26.7885 65.3238 26.7894 65.3238 26.7903C65.3238 26.7912 65.3238 26.7921 65.3238 26.7929C65.3238 26.7938 65.3238 26.7947 65.3238 26.7956C65.3238 26.7964 65.3238 26.7973 65.3238 26.7982C65.3238 26.7991 65.3238 26.7999 65.3238 26.8008C65.3238 26.8017 65.3238 26.8026 65.3238 26.8034C65.3238 26.8043 65.3238 26.8052 65.3238 26.8061C65.3238 26.8069 65.3238 26.8078 65.3238 26.8087C65.3238 26.8095 65.3238 26.8104 65.3238 26.8113C65.3238 26.8122 65.3238 26.813 65.3238 26.8139C65.3238 26.8148 65.3238 26.8156 65.3238 26.8165C65.3238 26.8174 65.3238 26.8183 65.3238 26.8191C65.3238 26.82 65.3238 26.8209 65.3238 26.8217C65.3238 26.8226 65.3238 26.8235 65.3238 26.8243C65.3238 26.8252 65.3238 26.8261 65.3238 26.827C65.3238 26.8278 65.3238 26.8287 65.3238 26.8296C65.3238 26.8304 65.3238 26.8313 65.3238 26.8322C65.3238 26.833 65.3238 26.8339 65.3238 26.8348C65.3238 26.8356 65.3238 26.8365 65.3238 26.8374C65.3238 26.8382 65.3238 26.8391 65.3238 26.84C65.3238 26.8408 65.3238 26.8417 65.3238 26.8426C65.3238 26.8434 65.3238 26.8443 65.3238 26.8452C65.3238 26.846 65.3238 26.8469 65.3238 26.8477C65.3238 26.8486 65.3238 26.8495 65.3238 26.8503C65.3238 26.8512 65.3238 26.8521 65.3238 26.8529C65.3238 26.8538 65.3238 26.8546 65.3238 26.8555C65.3238 26.8564 65.3238 26.8572 65.3238 26.8581C65.3238 26.859 65.3238 26.8598 65.3238 26.8607C65.3238 26.8615 65.3238 26.8624 65.3238 26.8633C65.3238 26.8641 65.3238 26.865 65.3238 26.8658C65.3238 26.8667 65.3238 26.8676 65.3238 26.8684C65.3238 26.8693 65.3238 26.8701 65.3238 26.871C65.3238 26.8719 65.3238 26.8727 65.3238 26.8736C65.3238 26.8744 65.3238 26.8753 65.3238 26.8761C65.3238 26.877 65.3238 26.8779 65.3238 26.8787C65.3238 26.8796 65.3238 26.8804 65.3238 26.8813C65.3238 26.8821 65.3238 26.883 65.3238 26.8839C65.3238 26.8847 65.3238 26.8856 65.3238 26.8864C65.3238 26.8873 65.3238 26.8881 65.3238 26.889C65.3238 26.8898 65.3238 26.8907 65.3238 26.8915C65.3238 26.8924 65.3238 26.8933 65.3238 26.8941C65.3238 26.895 65.3238 26.8958 65.3238 26.8967C65.3238 26.8975 65.3238 26.8984 65.3238 26.8992C65.3238 26.9001 65.3238 26.9009 65.3238 26.9018C65.3238 26.9026 65.3238 26.9035 65.3238 26.9043C65.3238 26.9052 65.3238 26.906 65.3238 26.9069C65.3238 26.9077 65.3238 26.9086 65.3238 26.9094C65.3238 26.9103 65.3238 26.9111 65.3238 26.912C65.3238 26.9128 65.3238 26.9137 65.3238 26.9145C65.3238 26.9154 65.3238 26.9162 65.3238 26.9171C65.3238 26.9179 65.3238 26.9188 65.3238 26.9196C65.3238 26.9205 65.3238 26.9213 65.3238 26.9222C65.3238 26.923 65.3238 26.9238 65.3238 26.9247C65.3238 26.9255 65.3238 26.9264 65.3238 26.9272C65.3238 26.9281 65.3238 26.9289 65.3238 26.9298C65.3238 26.9306 65.3238 26.9315 65.3238 26.9323C65.3238 26.9331 65.3238 26.934 65.3238 26.9348C65.3238 26.9357 65.3238 26.9365 65.3238 26.9374C65.3238 26.9382 65.3238 26.939 65.3238 26.9399C65.3238 26.9407 65.3238 26.9416 65.3238 26.9424C65.3238 26.9433 65.3238 26.9441 65.3238 26.9449C65.3238 26.9458 65.3238 26.9466 65.3238 26.9475C65.3238 26.9483 65.3238 26.9491 65.3238 26.95C65.3238 26.9508 65.3238 26.9517 65.3238 26.9525C65.3238 26.9533 65.3238 26.9542 65.3238 26.955C65.3238 26.9559 65.3238 26.9567 65.3238 26.9575C65.3238 26.9584 65.3238 26.9592 65.3238 26.9601C65.3238 26.9609 65.3238 26.9617 65.3238 26.9626C65.3238 26.9634 65.3238 26.9642 65.3238 26.9651C65.3238 26.9659 65.3238 26.9668 65.3238 26.9676C65.3238 26.9684 65.3238 26.9693 65.3238 26.9701C65.3238 26.9709 65.3238 26.9718 65.3238 26.9726C65.3238 26.9734 65.3238 26.9743 65.3238 26.9751C65.3238 26.9759 65.3238 26.9768 65.3238 26.9776C65.3238 26.9784 65.3238 26.9793 65.3238 26.9801C65.3238 26.9809 65.3238 26.9818 65.3238 26.9826C65.3238 26.9834 65.3238 26.9843 65.3238 26.9851C65.3238 26.9859 65.3238 26.9868 65.3238 26.9876C65.3238 26.9884 65.3238 26.9893 65.3238 26.9901C65.3238 26.9909 65.3238 26.9918 65.3238 26.9926C65.3238 26.9934 65.3238 26.9942 65.3238 26.9951C65.3238 26.9959 65.3238 26.9967 65.3238 26.9976C65.3238 26.9984 65.3238 26.9992 65.3238 27C65.3238 27.0009 65.3238 27.0017 65.3238 27.0025C65.3238 27.0034 65.3238 27.0042 65.3238 27.005C65.3238 27.0058 65.3238 27.0067 65.3238 27.0075C65.3238 27.0083 65.3238 27.0091 65.3238 27.01C65.3238 27.0108 65.3238 27.0116 65.3238 27.0125C65.3238 27.0133 65.3238 27.0141 65.3238 27.0149C65.3238 27.0158 65.3238 27.0166 65.3238 27.0174C65.3238 27.0182 65.3238 27.019 65.3238 27.0199C65.3238 27.0207 65.3238 27.0215 65.3238 27.0223C65.3238 27.0232 65.3238 27.024 65.3238 27.0248C65.3238 27.0256 65.3238 27.0265 65.3238 27.0273C65.3238 27.0281 65.3238 27.0289 65.3238 27.0297C65.3238 27.0306 65.3238 27.0314 65.3238 27.0322C65.3238 27.033 65.3238 27.0338 65.3238 27.0347C65.3238 27.0355 65.3238 27.0363 65.3238 27.0371C65.3238 27.0379 65.3238 27.0388 65.3238 27.0396C65.3238 27.0404 65.3238 27.0412 65.3238 27.042C65.3238 27.0429 65.3238 27.0437 65.3238 27.0445C65.3238 27.0453 65.3238 27.0461 65.3238 27.0469C65.3238 27.0478 65.3238 27.0486 65.3238 27.0494C65.3238 27.0502 65.3238 27.051 65.3238 27.0518C65.3238 27.0527 65.3238 27.0535 65.3238 27.0543C65.3238 27.0551 65.3238 27.0559 65.3238 27.0567C65.3238 27.0576 65.3238 27.0584 65.3238 27.0592C65.3238 27.06 65.3238 27.0608 65.3238 27.0616C65.3238 27.0624 65.3238 27.0633 65.3238 27.0641C65.3238 27.0649 65.3238 27.0657 65.3238 27.0665C65.3238 27.0673 65.3238 27.0681 65.3238 27.0689C65.3238 27.0698 65.3238 27.0706 65.3238 27.0714C65.3238 27.0722 65.3238 27.073 65.3238 27.0738C65.3238 27.0746 65.3238 27.0754 65.3238 27.0762C65.3238 27.077 65.3238 27.0779 65.3238 27.0787C65.3238 27.0795 65.3238 27.0803 65.3238 27.0811C65.3238 27.0819 65.3238 27.0827 65.3238 27.0835C65.3238 27.0843 65.3238 27.0851 65.3238 27.0859C65.3238 27.0868 65.3238 27.0876 65.3238 27.0884C65.3238 27.0892 65.3238 27.09 65.3238 27.0908C65.3238 27.0916 65.3238 27.0924 65.3238 27.0932C65.3238 27.094 65.3238 27.0948 65.3238 27.0956C65.3238 27.0964 65.3238 27.0972 65.3238 27.098C65.3238 27.0988 65.3238 27.0997 65.3238 27.1005C65.3238 27.1013 65.3238 27.1021 65.3238 27.1029C65.3238 27.1037 65.3238 27.1045 65.3238 27.1053C65.3238 27.1061 65.3238 27.1069 65.3238 27.1077C65.3238 27.1085 65.3238 27.1093 65.3238 27.1101C65.3238 27.1109 65.3238 27.1117 65.3238 27.1125C65.3238 27.1133 65.3238 27.1141 65.3238 27.1149C65.3238 27.1157 65.3238 27.1165 65.3238 27.1173C65.3238 27.1181 65.3238 27.1189 65.3238 27.1197C65.3238 27.1205 65.3238 27.1213 65.3238 27.1221C65.3238 27.1229 65.3238 27.1237 65.3238 27.1245C65.3238 27.1253 65.3238 27.1261 65.3238 27.1269C65.3238 27.1277 65.3238 27.1285 65.3238 27.1293C65.3238 27.1301 65.3238 27.1309 65.3238 27.1317C65.3238 27.1325 65.3238 27.1333 65.3238 27.1341C65.3238 27.1349 65.3238 27.1356 65.3238 27.1364C65.3238 27.1372 65.3238 27.138 65.3238 27.1388C65.3238 27.1396 65.3238 27.1404 65.3238 27.1412C65.3238 27.142 65.3238 27.1428 65.3238 27.1436C65.3238 27.1444 65.3238 27.1452 65.3238 27.146C65.3238 27.1468 65.3238 27.1476 65.3238 27.1484C65.3238 27.1491 65.3238 27.1499 65.3238 27.1507C65.3238 27.1515 65.3238 27.1523 65.3238 27.1531C65.3238 27.1539 65.3238 27.1547 65.3238 27.1555C65.3238 27.1563 65.3238 27.1571 65.3238 27.1578C65.3238 27.1586 65.3238 27.1594 65.3238 27.1602C65.3238 27.161 65.3238 27.1618 65.3238 27.1626C65.3238 27.1634 65.3238 27.1642 65.3238 27.165C65.3238 27.1657 65.3238 27.1665 65.3238 27.1673C65.3238 27.1681 65.3238 27.1689 65.3238 27.1697C65.3238 27.1705 65.3238 27.1713 65.3238 27.172C65.3238 27.1728 65.3238 27.1736 65.3238 27.1744C65.3238 27.1752 65.3238 27.176 65.3238 27.1768C65.3238 27.1775 65.3238 27.1783 65.3238 27.1791C65.3238 27.1799 65.3238 27.1807 65.3238 27.1815C65.3238 27.1822 65.3238 27.183 65.3238 27.1838C65.3238 27.1846 65.3238 27.1854 65.3238 27.1862C65.3238 27.1869 65.3238 27.1877 65.3238 27.1885C65.3238 27.1893 65.3238 27.1901 65.3238 27.1909C65.3238 27.1916 65.3238 27.1924 65.3238 27.1932C65.3238 27.194 65.3238 27.1948 65.3238 27.1955C65.3238 27.1963 65.3238 27.1971 65.3238 27.1979C65.3238 27.1987 65.3238 27.1994 65.3238 27.2002C65.3238 27.201 65.3238 27.2018 65.3238 27.2026C65.3238 27.2033 65.3238 27.2041 65.3238 27.2049C65.3238 27.2057 65.3238 27.2065 65.3238 27.2072C65.3238 27.208 65.3238 27.2088 65.3238 27.2096C65.3238 27.2103 65.3238 27.2111 65.3238 27.2119C65.3238 27.2127 65.3238 27.2134 65.3238 27.2142C65.3238 27.215 65.3238 27.2158 65.3238 27.2165C65.3238 27.2173 65.3238 27.2181 65.3238 27.2189C65.3238 27.2196 65.3238 27.2204 65.3238 27.2212C65.3238 27.222 65.3238 27.2227 65.3238 27.2235C65.3238 27.2243 65.3238 27.2251 65.3238 27.2258C65.3238 27.2266 65.3238 27.2274 65.3238 27.2282C65.3238 27.2289 65.3238 27.2297 65.3238 27.2305C65.3238 27.2312 65.3238 27.232 65.3238 27.2328C65.3238 27.2336 65.3238 27.2343 65.3238 27.2351C65.3238 27.2359 65.3238 27.2366 65.3238 27.2374C65.3238 27.2382 65.3238 27.2389 65.3238 27.2397C65.3238 27.2405 65.3238 27.2413 65.3238 27.242C65.3238 27.2428 65.3238 27.2436 65.3238 27.2443C65.3238 27.2451 65.3238 27.2459 65.3238 27.2466C65.3238 27.2474 65.3238 27.2482 65.3238 27.2489C65.3238 27.2497 65.3238 27.2505 65.3238 27.2512C65.3238 27.252 65.3238 27.2528 65.3238 27.2535C65.3238 27.2543 65.3238 27.2551 65.3238 27.2558C65.3238 27.2566 65.3238 27.2574 65.3238 27.2581C65.3238 27.2589 65.3238 27.2597 65.3238 27.2604C65.3238 27.2612 65.3238 27.2619 65.3238 27.2627C65.3238 27.2635 65.3238 27.2642 65.3238 27.265C65.3238 27.2658 65.3238 27.2665 65.3238 27.2673C65.3238 27.2681 65.3238 27.2688 65.3238 27.2696C65.3238 27.2703 65.3238 27.2711 65.3238 27.2719C65.3238 27.2726 65.3238 27.2734 65.3238 27.2741C65.3238 27.2749 65.3238 27.2757 65.3238 27.2764C65.3238 27.2772 65.3238 27.2779 65.3238 27.2787C65.3238 27.2795 65.3238 27.2802 65.3238 27.281C65.3238 27.2817 65.3238 27.2825 65.3238 27.2833C65.3238 27.284 65.3238 27.2848 65.3238 27.2855C65.3238 27.2863 65.3238 27.287 65.3238 27.2878C65.3238 27.2886 65.3238 27.2893 65.3238 27.2901C65.3238 27.2908 65.3238 27.2916 65.3238 27.2923C65.3238 27.2931 65.3238 27.2938 65.3238 27.2946C65.3238 27.2954 65.3238 27.2961 65.3238 27.2969C65.3238 27.2976 65.3238 27.2984 65.3238 27.2991C65.3238 27.2999 65.3238 27.3006 65.3238 27.3014C65.3238 27.3021 65.3238 27.3029 65.3238 27.3037C65.3238 27.3044 65.3238 27.3052 65.3238 27.3059C65.3238 27.3067 65.3238 27.3074 65.3238 27.3082C65.3238 27.3089 65.3238 27.3097 65.3238 27.3104C65.3238 27.3112 65.3238 27.3119 65.3238 27.3127C65.3238 27.3134 65.3238 27.3142 65.3238 27.3149C65.3238 27.3157 65.3238 27.3164 65.3238 27.3172C65.3238 27.3179 65.3238 27.3187 65.3238 27.3194C65.3238 27.3202 65.3238 27.3209 65.3238 27.3217C65.3238 27.3224 65.3238 27.3232 65.3238 27.3239C65.3238 27.3247 65.3238 27.3254 65.3238 27.3261C65.3238 27.3269 65.3238 27.3276 65.3238 27.3284C65.3238 27.3291 65.3238 27.3299 65.3238 27.3306C65.3238 27.3314 65.3238 27.3321 65.3238 27.3329C65.3238 27.3336 65.3238 27.3344 65.3238 27.3351C65.3238 27.3358 65.3238 27.3366 65.3238 27.3373C65.3238 27.3381 65.3238 27.3388 65.3238 27.3396C65.3238 27.3403 65.3238 27.341 65.3238 27.3418C65.3238 27.3425 65.3238 27.3433 65.3238 27.344C65.3238 27.3448 65.3238 27.3455 65.3238 27.3462C65.3238 27.347 65.3238 27.3477 65.3238 27.3485C65.3238 27.3492 65.3238 27.3499 65.3238 27.3507C65.3238 27.3514 65.3238 27.3522 65.3238 27.3529C65.3238 27.3537 65.3238 27.3544 65.3238 27.3551C65.3238 27.3559 65.3238 27.3566 65.3238 27.3573C65.3238 27.3581 65.3238 27.3588 65.3238 27.3596C65.3238 27.3603 65.3238 27.361 65.3238 27.3618C65.3238 27.3625 65.3238 27.3632 65.3238 27.364C65.3238 27.3647 65.3238 27.3655 65.3238 27.3662C65.3238 27.3669 65.3238 27.3677 65.3238 27.3684C65.3238 27.3691 65.3238 27.3699 65.3238 27.3706C65.3238 27.3713 65.3238 27.3721 65.3238 27.3728C65.3238 27.3735 65.3238 27.3743 65.3238 27.375C65.3238 27.3758 65.3238 27.3765 65.3238 27.3772C65.3238 27.378 65.3238 27.3787 65.3238 27.3794C65.3238 27.3802 65.3238 27.3809 65.3238 27.3816C65.3238 27.3823 65.3238 27.3831 65.3238 27.3838C65.3238 27.3845 65.3238 27.3853 65.3238 27.386C65.3238 27.3867 65.3238 27.3875 65.3238 27.3882C65.3238 27.3889 65.3238 27.3897 65.3238 27.3904C65.3238 27.3911 65.3238 27.3918 65.3238 27.3926C65.3238 27.3933 65.3238 27.394 65.3238 27.3948C65.3238 27.3955 65.3238 27.3962 65.3238 27.3969C65.3238 27.3977 65.3238 27.3984 65.3238 27.3991C65.3238 27.3999 65.3238 27.4006 65.3238 27.4013C65.3238 27.402 65.3238 27.4028 65.3238 27.4035C65.3238 27.4042 65.3238 27.4049 65.3238 27.4057C65.3238 27.4064 65.3238 27.4071 65.3238 27.4078C65.3238 27.4086 65.3238 27.4093 65.3238 27.41C65.3238 27.4107 65.3238 27.4115 65.3238 27.4122C65.3238 27.4129 65.3238 27.4136 65.3238 27.4144C65.3238 27.4151 65.3238 27.4158 65.3238 27.4165C65.3238 27.4173 65.3238 27.418 65.3238 27.4187C65.3238 27.4194 65.3238 27.4201 65.3238 27.4209C65.3238 27.4216 65.3238 27.4223 65.3238 27.423C65.3238 27.4238 65.3238 27.4245 65.3238 27.4252C65.3238 27.4259 65.3238 27.4266 65.3238 27.4274C65.3238 27.4281 65.3238 27.4288 65.3238 27.4295C65.3238 27.4302 65.3238 27.4309 65.3238 27.4317C65.3238 27.4324 65.3238 27.4331 65.3238 27.4338C65.3238 27.4345 65.3238 27.4353 65.3238 27.436C65.3238 27.4367 65.3238 27.4374 65.3238 27.4381C65.3238 27.4388 65.3238 27.4396 65.3238 27.4403C65.3238 27.441 65.3238 27.4417 65.3238 27.4424C65.3238 27.4431 65.3238 27.4439 65.3238 27.4446C65.3238 27.4453 65.3238 27.446 65.3238 27.4467C65.3238 27.4474 65.3238 27.4481 65.3238 27.4489C65.3238 27.4496 65.3238 27.4503 65.3238 27.451C65.3238 27.4517 65.3238 27.4524 65.3238 27.4531C65.3238 27.4538 65.3238 27.4546 65.3238 27.4553C65.3238 27.456 65.3238 27.4567 65.3238 27.4574C65.3238 27.4581 65.3238 27.4588 65.3238 27.4595C65.3238 27.4603 65.3238 27.461 65.3238 27.4617C65.3238 27.4624 65.3238 27.4631 65.3238 27.4638C65.3238 27.4645 65.3238 27.4652 65.3238 27.4659C65.3238 27.4666 65.3238 27.4674 65.3238 27.4681C65.3238 27.4688 65.3238 27.4695 65.3238 27.4702C65.3238 27.4709 65.3238 27.4716 65.3238 27.4723C65.3238 27.473 65.3238 27.4737 65.3238 27.4744C65.3238 27.4751 65.3238 27.4758 65.3238 27.4765C65.3238 27.4773 65.3238 27.478 65.3238 27.4787C65.3238 27.4794 65.3238 27.4801 65.3238 27.4808C65.3238 27.4815 65.3238 27.4822 65.3238 27.4829C65.3238 27.4836 65.3238 27.4843 65.3238 27.485C65.3238 27.4857 65.3238 27.4864 65.3238 27.4871C65.3238 27.4878 65.3238 27.4885 65.3238 27.4892C65.3238 27.4899 65.3238 27.4906 65.3238 27.4913C65.3238 27.492 65.3238 27.4927 65.3238 27.4934C65.3238 27.4941 65.3238 27.4948 65.3238 27.4955C65.3238 27.4962 65.3238 27.4969 65.3238 27.4976C65.3238 27.4983 65.3238 27.499 65.3238 27.4997C65.3238 27.5004 65.3238 27.5011 65.3238 27.5018C65.3238 27.5025 65.3238 27.5032 65.3238 27.5039C65.3238 27.5046 65.3238 27.5053 65.3238 27.506C65.3238 27.5067 65.3238 27.5074 65.3238 27.5081C65.3238 27.5088 65.3238 27.5095 65.3238 27.5102C65.3238 27.5109 65.3238 27.5116 65.3238 27.5123C65.3238 27.513 65.3238 27.5137 65.3238 27.5144C65.3238 27.5151 65.3238 27.5158 65.3238 27.5165C65.3238 27.5172 65.3238 27.5179 65.3238 27.5186C65.3238 27.5193 65.3238 27.52 65.3238 27.5206C65.3238 27.5213 65.3238 27.522 65.3238 27.5227C65.3238 27.5234 65.3238 27.5241 65.3238 27.5248C65.3238 27.5255 65.3238 27.5262 65.3238 27.5269C65.3238 27.5276 65.3238 27.5283 65.3238 27.529C65.3238 27.5297 65.3238 27.5303 65.3238 27.531C65.3238 27.5317 65.3238 27.5324 65.3238 27.5331C65.3238 27.5338 65.3238 27.5345 65.3238 27.5352C65.3238 27.5359 65.3238 27.5366 65.3238 27.5372C65.3238 27.5379 65.3238 27.5386 65.3238 27.5393C65.3238 27.54 65.3238 27.5407 65.3238 27.5414C65.3238 27.5421 65.3238 27.5427 65.3238 27.5434C65.3238 27.5441 65.3238 27.5448 65.3238 27.5455C65.3238 27.5462 65.3238 27.5469 65.3238 27.5476C65.3238 27.5482 65.3238 27.5489 65.3238 27.5496C65.3238 27.5503 65.3238 27.551 65.3238 27.5517C65.3238 27.5524 65.3238 27.553 65.3238 27.5537C65.3238 27.5544 65.3238 27.5551 65.3238 27.5558C65.3238 27.5565 65.3238 27.5571 65.3238 27.5578C65.3238 27.5585 65.3238 27.5592 65.3238 27.5599C65.3238 27.5606 65.3238 27.5612 65.3238 27.5619C65.3238 27.5626 65.3238 27.5633 65.3238 27.564C65.3238 27.5646 65.3238 27.5653 65.3238 27.566C65.3238 27.5667 65.3238 27.5674 65.3238 27.5681C65.3238 27.5687 65.3238 27.5694 65.3238 27.5701C65.3238 27.5708 65.3238 27.5715 65.3238 27.5721C65.3238 27.5728 65.3238 27.5735 65.3238 27.5742C65.3238 27.5748 65.3238 27.5755 65.3238 27.5762C65.3238 27.5769 65.3238 27.5776 65.3238 27.5782C65.3238 27.5789 65.3238 27.5796 65.3238 27.5803C65.3238 27.5809 65.3238 27.5816 65.3238 27.5823C65.3238 27.583 65.3238 27.5836 65.3238 27.5843C65.3238 27.585 65.3238 27.5857 65.3238 27.5863C65.3238 27.587 65.3238 27.5877 65.3238 27.5884C65.3238 27.589 65.3238 27.5897 65.3238 27.5904C65.3238 27.5911 65.3238 27.5917 65.3238 27.5924C65.3238 27.5931 65.3238 27.5938 65.3238 27.5944C65.3238 27.5951 65.3238 27.5958 65.3238 27.5964C65.3238 27.5971 65.3238 27.5978 65.3238 27.5985C65.3238 27.5991 65.3238 27.5998 65.3238 27.6005C65.3238 27.6011 65.3238 27.6018 65.3238 27.6025C65.3238 27.6032 65.3238 27.6038 65.3238 27.6045C65.3238 27.6052 65.3238 27.6058 65.3238 27.6065C65.3238 27.6072 65.3238 27.6078 65.3238 27.6085C65.3238 27.6092 65.3238 27.6098 65.3238 27.6105C65.3238 27.6112 65.3238 27.6118 65.3238 27.6125C65.3238 27.6132 65.3238 27.6139 65.3238 27.6145C65.3238 27.6152 65.3238 27.6159 65.3238 27.6165C65.3238 27.6172 65.3238 27.6178 65.3238 27.6185C65.3238 27.6192 65.3238 27.6198 65.3238 27.6205C65.3238 27.6212 65.3238 27.6218 65.3238 27.6225C65.3238 27.6232 65.3238 27.6238 65.3238 27.6245C65.3238 27.6252 65.3238 27.6258 65.3238 27.6265C65.3238 27.6271 65.3238 27.6278 65.3238 27.6285C65.3238 27.6291 65.3238 27.6298 65.3238 27.6305C65.3238 27.6311 65.3238 27.6318 65.3238 27.6324C65.3238 27.6331 65.3238 27.6338 65.3238 27.6344C65.3238 27.6351 65.3238 27.6357 65.3238 27.6364C65.3238 27.6371 65.3238 27.6377 65.3238 27.6384C65.3238 27.639 65.3238 27.6397 65.3238 27.6404C65.3238 27.641 65.3238 27.6417 65.3238 27.6423C65.3238 27.643 65.3238 27.6437 65.3238 27.6443C65.3238 27.645 65.3238 27.6456 65.3238 27.6463C65.3238 27.6469 65.3238 27.6476 65.3238 27.6483C65.3238 27.6489 65.3238 27.6496 65.3238 27.6502C65.3238 27.6509 65.3238 27.6515 65.3238 27.6522C65.3238 27.6529 65.3238 27.6535 65.3238 27.6542C65.3238 27.6548 65.3238 27.6555 65.3238 27.6561C65.3238 27.6568 65.3238 27.6574 65.3238 27.6581C65.3238 27.6587 65.3238 27.6594 65.3238 27.66C65.3238 27.6607 65.3238 27.6614 65.3238 27.662C65.3238 27.6627 65.3238 27.6633 65.3238 27.664C65.3238 27.6646 65.3238 27.6653 65.3238 27.6659C65.3238 27.6666 65.3238 27.6672 65.3238 27.6679C65.3238 27.6685 65.3238 27.6692 65.3238 27.6698C65.3238 27.6705 65.3238 27.6711 65.3238 27.6718C65.3238 27.6724 65.3238 27.6731 65.3238 27.6737C65.3238 27.6744 65.3238 27.675 65.3238 27.6757C65.3238 27.6763 65.3238 27.677 65.3238 27.6776C65.3238 27.6783 65.3238 27.6789 65.3238 27.6796C65.3238 27.6802 65.3238 27.6808 65.3238 27.6815C65.3238 27.6821 65.3238 27.6828 65.3238 27.6834C65.3238 27.6841 65.3238 27.6847 65.3238 27.6854C65.3238 27.686 65.3238 27.6867 65.3238 27.6873C65.3238 27.6879 65.3238 27.6886 65.3238 27.6892C65.3238 27.6899 65.3238 27.6905 65.3238 27.6912C65.3238 27.6918 65.3238 27.6925 65.3238 27.6931C65.3238 27.6937 65.3238 27.6944 65.3238 27.695C65.3238 27.6957 65.3238 27.6963 65.3238 27.697C65.3238 27.6976 65.3238 27.6982 65.3238 27.6989C65.3238 27.6995 65.3238 27.7002 65.3238 27.7008C65.3238 27.7014 65.3238 27.7021 65.3238 27.7027C65.3238 27.7034 65.3238 27.704 65.3238 27.7046C65.3238 27.7053 65.3238 27.7059 65.3238 27.7066C65.3238 27.7072 65.3238 27.7078 65.3238 27.7085C65.3238 27.7091 65.3238 27.7097 65.3238 27.7104C65.3238 27.711 65.3238 27.7117 65.3238 27.7123C65.3238 27.7129 65.3238 27.7136 65.3238 27.7142C65.3238 27.7148 65.3238 27.7155 65.3238 27.7161C65.3238 27.7168 65.3238 27.7174 65.3238 27.718C65.3238 27.7187 65.3238 27.7193 65.3238 27.7199C65.3238 27.7206 65.3238 27.7212 65.3238 27.7218C65.3238 27.7225 65.3238 27.7231 65.3238 27.7237C65.3238 27.7244 65.3238 27.725 65.3238 27.7256C65.3238 27.7263 65.3238 27.7269 65.3238 27.7275C65.3238 27.7282 65.3238 27.7288 65.3238 27.7294C65.3238 27.7301 65.3238 27.7307 65.3238 27.7313C65.3238 27.732 65.3238 27.7326 65.3238 27.7332C65.3238 27.7338 65.3238 27.7345 65.3238 27.7351C65.3238 27.7357 65.3238 27.7364 65.3238 27.737C65.3238 27.7376 65.3238 27.7383 65.3238 27.7389C65.3238 27.7395 65.3238 27.7401 65.3238 27.7408C65.3238 27.7414 65.3238 27.742 65.3238 27.7427C65.3238 27.7433 65.3238 27.7439 65.3238 27.7445C65.3238 27.7452 65.3238 27.7458 65.3238 27.7464C65.3238 27.747 65.3238 27.7477 65.3238 27.7483C65.3238 27.7489 65.3238 27.7495 65.3238 27.7502C65.3238 27.7508 65.3238 27.7514 65.3238 27.752C65.3238 27.7527 65.3238 27.7533 65.3238 27.7539C65.3238 27.7545 65.3238 27.7552 65.3238 27.7558C65.3238 27.7564 65.3238 27.757 65.3238 27.7577C65.3238 27.7583 65.3238 27.7589 65.3238 27.7595C65.3238 27.7602 65.3238 27.7608 65.3238 27.7614C65.3238 27.762 65.3238 27.7626 65.3238 27.7633C65.3238 27.7639 65.3238 27.7645 65.3238 27.7651C65.3238 27.7657 65.3238 27.7664 65.3238 27.767C65.3238 27.7676 65.3238 27.7682 65.3238 27.7688C65.3238 27.7695 65.3238 27.7701 65.3238 27.7707C65.3238 27.7713 65.3238 27.7719 65.3238 27.7726C65.3238 27.7732 65.3238 27.7738 65.3238 27.7744C65.3238 27.775 65.3238 27.7756 65.3238 27.7763C65.3238 27.7769 65.3238 27.7775 65.3238 27.7781C65.3238 27.7787 65.3238 27.7793 65.3238 27.78C65.3238 27.7806 65.3238 27.7812 65.3238 27.7818C65.3238 27.7824 65.3238 27.783 65.3238 27.7837C65.3238 27.7843 65.3238 27.7849 65.3238 27.7855C65.3238 27.7861 65.3238 27.7867 65.3238 27.7873C65.3238 27.7879 65.3238 27.7886 65.3238 27.7892C65.3238 27.7898 65.3238 27.7904 65.3238 27.791C65.3238 27.7916 65.3238 27.7922 65.3238 27.7928C65.3238 27.7935 65.3238 27.7941 65.3238 27.7947C65.3238 27.7953 65.3238 27.7959 65.3238 27.7965C65.3238 27.7971 65.3238 27.7977 65.3238 27.7983C65.3238 27.799 65.3238 27.7996 65.3238 27.8002C65.3238 27.8008 65.3238 27.8014 65.3238 27.802C65.3238 27.8026 65.3238 27.8032 65.3238 27.8038C65.3238 27.8044 65.3238 27.805 65.3238 27.8057C65.3238 27.8063 65.3238 27.8069 65.3238 27.8075C65.3238 27.8081 65.3238 27.8087 65.3238 27.8093C65.3238 27.8099 65.3238 27.8105 65.3238 27.8111C65.3238 27.8117 65.3238 27.8123 65.3238 27.8129C65.3238 27.8135 65.3238 27.8141 65.3238 27.8147H65.9998ZM65.9998 26.6538V23.0053H65.3238V26.6538H65.9998ZM65.9998 23.0053C65.9998 21.9026 65.8125 21.0354 65.3555 20.4978L64.8404 20.9355C65.1352 21.2824 65.3238 21.9409 65.3238 23.0053H65.9998ZM65.3555 20.4978C64.8907 19.951 64.1674 19.7153 63.2737 19.7153V20.3912C64.0605 20.3912 64.5534 20.5978 64.8404 20.9355L65.3555 20.4978ZM63.2737 19.7153H62.0133V20.3912H63.2737V19.7153ZM61.6753 20.0533V29.5063H62.3512V20.0533H61.6753ZM62.0133 29.1684H58.3647V29.8443H62.0133V29.1684ZM58.7027 29.5063V6.28825H58.0267V29.5063H58.7027ZM58.3647 6.62623H63.8707V5.95028H58.3647V6.62623ZM63.8707 6.62623C65.7305 6.62623 66.9902 7.06002 67.7386 7.84778L68.2287 7.38222C67.2965 6.40099 65.8143 5.95028 63.8707 5.95028V6.62623ZM67.7416 7.85094C68.5195 8.64875 68.9392 9.88589 68.9392 11.6284H69.6152C69.6152 9.78872 69.1725 8.35025 68.2256 7.37906L67.7416 7.85094ZM68.9392 11.6284V13.4527H69.6152V11.6284H68.9392ZM68.9392 13.4527C68.9392 15.7648 68.1761 17.1811 66.7447 17.857L67.0334 18.4683C68.7863 17.6405 69.6152 15.9169 69.6152 13.4527H68.9392ZM66.7622 18.4759C67.6124 18.82 68.1692 19.3743 68.4642 20.1414L69.0951 19.8988C68.7268 18.9412 68.0232 18.2571 67.0159 17.8494L66.7622 18.4759ZM68.4682 20.1513C68.7997 20.9386 68.9724 21.9194 68.9724 23.1048H69.6483C69.6483 21.8578 69.4672 20.7821 69.0912 19.8889L68.4682 20.1513ZM68.9724 23.1048V26.687H69.6483V23.1048H68.9724ZM68.9724 26.687C68.9724 27.2701 68.9948 27.7903 69.0404 28.2464L69.713 28.1791C69.6702 27.7507 69.6483 27.2538 69.6483 26.687H68.9724ZM69.0406 28.2481C69.0885 28.7029 69.2076 29.1644 69.3946 29.6319L70.0222 29.3808C69.8554 28.9638 69.7534 28.5629 69.7128 28.1774L69.0406 28.2481ZM69.7084 29.1684H65.9935V29.8443H69.7084V29.1684ZM61.6753 9.60512V16.7364H62.3512V9.60512H61.6753ZM62.0133 17.0744H63.4395V16.3984H62.0133V17.0744ZM63.4395 17.0744C64.1821 17.0744 64.8063 16.8818 65.2632 16.4518L64.8 15.9596C64.5051 16.2372 64.0678 16.3984 63.4395 16.3984V17.0744ZM65.2561 16.4583C65.7649 16.0061 65.9666 15.2394 65.9666 14.2819H65.2907C65.2907 15.1819 65.0943 15.6977 64.8071 15.9531L65.2561 16.4583ZM65.9666 14.2819V11.9933H65.2907V14.2819H65.9666ZM65.9666 11.9933C65.9666 11.1262 65.8097 10.421 65.4252 9.95414L64.9034 10.3838C65.138 10.6688 65.2907 11.1798 65.2907 11.9933H65.9666ZM65.4328 9.96369C65.0604 9.47672 64.4776 9.26715 63.7712 9.26715V9.9431C64.3473 9.9431 64.6933 10.1094 64.8958 10.3743L65.4328 9.96369ZM63.7712 9.26715H62.0133V9.9431H63.7712V9.26715ZM70.7149 6.28825V5.95028H70.3769V6.28825H70.7149ZM81.9922 6.28825H82.3302V5.95028H81.9922V6.28825ZM81.9922 9.60512V9.9431H82.3302V9.60512H81.9922ZM78.1778 9.60512V9.26715H77.8398V9.60512H78.1778ZM78.1778 29.5063V29.8443H78.5158V29.5063H78.1778ZM74.5293 29.5063H74.1913V29.8443H74.5293V29.5063ZM74.5293 9.60512H74.8672V9.26715H74.5293V9.60512ZM70.7149 9.60512H70.3769V9.9431H70.7149V9.60512ZM70.7149 6.62623H81.9922V5.95028H70.7149V6.62623ZM81.6542 6.28825V9.60512H82.3302V6.28825H81.6542ZM81.9922 9.26715H78.1778V9.9431H81.9922V9.26715ZM77.8398 9.60512V29.5063H78.5158V9.60512H77.8398ZM78.1778 29.1684H74.5293V29.8443H78.1778V29.1684ZM74.8672 29.5063V9.60512H74.1913V29.5063H74.8672ZM74.5293 9.26715H70.7149V9.9431H74.5293V9.26715ZM71.0528 9.60512V6.28825H70.3769V9.60512H71.0528Z" fill="black"/>
</svg>
