<svg width="79" height="32" viewBox="0 0 79 32" fill="none" xmlns="http://www.w3.org/2000/svg">
<rect x="0.3" y="0.3" width="78.4" height="31.4" stroke="white" stroke-width="0.6"/>
<path d="M5.29442 5.39068V4.89068H4.79442V5.39068H5.29442ZM15.3047 5.39068H15.8047V4.89068H15.3047V5.39068ZM15.3047 8.33487V8.83487H15.8047V8.33487H15.3047ZM11.9188 8.33487V7.83487H11.4188V8.33487H11.9188ZM11.9188 26V26.5H12.4188V26H11.9188ZM8.68024 26H8.18024V26.5H8.68024V26ZM8.68024 8.33487H9.18024V7.83487H8.68024V8.33487ZM5.29442 8.33487H4.79442V8.83487H5.29442V8.33487ZM5.29442 5.89068H15.3047V4.89068H5.29442V5.89068ZM14.8047 5.39068V8.33487H15.8047V5.39068H14.8047ZM15.3047 7.83487H11.9188V8.83487H15.3047V7.83487ZM11.4188 8.33487V26H12.4188V8.33487H11.4188ZM11.9188 25.5H8.68024V26.5H11.9188V25.5ZM9.18024 26V8.33487H8.18024V26H9.18024ZM8.68024 7.83487H5.29442V8.83487H8.68024V7.83487ZM5.79442 8.33487V5.39068H4.79442V8.33487H5.79442ZM20.0257 14.076H19.5257V14.576H20.0257V14.076ZM24.4714 14.076H24.9714V13.576H24.4714V14.076ZM24.4714 17.0202V17.5202H24.9714V17.0202H24.4714ZM20.0257 17.0202V16.5202H19.5257V17.0202H20.0257ZM20.0257 23.0558H19.5257V23.5558H20.0257V23.0558ZM25.6197 23.0558H26.1197V22.5558H25.6197V23.0558ZM25.6197 26V26.5H26.1197V26H25.6197ZM16.7871 26H16.2871V26.5H16.7871V26ZM16.7871 5.39068V4.89068H16.2871V5.39068H16.7871ZM25.6197 5.39068H26.1197V4.89068H25.6197V5.39068ZM25.6197 8.33487V8.83487H26.1197V8.33487H25.6197ZM20.0257 8.33487V7.83487H19.5257V8.33487H20.0257ZM20.0257 14.576H24.4714V13.576H20.0257V14.576ZM23.9714 14.076V17.0202H24.9714V14.076H23.9714ZM24.4714 16.5202H20.0257V17.5202H24.4714V16.5202ZM19.5257 17.0202V23.0558H20.5257V17.0202H19.5257ZM20.0257 23.5558H25.6197V22.5558H20.0257V23.5558ZM25.1197 23.0558V26H26.1197V23.0558H25.1197ZM25.6197 25.5H16.7871V26.5H25.6197V25.5ZM17.2871 26V5.39068H16.2871V26H17.2871ZM16.7871 5.89068H25.6197V4.89068H16.7871V5.89068ZM25.1197 5.39068V8.33487H26.1197V5.39068H25.1197ZM25.6197 7.83487H20.0257V8.83487H25.6197V7.83487ZM19.5257 8.33487V14.076H20.5257V8.33487H19.5257ZM31.8662 17.7857L32.333 17.6067L31.9398 16.5814L31.4246 17.5511L31.8662 17.7857ZM30.8652 19.67L30.4236 19.4354L30.3652 19.5454V19.67H30.8652ZM30.8652 26V26.5H31.3652V26H30.8652ZM27.6265 26H27.1265V26.5H27.6265V26ZM27.6265 5.39068V4.89068H27.1265V5.39068H27.6265ZM30.8652 5.39068H31.3652V4.89068H30.8652V5.39068ZM30.8652 14.3705H30.3652L31.3161 14.5863L30.8652 14.3705ZM35.1637 5.39068V4.89068H34.8487L34.7127 5.17479L35.1637 5.39068ZM38.3434 5.39068L38.7923 5.61083L39.1455 4.89068H38.3434V5.39068ZM33.8388 14.5765L33.3899 14.3564L33.2927 14.5546L33.3736 14.76L33.8388 14.5765ZM38.3434 26V26.5H39.078L38.8085 25.8166L38.3434 26ZM35.0165 26L34.5496 26.179L34.6727 26.5H35.0165V26ZM31.4246 17.5511L30.4236 19.4354L31.3067 19.9046L32.3077 18.0203L31.4246 17.5511ZM30.3652 19.67V26H31.3652V19.67H30.3652ZM30.8652 25.5H27.6265V26.5H30.8652V25.5ZM28.1265 26V5.39068H27.1265V26H28.1265ZM27.6265 5.89068H30.8652V4.89068H27.6265V5.89068ZM30.3652 5.39068V14.3705H31.3652V5.39068H30.3652ZM31.3161 14.5863L35.6147 5.60656L34.7127 5.17479L30.4142 14.1546L31.3161 14.5863ZM35.1637 5.89068H38.3434V4.89068H35.1637V5.89068ZM37.8945 5.17053L33.3899 14.3564L34.2877 14.7967L38.7923 5.61083L37.8945 5.17053ZM33.3736 14.76L37.8783 26.1834L38.8085 25.8166L34.3039 14.3931L33.3736 14.76ZM38.3434 25.5H35.0165V26.5H38.3434V25.5ZM35.4833 25.821L32.333 17.6067L31.3993 17.9648L34.5496 26.179L35.4833 25.821ZM50.2986 26V26.5H50.885L50.7924 25.921L50.2986 26ZM47.0306 26L46.5361 26.074L46.5998 26.5H47.0306V26ZM46.4712 22.2609L46.9657 22.1869L46.902 21.7609H46.4712V22.2609ZM42.4965 22.2609V21.7609H42.0658L42.002 22.1869L42.4965 22.2609ZM41.9371 26V26.5H42.3679L42.4316 26.074L41.9371 26ZM38.9635 26L38.4698 25.921L38.3772 26.5H38.9635V26ZM42.261 5.39068V4.89068H41.8346L41.7673 5.31168L42.261 5.39068ZM47.0012 5.39068L47.4949 5.31168L47.4275 4.89068H47.0012V5.39068ZM42.9087 19.4639L42.4142 19.3899L42.3283 19.9639H42.9087V19.4639ZM46.0296 19.4639V19.9639H46.61L46.5241 19.3899L46.0296 19.4639ZM44.4691 9.04147L44.9636 8.96744H43.9747L44.4691 9.04147ZM50.2986 25.5H47.0306V26.5H50.2986V25.5ZM47.5251 25.926L46.9657 22.1869L45.9767 22.3349L46.5361 26.074L47.5251 25.926ZM46.4712 21.7609H42.4965V22.7609H46.4712V21.7609ZM42.002 22.1869L41.4427 25.926L42.4316 26.074L42.991 22.3349L42.002 22.1869ZM41.9371 25.5H38.9635V26.5H41.9371V25.5ZM39.4572 26.079L42.7547 5.46967L41.7673 5.31168L38.4698 25.921L39.4572 26.079ZM42.261 5.89068H47.0012V4.89068H42.261V5.89068ZM46.5074 5.46967L49.8049 26.079L50.7924 25.921L47.4949 5.31168L46.5074 5.46967ZM42.9087 19.9639H46.0296V18.9639H42.9087V19.9639ZM46.5241 19.3899L44.9636 8.96744L43.9747 9.11551L45.5351 19.5379L46.5241 19.3899ZM43.9747 8.96744L42.4142 19.3899L43.4032 19.5379L44.9636 9.11551L43.9747 8.96744ZM58.5785 26L58.0977 26.1374L58.2013 26.5H58.5785V26ZM58.4607 25.6173L57.9864 25.7754L57.9864 25.7754L58.4607 25.6173ZM58.3429 25.1756L57.846 25.2308L57.849 25.2577L57.8549 25.2841L58.3429 25.1756ZM58.2841 24.4985H57.7841V24.5163L57.7853 24.5341L58.2841 24.4985ZM57.7836 18.1979L58.1645 17.8741L57.7836 18.1979ZM55.0455 17.6091V17.1091H54.5455V17.6091H55.0455ZM55.0455 26V26.5H55.5455V26H55.0455ZM51.8068 26H51.3068V26.5H51.8068V26ZM51.8068 5.39068V4.89068H51.3068V5.39068H51.8068ZM60.345 6.56836L59.9825 6.91276L59.987 6.91741L60.345 6.56836ZM59.3734 15.9309L59.1599 15.4788L58.1278 15.9661L59.1858 16.3943L59.3734 15.9309ZM61.0516 17.5796L60.5849 17.7591L60.5877 17.7664L60.5908 17.7736L61.0516 17.5796ZM61.5816 24.8518L61.084 24.9015L61.0843 24.9041L61.5816 24.8518ZM61.876 26V26.5H62.6145L62.3402 25.8143L61.876 26ZM55.0455 8.33487V7.83487H54.5455V8.33487H55.0455ZM55.0455 14.6649H54.5455V15.1649H55.0455V14.6649ZM57.7247 14.1938L57.3925 13.8201L57.3872 13.8248L57.382 13.8297L57.7247 14.1938ZM57.8424 8.83538L57.4453 9.13911L57.4507 9.14627L57.4565 9.15323L57.8424 8.83538ZM59.0592 25.8626C59.0183 25.7193 58.9769 25.5847 58.9351 25.4591L57.9864 25.7754C58.023 25.8853 58.0602 26.0059 58.0977 26.1374L59.0592 25.8626ZM58.9351 25.4591C58.9031 25.3632 58.8681 25.2339 58.831 25.0672L57.8549 25.2841C57.8963 25.4707 57.9398 25.6358 57.9864 25.7754L58.9351 25.4591ZM58.8399 25.1204C58.8213 24.9528 58.8022 24.7342 58.7828 24.4628L57.7853 24.5341C57.8052 24.8123 57.8254 25.0452 57.846 25.2308L58.8399 25.1204ZM58.7841 24.4985C58.7841 24.4979 58.7841 24.4974 58.7841 24.4969C58.7841 24.4963 58.7841 24.4958 58.7841 24.4952C58.7841 24.4947 58.7841 24.4942 58.7841 24.4936C58.7841 24.4931 58.7841 24.4925 58.7841 24.492C58.7841 24.4915 58.7841 24.4909 58.7841 24.4904C58.7841 24.4899 58.7841 24.4893 58.7841 24.4888C58.7841 24.4882 58.7841 24.4877 58.7841 24.4872C58.7841 24.4866 58.7841 24.4861 58.7841 24.4855C58.7841 24.485 58.7841 24.4845 58.7841 24.4839C58.7841 24.4834 58.7841 24.4828 58.7841 24.4823C58.7841 24.4817 58.7841 24.4812 58.7841 24.4807C58.7841 24.4801 58.7841 24.4796 58.7841 24.479C58.7841 24.4785 58.7841 24.4779 58.7841 24.4774C58.7841 24.4769 58.7841 24.4763 58.7841 24.4758C58.7841 24.4752 58.7841 24.4747 58.7841 24.4741C58.7841 24.4736 58.7841 24.473 58.7841 24.4725C58.7841 24.472 58.7841 24.4714 58.7841 24.4709C58.7841 24.4703 58.7841 24.4698 58.7841 24.4692C58.7841 24.4687 58.7841 24.4681 58.7841 24.4676C58.7841 24.467 58.7841 24.4665 58.7841 24.4659C58.7841 24.4654 58.7841 24.4649 58.7841 24.4643C58.7841 24.4638 58.7841 24.4632 58.7841 24.4627C58.7841 24.4621 58.7841 24.4616 58.7841 24.461C58.7841 24.4605 58.7841 24.4599 58.7841 24.4594C58.7841 24.4588 58.7841 24.4583 58.7841 24.4577C58.7841 24.4572 58.7841 24.4566 58.7841 24.4561C58.7841 24.4555 58.7841 24.455 58.7841 24.4544C58.7841 24.4539 58.7841 24.4533 58.7841 24.4528C58.7841 24.4522 58.7841 24.4517 58.7841 24.4511C58.7841 24.4506 58.7841 24.45 58.7841 24.4495C58.7841 24.4489 58.7841 24.4483 58.7841 24.4478C58.7841 24.4472 58.7841 24.4467 58.7841 24.4461C58.7841 24.4456 58.7841 24.445 58.7841 24.4445C58.7841 24.4439 58.7841 24.4434 58.7841 24.4428C58.7841 24.4423 58.7841 24.4417 58.7841 24.4411C58.7841 24.4406 58.7841 24.44 58.7841 24.4395C58.7841 24.4389 58.7841 24.4384 58.7841 24.4378C58.7841 24.4373 58.7841 24.4367 58.7841 24.4361C58.7841 24.4356 58.7841 24.435 58.7841 24.4345C58.7841 24.4339 58.7841 24.4334 58.7841 24.4328C58.7841 24.4322 58.7841 24.4317 58.7841 24.4311C58.7841 24.4306 58.7841 24.43 58.7841 24.4295C58.7841 24.4289 58.7841 24.4283 58.7841 24.4278C58.7841 24.4272 58.7841 24.4267 58.7841 24.4261C58.7841 24.4255 58.7841 24.425 58.7841 24.4244C58.7841 24.4239 58.7841 24.4233 58.7841 24.4227C58.7841 24.4222 58.7841 24.4216 58.7841 24.4211C58.7841 24.4205 58.7841 24.4199 58.7841 24.4194C58.7841 24.4188 58.7841 24.4182 58.7841 24.4177C58.7841 24.4171 58.7841 24.4166 58.7841 24.416C58.7841 24.4154 58.7841 24.4149 58.7841 24.4143C58.7841 24.4137 58.7841 24.4132 58.7841 24.4126C58.7841 24.412 58.7841 24.4115 58.7841 24.4109C58.7841 24.4104 58.7841 24.4098 58.7841 24.4092C58.7841 24.4087 58.7841 24.4081 58.7841 24.4075C58.7841 24.407 58.7841 24.4064 58.7841 24.4058C58.7841 24.4053 58.7841 24.4047 58.7841 24.4041C58.7841 24.4036 58.7841 24.403 58.7841 24.4024C58.7841 24.4019 58.7841 24.4013 58.7841 24.4007C58.7841 24.4002 58.7841 24.3996 58.7841 24.399C58.7841 24.3985 58.7841 24.3979 58.7841 24.3973C58.7841 24.3968 58.7841 24.3962 58.7841 24.3956C58.7841 24.395 58.7841 24.3945 58.7841 24.3939C58.7841 24.3933 58.7841 24.3928 58.7841 24.3922C58.7841 24.3916 58.7841 24.3911 58.7841 24.3905C58.7841 24.3899 58.7841 24.3893 58.7841 24.3888C58.7841 24.3882 58.7841 24.3876 58.7841 24.3871C58.7841 24.3865 58.7841 24.3859 58.7841 24.3853C58.7841 24.3848 58.7841 24.3842 58.7841 24.3836C58.7841 24.3831 58.7841 24.3825 58.7841 24.3819C58.7841 24.3813 58.7841 24.3808 58.7841 24.3802C58.7841 24.3796 58.7841 24.379 58.7841 24.3785C58.7841 24.3779 58.7841 24.3773 58.7841 24.3767C58.7841 24.3762 58.7841 24.3756 58.7841 24.375C58.7841 24.3744 58.7841 24.3739 58.7841 24.3733C58.7841 24.3727 58.7841 24.3721 58.7841 24.3716C58.7841 24.371 58.7841 24.3704 58.7841 24.3698C58.7841 24.3692 58.7841 24.3687 58.7841 24.3681C58.7841 24.3675 58.7841 24.3669 58.7841 24.3664C58.7841 24.3658 58.7841 24.3652 58.7841 24.3646C58.7841 24.364 58.7841 24.3635 58.7841 24.3629C58.7841 24.3623 58.7841 24.3617 58.7841 24.3611C58.7841 24.3606 58.7841 24.36 58.7841 24.3594C58.7841 24.3588 58.7841 24.3582 58.7841 24.3577C58.7841 24.3571 58.7841 24.3565 58.7841 24.3559C58.7841 24.3553 58.7841 24.3548 58.7841 24.3542C58.7841 24.3536 58.7841 24.353 58.7841 24.3524C58.7841 24.3519 58.7841 24.3513 58.7841 24.3507C58.7841 24.3501 58.7841 24.3495 58.7841 24.3489C58.7841 24.3484 58.7841 24.3478 58.7841 24.3472C58.7841 24.3466 58.7841 24.346 58.7841 24.3454C58.7841 24.3448 58.7841 24.3443 58.7841 24.3437C58.7841 24.3431 58.7841 24.3425 58.7841 24.3419C58.7841 24.3413 58.7841 24.3408 58.7841 24.3402C58.7841 24.3396 58.7841 24.339 58.7841 24.3384C58.7841 24.3378 58.7841 24.3372 58.7841 24.3366C58.7841 24.3361 58.7841 24.3355 58.7841 24.3349C58.7841 24.3343 58.7841 24.3337 58.7841 24.3331C58.7841 24.3325 58.7841 24.3319 58.7841 24.3314C58.7841 24.3308 58.7841 24.3302 58.7841 24.3296C58.7841 24.329 58.7841 24.3284 58.7841 24.3278C58.7841 24.3272 58.7841 24.3266 58.7841 24.3261C58.7841 24.3255 58.7841 24.3249 58.7841 24.3243C58.7841 24.3237 58.7841 24.3231 58.7841 24.3225C58.7841 24.3219 58.7841 24.3213 58.7841 24.3207C58.7841 24.3201 58.7841 24.3196 58.7841 24.319C58.7841 24.3184 58.7841 24.3178 58.7841 24.3172C58.7841 24.3166 58.7841 24.316 58.7841 24.3154C58.7841 24.3148 58.7841 24.3142 58.7841 24.3136C58.7841 24.313 58.7841 24.3124 58.7841 24.3118C58.7841 24.3112 58.7841 24.3107 58.7841 24.3101C58.7841 24.3095 58.7841 24.3089 58.7841 24.3083C58.7841 24.3077 58.7841 24.3071 58.7841 24.3065C58.7841 24.3059 58.7841 24.3053 58.7841 24.3047C58.7841 24.3041 58.7841 24.3035 58.7841 24.3029C58.7841 24.3023 58.7841 24.3017 58.7841 24.3011C58.7841 24.3005 58.7841 24.2999 58.7841 24.2993C58.7841 24.2987 58.7841 24.2981 58.7841 24.2975C58.7841 24.2969 58.7841 24.2963 58.7841 24.2957C58.7841 24.2951 58.7841 24.2945 58.7841 24.2939C58.7841 24.2933 58.7841 24.2927 58.7841 24.2921C58.7841 24.2915 58.7841 24.2909 58.7841 24.2903C58.7841 24.2897 58.7841 24.2891 58.7841 24.2885C58.7841 24.2879 58.7841 24.2873 58.7841 24.2867C58.7841 24.2861 58.7841 24.2855 58.7841 24.2849C58.7841 24.2843 58.7841 24.2837 58.7841 24.2831C58.7841 24.2825 58.7841 24.2819 58.7841 24.2813C58.7841 24.2807 58.7841 24.2801 58.7841 24.2795C58.7841 24.2789 58.7841 24.2783 58.7841 24.2777C58.7841 24.2771 58.7841 24.2765 58.7841 24.2759C58.7841 24.2753 58.7841 24.2747 58.7841 24.274C58.7841 24.2734 58.7841 24.2728 58.7841 24.2722C58.7841 24.2716 58.7841 24.271 58.7841 24.2704C58.7841 24.2698 58.7841 24.2692 58.7841 24.2686C58.7841 24.268 58.7841 24.2674 58.7841 24.2668C58.7841 24.2662 58.7841 24.2656 58.7841 24.2649C58.7841 24.2643 58.7841 24.2637 58.7841 24.2631C58.7841 24.2625 58.7841 24.2619 58.7841 24.2613C58.7841 24.2607 58.7841 24.2601 58.7841 24.2595C58.7841 24.2589 58.7841 24.2583 58.7841 24.2576C58.7841 24.257 58.7841 24.2564 58.7841 24.2558C58.7841 24.2552 58.7841 24.2546 58.7841 24.254C58.7841 24.2534 58.7841 24.2528 58.7841 24.2521C58.7841 24.2515 58.7841 24.2509 58.7841 24.2503C58.7841 24.2497 58.7841 24.2491 58.7841 24.2485C58.7841 24.2479 58.7841 24.2472 58.7841 24.2466C58.7841 24.246 58.7841 24.2454 58.7841 24.2448C58.7841 24.2442 58.7841 24.2436 58.7841 24.2429C58.7841 24.2423 58.7841 24.2417 58.7841 24.2411C58.7841 24.2405 58.7841 24.2399 58.7841 24.2393C58.7841 24.2386 58.7841 24.238 58.7841 24.2374C58.7841 24.2368 58.7841 24.2362 58.7841 24.2356C58.7841 24.2349 58.7841 24.2343 58.7841 24.2337C58.7841 24.2331 58.7841 24.2325 58.7841 24.2319C58.7841 24.2312 58.7841 24.2306 58.7841 24.23C58.7841 24.2294 58.7841 24.2288 58.7841 24.2282C58.7841 24.2275 58.7841 24.2269 58.7841 24.2263C58.7841 24.2257 58.7841 24.2251 58.7841 24.2244C58.7841 24.2238 58.7841 24.2232 58.7841 24.2226C58.7841 24.222 58.7841 24.2213 58.7841 24.2207C58.7841 24.2201 58.7841 24.2195 58.7841 24.2189C58.7841 24.2182 58.7841 24.2176 58.7841 24.217C58.7841 24.2164 58.7841 24.2158 58.7841 24.2151C58.7841 24.2145 58.7841 24.2139 58.7841 24.2133C58.7841 24.2126 58.7841 24.212 58.7841 24.2114C58.7841 24.2108 58.7841 24.2101 58.7841 24.2095C58.7841 24.2089 58.7841 24.2083 58.7841 24.2077C58.7841 24.207 58.7841 24.2064 58.7841 24.2058C58.7841 24.2052 58.7841 24.2045 58.7841 24.2039C58.7841 24.2033 58.7841 24.2027 58.7841 24.202C58.7841 24.2014 58.7841 24.2008 58.7841 24.2001C58.7841 24.1995 58.7841 24.1989 58.7841 24.1983C58.7841 24.1976 58.7841 24.197 58.7841 24.1964C58.7841 24.1958 58.7841 24.1951 58.7841 24.1945C58.7841 24.1939 58.7841 24.1932 58.7841 24.1926C58.7841 24.192 58.7841 24.1914 58.7841 24.1907C58.7841 24.1901 58.7841 24.1895 58.7841 24.1888C58.7841 24.1882 58.7841 24.1876 58.7841 24.187C58.7841 24.1863 58.7841 24.1857 58.7841 24.1851C58.7841 24.1844 58.7841 24.1838 58.7841 24.1832C58.7841 24.1825 58.7841 24.1819 58.7841 24.1813C58.7841 24.1806 58.7841 24.18 58.7841 24.1794C58.7841 24.1788 58.7841 24.1781 58.7841 24.1775C58.7841 24.1769 58.7841 24.1762 58.7841 24.1756C58.7841 24.175 58.7841 24.1743 58.7841 24.1737C58.7841 24.1731 58.7841 24.1724 58.7841 24.1718C58.7841 24.1712 58.7841 24.1705 58.7841 24.1699C58.7841 24.1692 58.7841 24.1686 58.7841 24.168C58.7841 24.1673 58.7841 24.1667 58.7841 24.1661C58.7841 24.1654 58.7841 24.1648 58.7841 24.1642C58.7841 24.1635 58.7841 24.1629 58.7841 24.1623C58.7841 24.1616 58.7841 24.161 58.7841 24.1603C58.7841 24.1597 58.7841 24.1591 58.7841 24.1584C58.7841 24.1578 58.7841 24.1572 58.7841 24.1565C58.7841 24.1559 58.7841 24.1552 58.7841 24.1546C58.7841 24.154 58.7841 24.1533 58.7841 24.1527C58.7841 24.152 58.7841 24.1514 58.7841 24.1508C58.7841 24.1501 58.7841 24.1495 58.7841 24.1488C58.7841 24.1482 58.7841 24.1476 58.7841 24.1469C58.7841 24.1463 58.7841 24.1456 58.7841 24.145C58.7841 24.1444 58.7841 24.1437 58.7841 24.1431C58.7841 24.1424 58.7841 24.1418 58.7841 24.1411C58.7841 24.1405 58.7841 24.1399 58.7841 24.1392C58.7841 24.1386 58.7841 24.1379 58.7841 24.1373C58.7841 24.1366 58.7841 24.136 58.7841 24.1354C58.7841 24.1347 58.7841 24.1341 58.7841 24.1334C58.7841 24.1328 58.7841 24.1321 58.7841 24.1315C58.7841 24.1308 58.7841 24.1302 58.7841 24.1295C58.7841 24.1289 58.7841 24.1283 58.7841 24.1276C58.7841 24.127 58.7841 24.1263 58.7841 24.1257C58.7841 24.125 58.7841 24.1244 58.7841 24.1237C58.7841 24.1231 58.7841 24.1224 58.7841 24.1218C58.7841 24.1211 58.7841 24.1205 58.7841 24.1198C58.7841 24.1192 58.7841 24.1185 58.7841 24.1179C58.7841 24.1172 58.7841 24.1166 58.7841 24.116C58.7841 24.1153 58.7841 24.1147 58.7841 24.114C58.7841 24.1134 58.7841 24.1127 58.7841 24.1121C58.7841 24.1114 58.7841 24.1107 58.7841 24.1101C58.7841 24.1094 58.7841 24.1088 58.7841 24.1081C58.7841 24.1075 58.7841 24.1068 58.7841 24.1062C58.7841 24.1055 58.7841 24.1049 58.7841 24.1042C58.7841 24.1036 58.7841 24.1029 58.7841 24.1023C58.7841 24.1016 58.7841 24.101 58.7841 24.1003C58.7841 24.0997 58.7841 24.099 58.7841 24.0984C58.7841 24.0977 58.7841 24.097 58.7841 24.0964C58.7841 24.0957 58.7841 24.0951 58.7841 24.0944C58.7841 24.0938 58.7841 24.0931 58.7841 24.0925C58.7841 24.0918 58.7841 24.0911 58.7841 24.0905C58.7841 24.0898 58.7841 24.0892 58.7841 24.0885C58.7841 24.0879 58.7841 24.0872 58.7841 24.0866C58.7841 24.0859 58.7841 24.0852 58.7841 24.0846C58.7841 24.0839 58.7841 24.0833 58.7841 24.0826C58.7841 24.0819 58.7841 24.0813 58.7841 24.0806C58.7841 24.08 58.7841 24.0793 58.7841 24.0787C58.7841 24.078 58.7841 24.0773 58.7841 24.0767C58.7841 24.076 58.7841 24.0754 58.7841 24.0747C58.7841 24.074 58.7841 24.0734 58.7841 24.0727C58.7841 24.072 58.7841 24.0714 58.7841 24.0707C58.7841 24.0701 58.7841 24.0694 58.7841 24.0687C58.7841 24.0681 58.7841 24.0674 58.7841 24.0668C58.7841 24.0661 58.7841 24.0654 58.7841 24.0648C58.7841 24.0641 58.7841 24.0634 58.7841 24.0628C58.7841 24.0621 58.7841 24.0614 58.7841 24.0608C58.7841 24.0601 58.7841 24.0595 58.7841 24.0588C58.7841 24.0581 58.7841 24.0575 58.7841 24.0568C58.7841 24.0561 58.7841 24.0555 58.7841 24.0548C58.7841 24.0541 58.7841 24.0535 58.7841 24.0528C58.7841 24.0521 58.7841 24.0515 58.7841 24.0508C58.7841 24.0501 58.7841 24.0495 58.7841 24.0488C58.7841 24.0481 58.7841 24.0475 58.7841 24.0468C58.7841 24.0461 58.7841 24.0455 58.7841 24.0448C58.7841 24.0441 58.7841 24.0435 58.7841 24.0428C58.7841 24.0421 58.7841 24.0415 58.7841 24.0408C58.7841 24.0401 58.7841 24.0394 58.7841 24.0388C58.7841 24.0381 58.7841 24.0374 58.7841 24.0368C58.7841 24.0361 58.7841 24.0354 58.7841 24.0348C58.7841 24.0341 58.7841 24.0334 58.7841 24.0327C58.7841 24.0321 58.7841 24.0314 58.7841 24.0307C58.7841 24.0301 58.7841 24.0294 58.7841 24.0287C58.7841 24.028 58.7841 24.0274 58.7841 24.0267C58.7841 24.026 58.7841 24.0253 58.7841 24.0247C58.7841 24.024 58.7841 24.0233 58.7841 24.0226C58.7841 24.022 58.7841 24.0213 58.7841 24.0206C58.7841 24.02 58.7841 24.0193 58.7841 24.0186C58.7841 24.0179 58.7841 24.0173 58.7841 24.0166C58.7841 24.0159 58.7841 24.0152 58.7841 24.0145C58.7841 24.0139 58.7841 24.0132 58.7841 24.0125C58.7841 24.0118 58.7841 24.0112 58.7841 24.0105C58.7841 24.0098 58.7841 24.0091 58.7841 24.0085C58.7841 24.0078 58.7841 24.0071 58.7841 24.0064C58.7841 24.0057 58.7841 24.0051 58.7841 24.0044C58.7841 24.0037 58.7841 24.003 58.7841 24.0024C58.7841 24.0017 58.7841 24.001 58.7841 24.0003C58.7841 23.9996 58.7841 23.999 58.7841 23.9983C58.7841 23.9976 58.7841 23.9969 58.7841 23.9962C58.7841 23.9955 58.7841 23.9949 58.7841 23.9942C58.7841 23.9935 58.7841 23.9928 58.7841 23.9921C58.7841 23.9915 58.7841 23.9908 58.7841 23.9901C58.7841 23.9894 58.7841 23.9887 58.7841 23.988C58.7841 23.9874 58.7841 23.9867 58.7841 23.986C58.7841 23.9853 58.7841 23.9846 58.7841 23.9839C58.7841 23.9833 58.7841 23.9826 58.7841 23.9819C58.7841 23.9812 58.7841 23.9805 58.7841 23.9798C58.7841 23.9792 58.7841 23.9785 58.7841 23.9778C58.7841 23.9771 58.7841 23.9764 58.7841 23.9757C58.7841 23.975 58.7841 23.9744 58.7841 23.9737C58.7841 23.973 58.7841 23.9723 58.7841 23.9716C58.7841 23.9709 58.7841 23.9702 58.7841 23.9695C58.7841 23.9689 58.7841 23.9682 58.7841 23.9675C58.7841 23.9668 58.7841 23.9661 58.7841 23.9654C58.7841 23.9647 58.7841 23.964 58.7841 23.9633C58.7841 23.9627 58.7841 23.962 58.7841 23.9613C58.7841 23.9606 58.7841 23.9599 58.7841 23.9592C58.7841 23.9585 58.7841 23.9578 58.7841 23.9571C58.7841 23.9564 58.7841 23.9558 58.7841 23.9551C58.7841 23.9544 58.7841 23.9537 58.7841 23.953C58.7841 23.9523 58.7841 23.9516 58.7841 23.9509C58.7841 23.9502 58.7841 23.9495 58.7841 23.9488C58.7841 23.9481 58.7841 23.9475 58.7841 23.9468C58.7841 23.9461 58.7841 23.9454 58.7841 23.9447C58.7841 23.944 58.7841 23.9433 58.7841 23.9426C58.7841 23.9419 58.7841 23.9412 58.7841 23.9405C58.7841 23.9398 58.7841 23.9391 58.7841 23.9384C58.7841 23.9377 58.7841 23.937 58.7841 23.9363C58.7841 23.9356 58.7841 23.9349 58.7841 23.9342C58.7841 23.9336 58.7841 23.9329 58.7841 23.9322C58.7841 23.9315 58.7841 23.9308 58.7841 23.9301C58.7841 23.9294 58.7841 23.9287 58.7841 23.928C58.7841 23.9273 58.7841 23.9266 58.7841 23.9259C58.7841 23.9252 58.7841 23.9245 58.7841 23.9238C58.7841 23.9231 58.7841 23.9224 58.7841 23.9217C58.7841 23.921 58.7841 23.9203 58.7841 23.9196C58.7841 23.9189 58.7841 23.9182 58.7841 23.9175C58.7841 23.9168 58.7841 23.9161 58.7841 23.9154C58.7841 23.9147 58.7841 23.914 58.7841 23.9133C58.7841 23.9126 58.7841 23.9119 58.7841 23.9112C58.7841 23.9105 58.7841 23.9098 58.7841 23.9091C58.7841 23.9084 58.7841 23.9077 58.7841 23.9069C58.7841 23.9062 58.7841 23.9055 58.7841 23.9048C58.7841 23.9041 58.7841 23.9034 58.7841 23.9027C58.7841 23.902 58.7841 23.9013 58.7841 23.9006C58.7841 23.8999 58.7841 23.8992 58.7841 23.8985C58.7841 23.8978 58.7841 23.8971 58.7841 23.8964C58.7841 23.8957 58.7841 23.895 58.7841 23.8943C58.7841 23.8936 58.7841 23.8928 58.7841 23.8921C58.7841 23.8914 58.7841 23.8907 58.7841 23.89C58.7841 23.8893 58.7841 23.8886 58.7841 23.8879C58.7841 23.8872 58.7841 23.8865 58.7841 23.8858C58.7841 23.8851 58.7841 23.8844 58.7841 23.8836C58.7841 23.8829 58.7841 23.8822 58.7841 23.8815C58.7841 23.8808 58.7841 23.8801 58.7841 23.8794C58.7841 23.8787 58.7841 23.878 58.7841 23.8773C58.7841 23.8765 58.7841 23.8758 58.7841 23.8751C58.7841 23.8744 58.7841 23.8737 58.7841 23.873C58.7841 23.8723 58.7841 23.8716 58.7841 23.8708C58.7841 23.8701 58.7841 23.8694 58.7841 23.8687C58.7841 23.868 58.7841 23.8673 58.7841 23.8666C58.7841 23.8659 58.7841 23.8651 58.7841 23.8644C58.7841 23.8637 58.7841 23.863 58.7841 23.8623C58.7841 23.8616 58.7841 23.8609 58.7841 23.8601C58.7841 23.8594 58.7841 23.8587 58.7841 23.858C58.7841 23.8573 58.7841 23.8566 58.7841 23.8559C58.7841 23.8551 58.7841 23.8544 58.7841 23.8537C58.7841 23.853 58.7841 23.8523 58.7841 23.8516C58.7841 23.8508 58.7841 23.8501 58.7841 23.8494C58.7841 23.8487 58.7841 23.848 58.7841 23.8472C58.7841 23.8465 58.7841 23.8458 58.7841 23.8451C58.7841 23.8444 58.7841 23.8437 58.7841 23.8429C58.7841 23.8422 58.7841 23.8415 58.7841 23.8408C58.7841 23.8401 58.7841 23.8393 58.7841 23.8386C58.7841 23.8379 58.7841 23.8372 58.7841 23.8365C58.7841 23.8357 58.7841 23.835 58.7841 23.8343C58.7841 23.8336 58.7841 23.8329 58.7841 23.8321C58.7841 23.8314 58.7841 23.8307 58.7841 23.83C58.7841 23.8292 58.7841 23.8285 58.7841 23.8278C58.7841 23.8271 58.7841 23.8264 58.7841 23.8256C58.7841 23.8249 58.7841 23.8242 58.7841 23.8235C58.7841 23.8227 58.7841 23.822 58.7841 23.8213C58.7841 23.8206 58.7841 23.8198 58.7841 23.8191C58.7841 23.8184 58.7841 23.8177 58.7841 23.8169C58.7841 23.8162 58.7841 23.8155 58.7841 23.8148C58.7841 23.814 58.7841 23.8133 58.7841 23.8126C58.7841 23.8119 58.7841 23.8111 58.7841 23.8104C58.7841 23.8097 58.7841 23.8089 58.7841 23.8082C58.7841 23.8075 58.7841 23.8068 58.7841 23.806C58.7841 23.8053 58.7841 23.8046 58.7841 23.8039C58.7841 23.8031 58.7841 23.8024 58.7841 23.8017C58.7841 23.8009 58.7841 23.8002 58.7841 23.7995C58.7841 23.7987 58.7841 23.798 58.7841 23.7973C58.7841 23.7966 58.7841 23.7958 58.7841 23.7951C58.7841 23.7944 58.7841 23.7936 58.7841 23.7929C58.7841 23.7922 58.7841 23.7914 58.7841 23.7907C58.7841 23.79 58.7841 23.7892 58.7841 23.7885C58.7841 23.7878 58.7841 23.787 58.7841 23.7863C58.7841 23.7856 58.7841 23.7849 58.7841 23.7841C58.7841 23.7834 58.7841 23.7827 58.7841 23.7819C58.7841 23.7812 58.7841 23.7804 58.7841 23.7797C58.7841 23.779 58.7841 23.7782 58.7841 23.7775C58.7841 23.7768 58.7841 23.776 58.7841 23.7753C58.7841 23.7746 58.7841 23.7738 58.7841 23.7731C58.7841 23.7724 58.7841 23.7716 58.7841 23.7709C58.7841 23.7702 58.7841 23.7694 58.7841 23.7687C58.7841 23.7679 58.7841 23.7672 58.7841 23.7665C58.7841 23.7657 58.7841 23.765 58.7841 23.7643C58.7841 23.7635 58.7841 23.7628 58.7841 23.762C58.7841 23.7613 58.7841 23.7606 58.7841 23.7598C58.7841 23.7591 58.7841 23.7583 58.7841 23.7576C58.7841 23.7569 58.7841 23.7561 58.7841 23.7554C58.7841 23.7546 58.7841 23.7539 58.7841 23.7532C58.7841 23.7524 58.7841 23.7517 58.7841 23.7509C58.7841 23.7502 58.7841 23.7495 58.7841 23.7487C58.7841 23.748 58.7841 23.7472 58.7841 23.7465C58.7841 23.7458 58.7841 23.745 58.7841 23.7443C58.7841 23.7435 58.7841 23.7428 58.7841 23.742C58.7841 23.7413 58.7841 23.7406 58.7841 23.7398C58.7841 23.7391 58.7841 23.7383 58.7841 23.7376C58.7841 23.7368 58.7841 23.7361 58.7841 23.7353C58.7841 23.7346 58.7841 23.7339 58.7841 23.7331C58.7841 23.7324 58.7841 23.7316 58.7841 23.7309C58.7841 23.7301 58.7841 23.7294 58.7841 23.7286C58.7841 23.7279 58.7841 23.7271 58.7841 23.7264C58.7841 23.7256 58.7841 23.7249 58.7841 23.7242C58.7841 23.7234 58.7841 23.7227 58.7841 23.7219C58.7841 23.7212 58.7841 23.7204 58.7841 23.7197C58.7841 23.7189 58.7841 23.7182 58.7841 23.7174C58.7841 23.7167 58.7841 23.7159 58.7841 23.7152C58.7841 23.7144 58.7841 23.7137 58.7841 23.7129C58.7841 23.7122 58.7841 23.7114 58.7841 23.7107C58.7841 23.7099 58.7841 23.7092 58.7841 23.7084C58.7841 23.7077 58.7841 23.7069 58.7841 23.7062C58.7841 23.7054 58.7841 23.7047 58.7841 23.7039C58.7841 23.7032 58.7841 23.7024 58.7841 23.7017C58.7841 23.7009 58.7841 23.7001 58.7841 23.6994C58.7841 23.6986 58.7841 23.6979 58.7841 23.6971C58.7841 23.6964 58.7841 23.6956 58.7841 23.6949C58.7841 23.6941 58.7841 23.6934 58.7841 23.6926C58.7841 23.6919 58.7841 23.6911 58.7841 23.6903C58.7841 23.6896 58.7841 23.6888 58.7841 23.6881C58.7841 23.6873 58.7841 23.6866 58.7841 23.6858C58.7841 23.6851 58.7841 23.6843 58.7841 23.6835C58.7841 23.6828 58.7841 23.682 58.7841 23.6813C58.7841 23.6805 58.7841 23.6798 58.7841 23.679C58.7841 23.6782 58.7841 23.6775 58.7841 23.6767C58.7841 23.676 58.7841 23.6752 58.7841 23.6744C58.7841 23.6737 58.7841 23.6729 58.7841 23.6722C58.7841 23.6714 58.7841 23.6706 58.7841 23.6699C58.7841 23.6691 58.7841 23.6684 58.7841 23.6676C58.7841 23.6668 58.7841 23.6661 58.7841 23.6653C58.7841 23.6646 58.7841 23.6638 58.7841 23.663C58.7841 23.6623 58.7841 23.6615 58.7841 23.6608C58.7841 23.66 58.7841 23.6592 58.7841 23.6585C58.7841 23.6577 58.7841 23.6569 58.7841 23.6562C58.7841 23.6554 58.7841 23.6547 58.7841 23.6539C58.7841 23.6531 58.7841 23.6524 58.7841 23.6516C58.7841 23.6508 58.7841 23.6501 58.7841 23.6493C58.7841 23.6485 58.7841 23.6478 58.7841 23.647C58.7841 23.6462 58.7841 23.6455 58.7841 23.6447C58.7841 23.6439 58.7841 23.6432 58.7841 23.6424C58.7841 23.6416 58.7841 23.6409 58.7841 23.6401C58.7841 23.6393 58.7841 23.6386 58.7841 23.6378C58.7841 23.637 58.7841 23.6363 58.7841 23.6355C58.7841 23.6347 58.7841 23.634 58.7841 23.6332C58.7841 23.6324 58.7841 23.6317 58.7841 23.6309C58.7841 23.6301 58.7841 23.6294 58.7841 23.6286C58.7841 23.6278 58.7841 23.6271 58.7841 23.6263C58.7841 23.6255 58.7841 23.6247 58.7841 23.624C58.7841 23.6232 58.7841 23.6224 58.7841 23.6217C58.7841 23.6209 58.7841 23.6201 58.7841 23.6193C58.7841 23.6186 58.7841 23.6178 58.7841 23.617C58.7841 23.6163 58.7841 23.6155 58.7841 23.6147C58.7841 23.6139 58.7841 23.6132 58.7841 23.6124C58.7841 23.6116 58.7841 23.6109 58.7841 23.6101C58.7841 23.6093 58.7841 23.6085 58.7841 23.6078C58.7841 23.607 58.7841 23.6062 58.7841 23.6054C58.7841 23.6047 58.7841 23.6039 58.7841 23.6031C58.7841 23.6023 58.7841 23.6016 58.7841 23.6008C58.7841 23.6 58.7841 23.5992 58.7841 23.5985C58.7841 23.5977 58.7841 23.5969 58.7841 23.5961C58.7841 23.5953 58.7841 23.5946 58.7841 23.5938C58.7841 23.593 58.7841 23.5922 58.7841 23.5915C58.7841 23.5907 58.7841 23.5899 58.7841 23.5891C58.7841 23.5883 58.7841 23.5876 58.7841 23.5868C58.7841 23.586 58.7841 23.5852 58.7841 23.5845C58.7841 23.5837 58.7841 23.5829 58.7841 23.5821C58.7841 23.5813 58.7841 23.5806 58.7841 23.5798C58.7841 23.579 58.7841 23.5782 58.7841 23.5774C58.7841 23.5767 58.7841 23.5759 58.7841 23.5751C58.7841 23.5743 58.7841 23.5735 58.7841 23.5727C58.7841 23.572 58.7841 23.5712 58.7841 23.5704C58.7841 23.5696 58.7841 23.5688 58.7841 23.568C58.7841 23.5673 58.7841 23.5665 58.7841 23.5657C58.7841 23.5649 58.7841 23.5641 58.7841 23.5633C58.7841 23.5626 58.7841 23.5618 58.7841 23.561C58.7841 23.5602 58.7841 23.5594 58.7841 23.5586C58.7841 23.5579 58.7841 23.5571 58.7841 23.5563C58.7841 23.5555 58.7841 23.5547 58.7841 23.5539C58.7841 23.5531 58.7841 23.5524 58.7841 23.5516C58.7841 23.5508 58.7841 23.55 58.7841 23.5492C58.7841 23.5484 58.7841 23.5476 58.7841 23.5468C58.7841 23.5461 58.7841 23.5453 58.7841 23.5445C58.7841 23.5437 58.7841 23.5429 58.7841 23.5421C58.7841 23.5413 58.7841 23.5405 58.7841 23.5397C58.7841 23.539 58.7841 23.5382 58.7841 23.5374C58.7841 23.5366 58.7841 23.5358 58.7841 23.535C58.7841 23.5342 58.7841 23.5334 58.7841 23.5326C58.7841 23.5318 58.7841 23.5311 58.7841 23.5303C58.7841 23.5295 58.7841 23.5287 58.7841 23.5279C58.7841 23.5271 58.7841 23.5263 58.7841 23.5255C58.7841 23.5247 58.7841 23.5239 58.7841 23.5231C58.7841 23.5223 58.7841 23.5215 58.7841 23.5208C58.7841 23.52 58.7841 23.5192 58.7841 23.5184C58.7841 23.5176 58.7841 23.5168 58.7841 23.516C58.7841 23.5152 58.7841 23.5144 58.7841 23.5136C58.7841 23.5128 58.7841 23.512 58.7841 23.5112C58.7841 23.5104 58.7841 23.5096 58.7841 23.5088C58.7841 23.508 58.7841 23.5072 58.7841 23.5064C58.7841 23.5056 58.7841 23.5048 58.7841 23.504C58.7841 23.5033 58.7841 23.5025 58.7841 23.5017C58.7841 23.5009 58.7841 23.5001 58.7841 23.4993C58.7841 23.4985 58.7841 23.4977 58.7841 23.4969C58.7841 23.4961 58.7841 23.4953 58.7841 23.4945C58.7841 23.4937 58.7841 23.4929 58.7841 23.4921C58.7841 23.4913 58.7841 23.4905 58.7841 23.4897C58.7841 23.4889 58.7841 23.4881 58.7841 23.4873C58.7841 23.4865 58.7841 23.4857 58.7841 23.4849C58.7841 23.4841 58.7841 23.4833 58.7841 23.4825C58.7841 23.4817 58.7841 23.4809 58.7841 23.4801C58.7841 23.4793 58.7841 23.4784 58.7841 23.4776C58.7841 23.4768 58.7841 23.476 58.7841 23.4752C58.7841 23.4744 58.7841 23.4736 58.7841 23.4728C58.7841 23.472 58.7841 23.4712 58.7841 23.4704C58.7841 23.4696 58.7841 23.4688 58.7841 23.468H57.7841C57.7841 23.4688 57.7841 23.4696 57.7841 23.4704C57.7841 23.4712 57.7841 23.472 57.7841 23.4728C57.7841 23.4736 57.7841 23.4744 57.7841 23.4752C57.7841 23.476 57.7841 23.4768 57.7841 23.4776C57.7841 23.4784 57.7841 23.4793 57.7841 23.4801C57.7841 23.4809 57.7841 23.4817 57.7841 23.4825C57.7841 23.4833 57.7841 23.4841 57.7841 23.4849C57.7841 23.4857 57.7841 23.4865 57.7841 23.4873C57.7841 23.4881 57.7841 23.4889 57.7841 23.4897C57.7841 23.4905 57.7841 23.4913 57.7841 23.4921C57.7841 23.4929 57.7841 23.4937 57.7841 23.4945C57.7841 23.4953 57.7841 23.4961 57.7841 23.4969C57.7841 23.4977 57.7841 23.4985 57.7841 23.4993C57.7841 23.5001 57.7841 23.5009 57.7841 23.5017C57.7841 23.5025 57.7841 23.5033 57.7841 23.504C57.7841 23.5048 57.7841 23.5056 57.7841 23.5064C57.7841 23.5072 57.7841 23.508 57.7841 23.5088C57.7841 23.5096 57.7841 23.5104 57.7841 23.5112C57.7841 23.512 57.7841 23.5128 57.7841 23.5136C57.7841 23.5144 57.7841 23.5152 57.7841 23.516C57.7841 23.5168 57.7841 23.5176 57.7841 23.5184C57.7841 23.5192 57.7841 23.52 57.7841 23.5208C57.7841 23.5215 57.7841 23.5223 57.7841 23.5231C57.7841 23.5239 57.7841 23.5247 57.7841 23.5255C57.7841 23.5263 57.7841 23.5271 57.7841 23.5279C57.7841 23.5287 57.7841 23.5295 57.7841 23.5303C57.7841 23.5311 57.7841 23.5318 57.7841 23.5326C57.7841 23.5334 57.7841 23.5342 57.7841 23.535C57.7841 23.5358 57.7841 23.5366 57.7841 23.5374C57.7841 23.5382 57.7841 23.539 57.7841 23.5397C57.7841 23.5405 57.7841 23.5413 57.7841 23.5421C57.7841 23.5429 57.7841 23.5437 57.7841 23.5445C57.7841 23.5453 57.7841 23.5461 57.7841 23.5468C57.7841 23.5476 57.7841 23.5484 57.7841 23.5492C57.7841 23.55 57.7841 23.5508 57.7841 23.5516C57.7841 23.5524 57.7841 23.5531 57.7841 23.5539C57.7841 23.5547 57.7841 23.5555 57.7841 23.5563C57.7841 23.5571 57.7841 23.5579 57.7841 23.5586C57.7841 23.5594 57.7841 23.5602 57.7841 23.561C57.7841 23.5618 57.7841 23.5626 57.7841 23.5633C57.7841 23.5641 57.7841 23.5649 57.7841 23.5657C57.7841 23.5665 57.7841 23.5673 57.7841 23.568C57.7841 23.5688 57.7841 23.5696 57.7841 23.5704C57.7841 23.5712 57.7841 23.572 57.7841 23.5727C57.7841 23.5735 57.7841 23.5743 57.7841 23.5751C57.7841 23.5759 57.7841 23.5767 57.7841 23.5774C57.7841 23.5782 57.7841 23.579 57.7841 23.5798C57.7841 23.5806 57.7841 23.5813 57.7841 23.5821C57.7841 23.5829 57.7841 23.5837 57.7841 23.5845C57.7841 23.5852 57.7841 23.586 57.7841 23.5868C57.7841 23.5876 57.7841 23.5883 57.7841 23.5891C57.7841 23.5899 57.7841 23.5907 57.7841 23.5915C57.7841 23.5922 57.7841 23.593 57.7841 23.5938C57.7841 23.5946 57.7841 23.5953 57.7841 23.5961C57.7841 23.5969 57.7841 23.5977 57.7841 23.5985C57.7841 23.5992 57.7841 23.6 57.7841 23.6008C57.7841 23.6016 57.7841 23.6023 57.7841 23.6031C57.7841 23.6039 57.7841 23.6047 57.7841 23.6054C57.7841 23.6062 57.7841 23.607 57.7841 23.6078C57.7841 23.6085 57.7841 23.6093 57.7841 23.6101C57.7841 23.6109 57.7841 23.6116 57.7841 23.6124C57.7841 23.6132 57.7841 23.6139 57.7841 23.6147C57.7841 23.6155 57.7841 23.6163 57.7841 23.617C57.7841 23.6178 57.7841 23.6186 57.7841 23.6193C57.7841 23.6201 57.7841 23.6209 57.7841 23.6217C57.7841 23.6224 57.7841 23.6232 57.7841 23.624C57.7841 23.6247 57.7841 23.6255 57.7841 23.6263C57.7841 23.6271 57.7841 23.6278 57.7841 23.6286C57.7841 23.6294 57.7841 23.6301 57.7841 23.6309C57.7841 23.6317 57.7841 23.6324 57.7841 23.6332C57.7841 23.634 57.7841 23.6347 57.7841 23.6355C57.7841 23.6363 57.7841 23.637 57.7841 23.6378C57.7841 23.6386 57.7841 23.6393 57.7841 23.6401C57.7841 23.6409 57.7841 23.6416 57.7841 23.6424C57.7841 23.6432 57.7841 23.6439 57.7841 23.6447C57.7841 23.6455 57.7841 23.6462 57.7841 23.647C57.7841 23.6478 57.7841 23.6485 57.7841 23.6493C57.7841 23.6501 57.7841 23.6508 57.7841 23.6516C57.7841 23.6524 57.7841 23.6531 57.7841 23.6539C57.7841 23.6547 57.7841 23.6554 57.7841 23.6562C57.7841 23.6569 57.7841 23.6577 57.7841 23.6585C57.7841 23.6592 57.7841 23.66 57.7841 23.6608C57.7841 23.6615 57.7841 23.6623 57.7841 23.663C57.7841 23.6638 57.7841 23.6646 57.7841 23.6653C57.7841 23.6661 57.7841 23.6668 57.7841 23.6676C57.7841 23.6684 57.7841 23.6691 57.7841 23.6699C57.7841 23.6706 57.7841 23.6714 57.7841 23.6722C57.7841 23.6729 57.7841 23.6737 57.7841 23.6744C57.7841 23.6752 57.7841 23.676 57.7841 23.6767C57.7841 23.6775 57.7841 23.6782 57.7841 23.679C57.7841 23.6798 57.7841 23.6805 57.7841 23.6813C57.7841 23.682 57.7841 23.6828 57.7841 23.6835C57.7841 23.6843 57.7841 23.6851 57.7841 23.6858C57.7841 23.6866 57.7841 23.6873 57.7841 23.6881C57.7841 23.6888 57.7841 23.6896 57.7841 23.6903C57.7841 23.6911 57.7841 23.6919 57.7841 23.6926C57.7841 23.6934 57.7841 23.6941 57.7841 23.6949C57.7841 23.6956 57.7841 23.6964 57.7841 23.6971C57.7841 23.6979 57.7841 23.6986 57.7841 23.6994C57.7841 23.7001 57.7841 23.7009 57.7841 23.7017C57.7841 23.7024 57.7841 23.7032 57.7841 23.7039C57.7841 23.7047 57.7841 23.7054 57.7841 23.7062C57.7841 23.7069 57.7841 23.7077 57.7841 23.7084C57.7841 23.7092 57.7841 23.7099 57.7841 23.7107C57.7841 23.7114 57.7841 23.7122 57.7841 23.7129C57.7841 23.7137 57.7841 23.7144 57.7841 23.7152C57.7841 23.7159 57.7841 23.7167 57.7841 23.7174C57.7841 23.7182 57.7841 23.7189 57.7841 23.7197C57.7841 23.7204 57.7841 23.7212 57.7841 23.7219C57.7841 23.7227 57.7841 23.7234 57.7841 23.7242C57.7841 23.7249 57.7841 23.7256 57.7841 23.7264C57.7841 23.7271 57.7841 23.7279 57.7841 23.7286C57.7841 23.7294 57.7841 23.7301 57.7841 23.7309C57.7841 23.7316 57.7841 23.7324 57.7841 23.7331C57.7841 23.7339 57.7841 23.7346 57.7841 23.7353C57.7841 23.7361 57.7841 23.7368 57.7841 23.7376C57.7841 23.7383 57.7841 23.7391 57.7841 23.7398C57.7841 23.7406 57.7841 23.7413 57.7841 23.742C57.7841 23.7428 57.7841 23.7435 57.7841 23.7443C57.7841 23.745 57.7841 23.7458 57.7841 23.7465C57.7841 23.7472 57.7841 23.748 57.7841 23.7487C57.7841 23.7495 57.7841 23.7502 57.7841 23.7509C57.7841 23.7517 57.7841 23.7524 57.7841 23.7532C57.7841 23.7539 57.7841 23.7546 57.7841 23.7554C57.7841 23.7561 57.7841 23.7569 57.7841 23.7576C57.7841 23.7583 57.7841 23.7591 57.7841 23.7598C57.7841 23.7606 57.7841 23.7613 57.7841 23.762C57.7841 23.7628 57.7841 23.7635 57.7841 23.7643C57.7841 23.765 57.7841 23.7657 57.7841 23.7665C57.7841 23.7672 57.7841 23.7679 57.7841 23.7687C57.7841 23.7694 57.7841 23.7702 57.7841 23.7709C57.7841 23.7716 57.7841 23.7724 57.7841 23.7731C57.7841 23.7738 57.7841 23.7746 57.7841 23.7753C57.7841 23.776 57.7841 23.7768 57.7841 23.7775C57.7841 23.7782 57.7841 23.779 57.7841 23.7797C57.7841 23.7804 57.7841 23.7812 57.7841 23.7819C57.7841 23.7827 57.7841 23.7834 57.7841 23.7841C57.7841 23.7849 57.7841 23.7856 57.7841 23.7863C57.7841 23.787 57.7841 23.7878 57.7841 23.7885C57.7841 23.7892 57.7841 23.79 57.7841 23.7907C57.7841 23.7914 57.7841 23.7922 57.7841 23.7929C57.7841 23.7936 57.7841 23.7944 57.7841 23.7951C57.7841 23.7958 57.7841 23.7966 57.7841 23.7973C57.7841 23.798 57.7841 23.7987 57.7841 23.7995C57.7841 23.8002 57.7841 23.8009 57.7841 23.8017C57.7841 23.8024 57.7841 23.8031 57.7841 23.8039C57.7841 23.8046 57.7841 23.8053 57.7841 23.806C57.7841 23.8068 57.7841 23.8075 57.7841 23.8082C57.7841 23.8089 57.7841 23.8097 57.7841 23.8104C57.7841 23.8111 57.7841 23.8119 57.7841 23.8126C57.7841 23.8133 57.7841 23.814 57.7841 23.8148C57.7841 23.8155 57.7841 23.8162 57.7841 23.8169C57.7841 23.8177 57.7841 23.8184 57.7841 23.8191C57.7841 23.8198 57.7841 23.8206 57.7841 23.8213C57.7841 23.822 57.7841 23.8227 57.7841 23.8235C57.7841 23.8242 57.7841 23.8249 57.7841 23.8256C57.7841 23.8264 57.7841 23.8271 57.7841 23.8278C57.7841 23.8285 57.7841 23.8292 57.7841 23.83C57.7841 23.8307 57.7841 23.8314 57.7841 23.8321C57.7841 23.8329 57.7841 23.8336 57.7841 23.8343C57.7841 23.835 57.7841 23.8357 57.7841 23.8365C57.7841 23.8372 57.7841 23.8379 57.7841 23.8386C57.7841 23.8393 57.7841 23.8401 57.7841 23.8408C57.7841 23.8415 57.7841 23.8422 57.7841 23.8429C57.7841 23.8437 57.7841 23.8444 57.7841 23.8451C57.7841 23.8458 57.7841 23.8465 57.7841 23.8472C57.7841 23.848 57.7841 23.8487 57.7841 23.8494C57.7841 23.8501 57.7841 23.8508 57.7841 23.8516C57.7841 23.8523 57.7841 23.853 57.7841 23.8537C57.7841 23.8544 57.7841 23.8551 57.7841 23.8559C57.7841 23.8566 57.7841 23.8573 57.7841 23.858C57.7841 23.8587 57.7841 23.8594 57.7841 23.8601C57.7841 23.8609 57.7841 23.8616 57.7841 23.8623C57.7841 23.863 57.7841 23.8637 57.7841 23.8644C57.7841 23.8651 57.7841 23.8659 57.7841 23.8666C57.7841 23.8673 57.7841 23.868 57.7841 23.8687C57.7841 23.8694 57.7841 23.8701 57.7841 23.8708C57.7841 23.8716 57.7841 23.8723 57.7841 23.873C57.7841 23.8737 57.7841 23.8744 57.7841 23.8751C57.7841 23.8758 57.7841 23.8765 57.7841 23.8773C57.7841 23.878 57.7841 23.8787 57.7841 23.8794C57.7841 23.8801 57.7841 23.8808 57.7841 23.8815C57.7841 23.8822 57.7841 23.8829 57.7841 23.8836C57.7841 23.8844 57.7841 23.8851 57.7841 23.8858C57.7841 23.8865 57.7841 23.8872 57.7841 23.8879C57.7841 23.8886 57.7841 23.8893 57.7841 23.89C57.7841 23.8907 57.7841 23.8914 57.7841 23.8921C57.7841 23.8928 57.7841 23.8936 57.7841 23.8943C57.7841 23.895 57.7841 23.8957 57.7841 23.8964C57.7841 23.8971 57.7841 23.8978 57.7841 23.8985C57.7841 23.8992 57.7841 23.8999 57.7841 23.9006C57.7841 23.9013 57.7841 23.902 57.7841 23.9027C57.7841 23.9034 57.7841 23.9041 57.7841 23.9048C57.7841 23.9055 57.7841 23.9062 57.7841 23.9069C57.7841 23.9077 57.7841 23.9084 57.7841 23.9091C57.7841 23.9098 57.7841 23.9105 57.7841 23.9112C57.7841 23.9119 57.7841 23.9126 57.7841 23.9133C57.7841 23.914 57.7841 23.9147 57.7841 23.9154C57.7841 23.9161 57.7841 23.9168 57.7841 23.9175C57.7841 23.9182 57.7841 23.9189 57.7841 23.9196C57.7841 23.9203 57.7841 23.921 57.7841 23.9217C57.7841 23.9224 57.7841 23.9231 57.7841 23.9238C57.7841 23.9245 57.7841 23.9252 57.7841 23.9259C57.7841 23.9266 57.7841 23.9273 57.7841 23.928C57.7841 23.9287 57.7841 23.9294 57.7841 23.9301C57.7841 23.9308 57.7841 23.9315 57.7841 23.9322C57.7841 23.9329 57.7841 23.9336 57.7841 23.9342C57.7841 23.9349 57.7841 23.9356 57.7841 23.9363C57.7841 23.937 57.7841 23.9377 57.7841 23.9384C57.7841 23.9391 57.7841 23.9398 57.7841 23.9405C57.7841 23.9412 57.7841 23.9419 57.7841 23.9426C57.7841 23.9433 57.7841 23.944 57.7841 23.9447C57.7841 23.9454 57.7841 23.9461 57.7841 23.9468C57.7841 23.9475 57.7841 23.9481 57.7841 23.9488C57.7841 23.9495 57.7841 23.9502 57.7841 23.9509C57.7841 23.9516 57.7841 23.9523 57.7841 23.953C57.7841 23.9537 57.7841 23.9544 57.7841 23.9551C57.7841 23.9558 57.7841 23.9564 57.7841 23.9571C57.7841 23.9578 57.7841 23.9585 57.7841 23.9592C57.7841 23.9599 57.7841 23.9606 57.7841 23.9613C57.7841 23.962 57.7841 23.9627 57.7841 23.9633C57.7841 23.964 57.7841 23.9647 57.7841 23.9654C57.7841 23.9661 57.7841 23.9668 57.7841 23.9675C57.7841 23.9682 57.7841 23.9689 57.7841 23.9695C57.7841 23.9702 57.7841 23.9709 57.7841 23.9716C57.7841 23.9723 57.7841 23.973 57.7841 23.9737C57.7841 23.9744 57.7841 23.975 57.7841 23.9757C57.7841 23.9764 57.7841 23.9771 57.7841 23.9778C57.7841 23.9785 57.7841 23.9792 57.7841 23.9798C57.7841 23.9805 57.7841 23.9812 57.7841 23.9819C57.7841 23.9826 57.7841 23.9833 57.7841 23.9839C57.7841 23.9846 57.7841 23.9853 57.7841 23.986C57.7841 23.9867 57.7841 23.9874 57.7841 23.988C57.7841 23.9887 57.7841 23.9894 57.7841 23.9901C57.7841 23.9908 57.7841 23.9915 57.7841 23.9921C57.7841 23.9928 57.7841 23.9935 57.7841 23.9942C57.7841 23.9949 57.7841 23.9955 57.7841 23.9962C57.7841 23.9969 57.7841 23.9976 57.7841 23.9983C57.7841 23.999 57.7841 23.9996 57.7841 24.0003C57.7841 24.001 57.7841 24.0017 57.7841 24.0024C57.7841 24.003 57.7841 24.0037 57.7841 24.0044C57.7841 24.0051 57.7841 24.0057 57.7841 24.0064C57.7841 24.0071 57.7841 24.0078 57.7841 24.0085C57.7841 24.0091 57.7841 24.0098 57.7841 24.0105C57.7841 24.0112 57.7841 24.0118 57.7841 24.0125C57.7841 24.0132 57.7841 24.0139 57.7841 24.0145C57.7841 24.0152 57.7841 24.0159 57.7841 24.0166C57.7841 24.0173 57.7841 24.0179 57.7841 24.0186C57.7841 24.0193 57.7841 24.02 57.7841 24.0206C57.7841 24.0213 57.7841 24.022 57.7841 24.0226C57.7841 24.0233 57.7841 24.024 57.7841 24.0247C57.7841 24.0253 57.7841 24.026 57.7841 24.0267C57.7841 24.0274 57.7841 24.028 57.7841 24.0287C57.7841 24.0294 57.7841 24.0301 57.7841 24.0307C57.7841 24.0314 57.7841 24.0321 57.7841 24.0327C57.7841 24.0334 57.7841 24.0341 57.7841 24.0348C57.7841 24.0354 57.7841 24.0361 57.7841 24.0368C57.7841 24.0374 57.7841 24.0381 57.7841 24.0388C57.7841 24.0394 57.7841 24.0401 57.7841 24.0408C57.7841 24.0415 57.7841 24.0421 57.7841 24.0428C57.7841 24.0435 57.7841 24.0441 57.7841 24.0448C57.7841 24.0455 57.7841 24.0461 57.7841 24.0468C57.7841 24.0475 57.7841 24.0481 57.7841 24.0488C57.7841 24.0495 57.7841 24.0501 57.7841 24.0508C57.7841 24.0515 57.7841 24.0521 57.7841 24.0528C57.7841 24.0535 57.7841 24.0541 57.7841 24.0548C57.7841 24.0555 57.7841 24.0561 57.7841 24.0568C57.7841 24.0575 57.7841 24.0581 57.7841 24.0588C57.7841 24.0595 57.7841 24.0601 57.7841 24.0608C57.7841 24.0614 57.7841 24.0621 57.7841 24.0628C57.7841 24.0634 57.7841 24.0641 57.7841 24.0648C57.7841 24.0654 57.7841 24.0661 57.7841 24.0668C57.7841 24.0674 57.7841 24.0681 57.7841 24.0687C57.7841 24.0694 57.7841 24.0701 57.7841 24.0707C57.7841 24.0714 57.7841 24.072 57.7841 24.0727C57.7841 24.0734 57.7841 24.074 57.7841 24.0747C57.7841 24.0754 57.7841 24.076 57.7841 24.0767C57.7841 24.0773 57.7841 24.078 57.7841 24.0787C57.7841 24.0793 57.7841 24.08 57.7841 24.0806C57.7841 24.0813 57.7841 24.0819 57.7841 24.0826C57.7841 24.0833 57.7841 24.0839 57.7841 24.0846C57.7841 24.0852 57.7841 24.0859 57.7841 24.0866C57.7841 24.0872 57.7841 24.0879 57.7841 24.0885C57.7841 24.0892 57.7841 24.0898 57.7841 24.0905C57.7841 24.0911 57.7841 24.0918 57.7841 24.0925C57.7841 24.0931 57.7841 24.0938 57.7841 24.0944C57.7841 24.0951 57.7841 24.0957 57.7841 24.0964C57.7841 24.097 57.7841 24.0977 57.7841 24.0984C57.7841 24.099 57.7841 24.0997 57.7841 24.1003C57.7841 24.101 57.7841 24.1016 57.7841 24.1023C57.7841 24.1029 57.7841 24.1036 57.7841 24.1042C57.7841 24.1049 57.7841 24.1055 57.7841 24.1062C57.7841 24.1068 57.7841 24.1075 57.7841 24.1081C57.7841 24.1088 57.7841 24.1094 57.7841 24.1101C57.7841 24.1107 57.7841 24.1114 57.7841 24.1121C57.7841 24.1127 57.7841 24.1134 57.7841 24.114C57.7841 24.1147 57.7841 24.1153 57.7841 24.116C57.7841 24.1166 57.7841 24.1172 57.7841 24.1179C57.7841 24.1185 57.7841 24.1192 57.7841 24.1198C57.7841 24.1205 57.7841 24.1211 57.7841 24.1218C57.7841 24.1224 57.7841 24.1231 57.7841 24.1237C57.7841 24.1244 57.7841 24.125 57.7841 24.1257C57.7841 24.1263 57.7841 24.127 57.7841 24.1276C57.7841 24.1283 57.7841 24.1289 57.7841 24.1295C57.7841 24.1302 57.7841 24.1308 57.7841 24.1315C57.7841 24.1321 57.7841 24.1328 57.7841 24.1334C57.7841 24.1341 57.7841 24.1347 57.7841 24.1354C57.7841 24.136 57.7841 24.1366 57.7841 24.1373C57.7841 24.1379 57.7841 24.1386 57.7841 24.1392C57.7841 24.1399 57.7841 24.1405 57.7841 24.1411C57.7841 24.1418 57.7841 24.1424 57.7841 24.1431C57.7841 24.1437 57.7841 24.1444 57.7841 24.145C57.7841 24.1456 57.7841 24.1463 57.7841 24.1469C57.7841 24.1476 57.7841 24.1482 57.7841 24.1488C57.7841 24.1495 57.7841 24.1501 57.7841 24.1508C57.7841 24.1514 57.7841 24.152 57.7841 24.1527C57.7841 24.1533 57.7841 24.154 57.7841 24.1546C57.7841 24.1552 57.7841 24.1559 57.7841 24.1565C57.7841 24.1572 57.7841 24.1578 57.7841 24.1584C57.7841 24.1591 57.7841 24.1597 57.7841 24.1603C57.7841 24.161 57.7841 24.1616 57.7841 24.1623C57.7841 24.1629 57.7841 24.1635 57.7841 24.1642C57.7841 24.1648 57.7841 24.1654 57.7841 24.1661C57.7841 24.1667 57.7841 24.1673 57.7841 24.168C57.7841 24.1686 57.7841 24.1692 57.7841 24.1699C57.7841 24.1705 57.7841 24.1712 57.7841 24.1718C57.7841 24.1724 57.7841 24.1731 57.7841 24.1737C57.7841 24.1743 57.7841 24.175 57.7841 24.1756C57.7841 24.1762 57.7841 24.1769 57.7841 24.1775C57.7841 24.1781 57.7841 24.1788 57.7841 24.1794C57.7841 24.18 57.7841 24.1806 57.7841 24.1813C57.7841 24.1819 57.7841 24.1825 57.7841 24.1832C57.7841 24.1838 57.7841 24.1844 57.7841 24.1851C57.7841 24.1857 57.7841 24.1863 57.7841 24.187C57.7841 24.1876 57.7841 24.1882 57.7841 24.1888C57.7841 24.1895 57.7841 24.1901 57.7841 24.1907C57.7841 24.1914 57.7841 24.192 57.7841 24.1926C57.7841 24.1932 57.7841 24.1939 57.7841 24.1945C57.7841 24.1951 57.7841 24.1958 57.7841 24.1964C57.7841 24.197 57.7841 24.1976 57.7841 24.1983C57.7841 24.1989 57.7841 24.1995 57.7841 24.2001C57.7841 24.2008 57.7841 24.2014 57.7841 24.202C57.7841 24.2027 57.7841 24.2033 57.7841 24.2039C57.7841 24.2045 57.7841 24.2052 57.7841 24.2058C57.7841 24.2064 57.7841 24.207 57.7841 24.2077C57.7841 24.2083 57.7841 24.2089 57.7841 24.2095C57.7841 24.2101 57.7841 24.2108 57.7841 24.2114C57.7841 24.212 57.7841 24.2126 57.7841 24.2133C57.7841 24.2139 57.7841 24.2145 57.7841 24.2151C57.7841 24.2158 57.7841 24.2164 57.7841 24.217C57.7841 24.2176 57.7841 24.2182 57.7841 24.2189C57.7841 24.2195 57.7841 24.2201 57.7841 24.2207C57.7841 24.2213 57.7841 24.222 57.7841 24.2226C57.7841 24.2232 57.7841 24.2238 57.7841 24.2244C57.7841 24.2251 57.7841 24.2257 57.7841 24.2263C57.7841 24.2269 57.7841 24.2275 57.7841 24.2282C57.7841 24.2288 57.7841 24.2294 57.7841 24.23C57.7841 24.2306 57.7841 24.2312 57.7841 24.2319C57.7841 24.2325 57.7841 24.2331 57.7841 24.2337C57.7841 24.2343 57.7841 24.2349 57.7841 24.2356C57.7841 24.2362 57.7841 24.2368 57.7841 24.2374C57.7841 24.238 57.7841 24.2386 57.7841 24.2393C57.7841 24.2399 57.7841 24.2405 57.7841 24.2411C57.7841 24.2417 57.7841 24.2423 57.7841 24.2429C57.7841 24.2436 57.7841 24.2442 57.7841 24.2448C57.7841 24.2454 57.7841 24.246 57.7841 24.2466C57.7841 24.2472 57.7841 24.2479 57.7841 24.2485C57.7841 24.2491 57.7841 24.2497 57.7841 24.2503C57.7841 24.2509 57.7841 24.2515 57.7841 24.2521C57.7841 24.2528 57.7841 24.2534 57.7841 24.254C57.7841 24.2546 57.7841 24.2552 57.7841 24.2558C57.7841 24.2564 57.7841 24.257 57.7841 24.2576C57.7841 24.2583 57.7841 24.2589 57.7841 24.2595C57.7841 24.2601 57.7841 24.2607 57.7841 24.2613C57.7841 24.2619 57.7841 24.2625 57.7841 24.2631C57.7841 24.2637 57.7841 24.2643 57.7841 24.2649C57.7841 24.2656 57.7841 24.2662 57.7841 24.2668C57.7841 24.2674 57.7841 24.268 57.7841 24.2686C57.7841 24.2692 57.7841 24.2698 57.7841 24.2704C57.7841 24.271 57.7841 24.2716 57.7841 24.2722C57.7841 24.2728 57.7841 24.2734 57.7841 24.274C57.7841 24.2747 57.7841 24.2753 57.7841 24.2759C57.7841 24.2765 57.7841 24.2771 57.7841 24.2777C57.7841 24.2783 57.7841 24.2789 57.7841 24.2795C57.7841 24.2801 57.7841 24.2807 57.7841 24.2813C57.7841 24.2819 57.7841 24.2825 57.7841 24.2831C57.7841 24.2837 57.7841 24.2843 57.7841 24.2849C57.7841 24.2855 57.7841 24.2861 57.7841 24.2867C57.7841 24.2873 57.7841 24.2879 57.7841 24.2885C57.7841 24.2891 57.7841 24.2897 57.7841 24.2903C57.7841 24.2909 57.7841 24.2915 57.7841 24.2921C57.7841 24.2927 57.7841 24.2933 57.7841 24.2939C57.7841 24.2945 57.7841 24.2951 57.7841 24.2957C57.7841 24.2963 57.7841 24.2969 57.7841 24.2975C57.7841 24.2981 57.7841 24.2987 57.7841 24.2993C57.7841 24.2999 57.7841 24.3005 57.7841 24.3011C57.7841 24.3017 57.7841 24.3023 57.7841 24.3029C57.7841 24.3035 57.7841 24.3041 57.7841 24.3047C57.7841 24.3053 57.7841 24.3059 57.7841 24.3065C57.7841 24.3071 57.7841 24.3077 57.7841 24.3083C57.7841 24.3089 57.7841 24.3095 57.7841 24.3101C57.7841 24.3107 57.7841 24.3112 57.7841 24.3118C57.7841 24.3124 57.7841 24.313 57.7841 24.3136C57.7841 24.3142 57.7841 24.3148 57.7841 24.3154C57.7841 24.316 57.7841 24.3166 57.7841 24.3172C57.7841 24.3178 57.7841 24.3184 57.7841 24.319C57.7841 24.3196 57.7841 24.3201 57.7841 24.3207C57.7841 24.3213 57.7841 24.3219 57.7841 24.3225C57.7841 24.3231 57.7841 24.3237 57.7841 24.3243C57.7841 24.3249 57.7841 24.3255 57.7841 24.3261C57.7841 24.3266 57.7841 24.3272 57.7841 24.3278C57.7841 24.3284 57.7841 24.329 57.7841 24.3296C57.7841 24.3302 57.7841 24.3308 57.7841 24.3314C57.7841 24.3319 57.7841 24.3325 57.7841 24.3331C57.7841 24.3337 57.7841 24.3343 57.7841 24.3349C57.7841 24.3355 57.7841 24.3361 57.7841 24.3366C57.7841 24.3372 57.7841 24.3378 57.7841 24.3384C57.7841 24.339 57.7841 24.3396 57.7841 24.3402C57.7841 24.3408 57.7841 24.3413 57.7841 24.3419C57.7841 24.3425 57.7841 24.3431 57.7841 24.3437C57.7841 24.3443 57.7841 24.3448 57.7841 24.3454C57.7841 24.346 57.7841 24.3466 57.7841 24.3472C57.7841 24.3478 57.7841 24.3484 57.7841 24.3489C57.7841 24.3495 57.7841 24.3501 57.7841 24.3507C57.7841 24.3513 57.7841 24.3519 57.7841 24.3524C57.7841 24.353 57.7841 24.3536 57.7841 24.3542C57.7841 24.3548 57.7841 24.3553 57.7841 24.3559C57.7841 24.3565 57.7841 24.3571 57.7841 24.3577C57.7841 24.3582 57.7841 24.3588 57.7841 24.3594C57.7841 24.36 57.7841 24.3606 57.7841 24.3611C57.7841 24.3617 57.7841 24.3623 57.7841 24.3629C57.7841 24.3635 57.7841 24.364 57.7841 24.3646C57.7841 24.3652 57.7841 24.3658 57.7841 24.3664C57.7841 24.3669 57.7841 24.3675 57.7841 24.3681C57.7841 24.3687 57.7841 24.3692 57.7841 24.3698C57.7841 24.3704 57.7841 24.371 57.7841 24.3716C57.7841 24.3721 57.7841 24.3727 57.7841 24.3733C57.7841 24.3739 57.7841 24.3744 57.7841 24.375C57.7841 24.3756 57.7841 24.3762 57.7841 24.3767C57.7841 24.3773 57.7841 24.3779 57.7841 24.3785C57.7841 24.379 57.7841 24.3796 57.7841 24.3802C57.7841 24.3808 57.7841 24.3813 57.7841 24.3819C57.7841 24.3825 57.7841 24.3831 57.7841 24.3836C57.7841 24.3842 57.7841 24.3848 57.7841 24.3853C57.7841 24.3859 57.7841 24.3865 57.7841 24.3871C57.7841 24.3876 57.7841 24.3882 57.7841 24.3888C57.7841 24.3893 57.7841 24.3899 57.7841 24.3905C57.7841 24.3911 57.7841 24.3916 57.7841 24.3922C57.7841 24.3928 57.7841 24.3933 57.7841 24.3939C57.7841 24.3945 57.7841 24.395 57.7841 24.3956C57.7841 24.3962 57.7841 24.3968 57.7841 24.3973C57.7841 24.3979 57.7841 24.3985 57.7841 24.399C57.7841 24.3996 57.7841 24.4002 57.7841 24.4007C57.7841 24.4013 57.7841 24.4019 57.7841 24.4024C57.7841 24.403 57.7841 24.4036 57.7841 24.4041C57.7841 24.4047 57.7841 24.4053 57.7841 24.4058C57.7841 24.4064 57.7841 24.407 57.7841 24.4075C57.7841 24.4081 57.7841 24.4087 57.7841 24.4092C57.7841 24.4098 57.7841 24.4104 57.7841 24.4109C57.7841 24.4115 57.7841 24.412 57.7841 24.4126C57.7841 24.4132 57.7841 24.4137 57.7841 24.4143C57.7841 24.4149 57.7841 24.4154 57.7841 24.416C57.7841 24.4166 57.7841 24.4171 57.7841 24.4177C57.7841 24.4182 57.7841 24.4188 57.7841 24.4194C57.7841 24.4199 57.7841 24.4205 57.7841 24.4211C57.7841 24.4216 57.7841 24.4222 57.7841 24.4227C57.7841 24.4233 57.7841 24.4239 57.7841 24.4244C57.7841 24.425 57.7841 24.4255 57.7841 24.4261C57.7841 24.4267 57.7841 24.4272 57.7841 24.4278C57.7841 24.4283 57.7841 24.4289 57.7841 24.4295C57.7841 24.43 57.7841 24.4306 57.7841 24.4311C57.7841 24.4317 57.7841 24.4322 57.7841 24.4328C57.7841 24.4334 57.7841 24.4339 57.7841 24.4345C57.7841 24.435 57.7841 24.4356 57.7841 24.4361C57.7841 24.4367 57.7841 24.4373 57.7841 24.4378C57.7841 24.4384 57.7841 24.4389 57.7841 24.4395C57.7841 24.44 57.7841 24.4406 57.7841 24.4411C57.7841 24.4417 57.7841 24.4423 57.7841 24.4428C57.7841 24.4434 57.7841 24.4439 57.7841 24.4445C57.7841 24.445 57.7841 24.4456 57.7841 24.4461C57.7841 24.4467 57.7841 24.4472 57.7841 24.4478C57.7841 24.4483 57.7841 24.4489 57.7841 24.4495C57.7841 24.45 57.7841 24.4506 57.7841 24.4511C57.7841 24.4517 57.7841 24.4522 57.7841 24.4528C57.7841 24.4533 57.7841 24.4539 57.7841 24.4544C57.7841 24.455 57.7841 24.4555 57.7841 24.4561C57.7841 24.4566 57.7841 24.4572 57.7841 24.4577C57.7841 24.4583 57.7841 24.4588 57.7841 24.4594C57.7841 24.4599 57.7841 24.4605 57.7841 24.461C57.7841 24.4616 57.7841 24.4621 57.7841 24.4627C57.7841 24.4632 57.7841 24.4638 57.7841 24.4643C57.7841 24.4649 57.7841 24.4654 57.7841 24.4659C57.7841 24.4665 57.7841 24.467 57.7841 24.4676C57.7841 24.4681 57.7841 24.4687 57.7841 24.4692C57.7841 24.4698 57.7841 24.4703 57.7841 24.4709C57.7841 24.4714 57.7841 24.472 57.7841 24.4725C57.7841 24.473 57.7841 24.4736 57.7841 24.4741C57.7841 24.4747 57.7841 24.4752 57.7841 24.4758C57.7841 24.4763 57.7841 24.4769 57.7841 24.4774C57.7841 24.4779 57.7841 24.4785 57.7841 24.479C57.7841 24.4796 57.7841 24.4801 57.7841 24.4807C57.7841 24.4812 57.7841 24.4817 57.7841 24.4823C57.7841 24.4828 57.7841 24.4834 57.7841 24.4839C57.7841 24.4845 57.7841 24.485 57.7841 24.4855C57.7841 24.4861 57.7841 24.4866 57.7841 24.4872C57.7841 24.4877 57.7841 24.4882 57.7841 24.4888C57.7841 24.4893 57.7841 24.4899 57.7841 24.4904C57.7841 24.4909 57.7841 24.4915 57.7841 24.492C57.7841 24.4925 57.7841 24.4931 57.7841 24.4936C57.7841 24.4942 57.7841 24.4947 57.7841 24.4952C57.7841 24.4958 57.7841 24.4963 57.7841 24.4969C57.7841 24.4974 57.7841 24.4979 57.7841 24.4985H58.7841ZM58.7841 23.468V20.2294H57.7841V23.468H58.7841ZM58.7841 20.2294C58.7841 19.2393 58.6182 18.4078 58.1645 17.8741L57.4026 18.5217C57.6163 18.7731 57.7841 19.296 57.7841 20.2294H58.7841ZM58.1645 17.8741C57.6994 17.3269 56.9892 17.1091 56.1642 17.1091V18.1091C56.831 18.1091 57.2003 18.2838 57.4026 18.5217L58.1645 17.8741ZM56.1642 17.1091H55.0455V18.1091H56.1642V17.1091ZM54.5455 17.6091V26H55.5455V17.6091H54.5455ZM55.0455 25.5H51.8068V26.5H55.0455V25.5ZM52.3068 26V5.39068H51.3068V26H52.3068ZM51.8068 5.89068H56.6942V4.89068H51.8068V5.89068ZM56.6942 5.89068C58.3202 5.89068 59.3726 6.27072 59.9825 6.91273L60.7075 6.22398C59.8257 5.29575 58.4442 4.89068 56.6942 4.89068V5.89068ZM59.987 6.91741C60.6274 7.57427 60.9932 8.61284 60.9932 10.1308H61.9932C61.9932 8.46908 61.5935 7.13267 60.703 6.21931L59.987 6.91741ZM60.9932 10.1308V11.7501H61.9932V10.1308H60.9932ZM60.9932 11.7501C60.9932 13.7575 60.3353 14.9237 59.1599 15.4788L59.5869 16.383C61.238 15.6033 61.9932 13.9824 61.9932 11.7501H60.9932ZM59.1858 16.3943C59.8939 16.681 60.3447 17.1345 60.5849 17.7591L61.5183 17.4001C61.1697 16.4938 60.5016 15.8481 59.561 15.4674L59.1858 16.3943ZM60.5908 17.7736C60.8719 18.4413 61.0227 19.2838 61.0227 20.3177H62.0227C62.0227 19.1926 61.8594 18.2097 61.5124 17.3856L60.5908 17.7736ZM61.0227 20.3177V23.4974H62.0227V20.3177H61.0227ZM61.0227 23.4974C61.0227 24.0198 61.0427 24.4885 61.084 24.9015L62.0791 24.802C62.0419 24.43 62.0227 23.9957 62.0227 23.4974H61.0227ZM61.0843 24.9041C61.1289 25.3282 61.2398 25.7558 61.4117 26.1857L62.3402 25.8143C62.1981 25.4591 62.1127 25.1212 62.0788 24.7994L61.0843 24.9041ZM61.876 25.5H58.5785V26.5H61.876V25.5ZM54.5455 8.33487V14.6649H55.5455V8.33487H54.5455ZM55.0455 15.1649H56.3115V14.1649H55.0455V15.1649ZM56.3115 15.1649C57.0045 15.1649 57.6138 14.9847 58.0674 14.5579L57.382 13.8297C57.1681 14.031 56.8354 14.1649 56.3115 14.1649V15.1649ZM58.0568 14.5675C58.574 14.1078 58.7546 13.3531 58.7546 12.4862H57.7546C57.7546 13.268 57.5819 13.6517 57.3925 13.8201L58.0568 14.5675ZM58.7546 12.4862V10.4547H57.7546V12.4862H58.7546ZM58.7546 10.4547C58.7546 9.66913 58.614 8.9858 58.2284 8.51753L57.4565 9.15323C57.6204 9.35231 57.7546 9.74852 57.7546 10.4547H58.7546ZM58.2396 8.53166C57.8588 8.03369 57.2714 7.83487 56.6059 7.83487V8.83487C57.0788 8.83487 57.3157 8.96973 57.4453 9.13911L58.2396 8.53166ZM56.6059 7.83487H55.0455V8.83487H56.6059V7.83487ZM62.7693 5.39068V4.89068H62.2693V5.39068H62.7693ZM72.7796 5.39068H73.2796V4.89068H72.7796V5.39068ZM72.7796 8.33487V8.83487H73.2796V8.33487H72.7796ZM69.3938 8.33487V7.83487H68.8938V8.33487H69.3938ZM69.3938 26V26.5H69.8938V26H69.3938ZM66.1552 26H65.6552V26.5H66.1552V26ZM66.1552 8.33487H66.6552V7.83487H66.1552V8.33487ZM62.7693 8.33487H62.2693V8.83487H62.7693V8.33487ZM62.7693 5.89068H72.7796V4.89068H62.7693V5.89068ZM72.2796 5.39068V8.33487H73.2796V5.39068H72.2796ZM72.7796 7.83487H69.3938V8.83487H72.7796V7.83487ZM68.8938 8.33487V26H69.8938V8.33487H68.8938ZM69.3938 25.5H66.1552V26.5H69.3938V25.5ZM66.6552 26V8.33487H65.6552V26H66.6552ZM66.1552 7.83487H62.7693V8.83487H66.1552V7.83487ZM63.2693 8.33487V5.39068H62.2693V8.33487H63.2693Z" fill="white"/>
</svg>
