<svg width="66" height="66" viewBox="0 0 66 66" fill="none" xmlns="http://www.w3.org/2000/svg">
<circle cx="33" cy="33" r="33" fill="white"/>
<path d="M34.6098 13.6829C34.6098 12.7938 33.889 12.0731 33 12.0731C32.111 12.0731 31.3902 12.7938 31.3902 13.6829H34.6098ZM31.8617 53.8577C32.4904 54.4864 33.5096 54.4864 34.1383 53.8577L44.3827 43.6133C45.0113 42.9846 45.0113 41.9654 44.3827 41.3368C43.754 40.7081 42.7348 40.7081 42.1062 41.3368L33 50.4429L23.8938 41.3368C23.2652 40.7081 22.246 40.7081 21.6173 41.3368C20.9887 41.9654 20.9887 42.9846 21.6173 43.6133L31.8617 53.8577ZM31.3902 13.6829V52.7194H34.6098V13.6829H31.3902Z" fill="black"/>
</svg>
